<svg xmlns="http://www.w3.org/2000/svg" width="593.397" height="599.94" viewBox="0 0 593.397 599.94">
  <g id="_1" data-name="1" transform="translate(-1 -0.319)">
    <path id="Path_1" data-name="Path 1" d="M584.826,102.543H533.21V58.574a9.571,9.571,0,0,0-3.321-7.245C527.018,48.821,457.533-9.992,370.4,8.815a160.676,160.676,0,0,0-72.079,36.121A143.3,143.3,0,0,0,232.387,5.695c-56-15.313-121.551,2.737-167.213,45.94a9.571,9.571,0,0,0-2.986,6.939v43.969H10.571A9.571,9.571,0,0,0,1,112.114V425.3a62.326,62.326,0,0,0,42.906,59.033c4.575,1.522,9.2,2.871,13.792,4.3L21.769,550.844a9.571,9.571,0,0,0,5.455,13.974l112.8,35.01a9.7,9.7,0,0,0,2.871.431,9.571,9.571,0,0,0,8.288-4.785l44.189-76.568A802.126,802.126,0,0,0,297.7,525.577a802.531,802.531,0,0,0,97.294-5.922l43.791,75.789a9.571,9.571,0,0,0,8.288,4.785,9.409,9.409,0,0,0,2.508-.335l115-31.249a9.571,9.571,0,0,0,5.743-14.021L533,490.021c6.355-1.914,12.729-3.828,19.046-5.944A61.9,61.9,0,0,0,594.4,425.284V112.114A9.571,9.571,0,0,0,584.826,102.543ZM374.438,27.526c68.738-14.883,125.484,24.588,139.64,35.613V425.877A242.8,242.8,0,0,0,368.6,413.109a158.428,158.428,0,0,0-61.4,28.713c0-.144.067-.249.067-.392V62.708a141.037,141.037,0,0,1,67.169-35.183ZM487.011,436.568c-41.155,5.245-110.066,13.313-161.749,15.782a139.439,139.439,0,0,1,47.568-20.568,221.538,221.538,0,0,1,114.181,4.785ZM81.329,62.756A160.543,160.543,0,0,1,227.343,24.128a124.365,124.365,0,0,1,60.785,38.064V438.329A132.424,132.424,0,0,0,241.364,411a244.787,244.787,0,0,0-76.07-13.256,148.061,148.061,0,0,0-83.966,23.927V62.756ZM275.37,452.637c-57.54-2.374-139.611-12.442-179.177-17.591,47.711-29.086,106.189-16.893,139.1-5.867a113.225,113.225,0,0,1,40.073,23.458ZM138.391,579.251,44.337,550.06,76.476,494.4A801.445,801.445,0,0,0,174.9,516.006Zm409.185-25.775L451.695,579.49l-36.274-62.776a800.026,800.026,0,0,0,98.753-21.056Zm27.679-128.193a42.8,42.8,0,0,1-29.21,40.686A781.945,781.945,0,0,1,297.7,506.435a781.665,781.665,0,0,1-247.734-40.2A43.194,43.194,0,0,1,20.142,425.3V121.684H62.187V441.411a9.571,9.571,0,0,0,5.743,8.757,9.455,9.455,0,0,0,2.527.7h0c6.164.871,152.178,21.4,227.271,21.4s221.059-20.5,227.252-21.343h0a9.468,9.468,0,0,0,2.661-.756,9.571,9.571,0,0,0,5.58-8.7V121.684h42.035Z" transform="translate(0 0)" fill="#12847c"/>
    <path id="Path_2" data-name="Path 2" d="M59.162,114.984a9.571,9.571,0,0,0,9.571-9.571V19.7a9.571,9.571,0,1,0-19.142,0v85.717a9.571,9.571,0,0,0,9.571,9.571Z" transform="translate(416.469 84.043)" fill="#12847c"/>
    <path id="Path_3" data-name="Path 3" d="M45.291,159.5a9.571,9.571,0,0,0,9.571-9.571V112.6a10.05,10.05,0,0,1,10.04-10.04h19.19a9.571,9.571,0,1,0,0-19.142H75.477a9.545,9.545,0,0,1,18.615,3v6.106a31.105,31.105,0,1,0,62.211,0V19.7a9.571,9.571,0,0,0-19.142,0V92.521a11.964,11.964,0,0,1-23.927,0V86.453a28.713,28.713,0,0,0-57.359-1.464A29.124,29.124,0,0,0,35.691,112.61v37.327a9.571,9.571,0,0,0,9.6,9.561Z" transform="translate(297.334 84.043)" fill="#12847c"/>
    <path id="Path_4" data-name="Path 4" d="M43.857,49.731h159.9a9.571,9.571,0,0,0,0-19.142H43.857a9.571,9.571,0,1,0,0,19.142Z" transform="translate(285.292 259.438)" fill="#12847c"/>
    <path id="Path_5" data-name="Path 5" d="M203.758,35.973H43.857a9.571,9.571,0,1,0,0,19.142h159.9a9.571,9.571,0,0,0,0-19.142Z" transform="translate(285.292 305.584)" fill="#12847c"/>
    <path id="Path_6" data-name="Path 6" d="M20.392,33.271H180.3a9.571,9.571,0,1,0,0-19.142H20.392a9.571,9.571,0,0,0,0,19.142Z" transform="translate(84.175 118.361)" fill="#12847c"/>
    <path id="Path_7" data-name="Path 7" d="M20.392,38.655H180.3a9.571,9.571,0,1,0,0-19.142H20.392a9.571,9.571,0,0,0,0,19.142Z" transform="translate(84.175 164.507)" fill="#12847c"/>
    <path id="Path_8" data-name="Path 8" d="M20.392,44.042H180.3a9.571,9.571,0,1,0,0-19.142H20.392a9.571,9.571,0,0,0,0,19.142Z" transform="translate(84.175 210.678)" fill="#12847c"/>
    <path id="Path_9" data-name="Path 9" d="M20.392,49.423H180.3a9.571,9.571,0,1,0,0-19.142H20.392a9.571,9.571,0,0,0,0,19.142Z" transform="translate(84.175 256.798)" fill="#12847c"/>
    <path id="Path_10" data-name="Path 10" d="M189.874,45.236a9.571,9.571,0,0,0-9.571-9.571H20.392a9.571,9.571,0,0,0,0,19.142H180.3A9.571,9.571,0,0,0,189.874,45.236Z" transform="translate(84.175 302.944)" fill="#12847c"/>
  </g>
</svg>
