<svg xmlns="http://www.w3.org/2000/svg" width="22" height="24" viewBox="0 0 22 24">
  <g id="_10" data-name="10" transform="translate(-1)">
    <g id="Group_1" data-name="Group 1">
      <path id="Path_1" data-name="Path 1" d="M22.5,10.5A.5.5,0,0,1,22,10a10.925,10.925,0,0,0-3.222-7.778.5.5,0,0,1,.707-.707A11.917,11.917,0,0,1,23,10,.5.5,0,0,1,22.5,10.5Z" fill="#12847c"/>
    </g>
    <g id="Group_2" data-name="Group 2">
      <path id="Path_2" data-name="Path 2" d="M1.5,10.5A.5.5,0,0,1,1,10,11.917,11.917,0,0,1,4.515,1.515a.5.5,0,1,1,.707.707A10.925,10.925,0,0,0,2,10a.5.5,0,0,1-.5.5Z" fill="#12847c"/>
    </g>
    <g id="Group_3" data-name="Group 3">
      <path id="Path_3" data-name="Path 3" d="M13.5,4.18a.5.5,0,0,1-.5-.5V2a1,1,0,0,0-2,0V3.68a.5.5,0,0,1-1,0V2a2,2,0,0,1,4,0V3.68A.5.5,0,0,1,13.5,4.18Z" fill="#12847c"/>
    </g>
    <g id="Group_4" data-name="Group 4">
      <path id="Path_4" data-name="Path 4" d="M12,24a3.5,3.5,0,0,1-3.5-3.5.5.5,0,0,1,1,0,2.5,2.5,0,0,0,5,0,.5.5,0,0,1,1,0A3.5,3.5,0,0,1,12,24Z" fill="#12847c"/>
    </g>
    <g id="Group_5" data-name="Group 5">
      <path id="Path_5" data-name="Path 5" d="M20.5,21H3.5a1.5,1.5,0,0,1-.975-2.64A6.952,6.952,0,0,0,5,13.038V10a7,7,0,0,1,14,0v3.038a6.945,6.945,0,0,0,2.467,5.315A1.5,1.5,0,0,1,20.5,21ZM12,4a6.006,6.006,0,0,0-6,6v3.038a7.944,7.944,0,0,1-2.821,6.079A.5.5,0,0,0,3.5,20h17a.5.5,0,0,0,.325-.88A7.951,7.951,0,0,1,18,13.038V10a6.006,6.006,0,0,0-6-6Z" fill="#12847c"/>
    </g>
  </g>
</svg>
