<svg xmlns="http://www.w3.org/2000/svg" width="512" height="506.85" viewBox="0 0 512 506.85">
  <g id="_12" data-name="12" transform="translate(0 -2.576)">
    <g id="Group_6" data-name="Group 6">
      <circle id="Ellipse_1" data-name="Ellipse 1" cx="10.001" cy="10.001" r="10.001" transform="translate(245.999 358.916)" fill="#12847c"/>
      <path id="Path_7" data-name="Path 7" d="M512,274.186V243.051a11.125,11.125,0,0,0-15.355-10.29l-21.037,8.649V227.067a12.3,12.3,0,0,0-16.8-11.44l-9.062,3.57V199.978a10.469,10.469,0,0,0-14.731-9.549c-6.587,2.906-16.574,3.926-28.892,2.946a207.008,207.008,0,0,0-59.253,3.807c-54.782,11.581-80.165,32.947-90.855,45.556a86.962,86.962,0,0,0-9.22-9.305c-15.205-13.3-36.1-23.855-62.1-31.384a7.5,7.5,0,1,0-4.172,14.41c48.6,14.073,64.709,36.042,67.979,41.321v7.244c-46.923-31.066-104.714-43.129-107.36-43.669a7.5,7.5,0,0,0-3,14.7c.658.134,64.875,13.573,110.361,47.281v9.234l-43.213-17.024L77.258,225.107V206.382c8.093,2.224,18.084,2.881,29.811,1.948a192.826,192.826,0,0,1,41.349,1.163,7.5,7.5,0,0,0,2.033-14.863,207.992,207.992,0,0,0-44.572-1.255c-12.312.981-22.3-.04-28.891-2.946a10.469,10.469,0,0,0-14.731,9.549V219.2l-9.062-3.57a12.3,12.3,0,0,0-16.8,11.44V241.41l-21.037-8.649A11.127,11.127,0,0,0,0,243.051v31.135a11.079,11.079,0,0,0,6.03,9.889L168.381,367.72,6.9,434.112A11.087,11.087,0,0,0,0,444.4v53.9a11.122,11.122,0,0,0,15.33,10.3l40.583-16.564,26.227,7.124a11.1,11.1,0,0,0,8.012-.846L256,412.863,344.961,458.7a7.5,7.5,0,1,0,6.87-13.335l-79.454-40.935,53.732-27.684L497,447v45.528L460.545,477.65a11.186,11.186,0,0,0-7.122-.437l-26.042,7.074-44.351-22.85a7.5,7.5,0,1,0-6.87,13.335l45.689,23.54a11.093,11.093,0,0,0,8.011.846l26.229-7.125L496.67,508.6A11.126,11.126,0,0,0,512,498.3V444.4a11.086,11.086,0,0,0-6.9-10.289L343.62,367.721l162.349-83.644A11.083,11.083,0,0,0,512,274.186Zm-248.5,9.149c45.486-33.708,109.7-47.147,110.361-47.281a7.5,7.5,0,0,0-3-14.7c-2.646.54-60.436,12.6-107.36,43.669v-7.253c1.517-2.466,5.793-8.542,14.72-15.665,11.729-9.358,33.7-22.2,71.75-30.247a191.964,191.964,0,0,1,54.961-3.53c11.727.932,21.717.276,29.811-1.949v18.726L306.715,275.544,263.5,292.568v-9.233ZM51.394,231.042,253.25,310.565a7.5,7.5,0,0,0,5.5,0l201.856-79.523v16.536L256,331.7,51.394,247.578ZM15,271.823V248.837l221.272,90.972L186.6,360.232ZM12.6,447.988l.021-.008ZM497,271.823,84.618,484.286l-26.042-7.074a11.177,11.177,0,0,0-7.12.436L15,492.527V447L497,248.837v22.986Z" fill="#12847c"/>
      <circle id="Ellipse_2" data-name="Ellipse 2" cx="10.001" cy="10.001" r="10.001" transform="translate(283.563 49.156)" fill="#12847c"/>
      <circle id="Ellipse_3" data-name="Ellipse 3" cx="10.001" cy="10.001" r="10.001" transform="translate(312.483 51.264) rotate(-10.894)" fill="#12847c"/>
      <path id="Path_8" data-name="Path 8" d="M378.36,170.316a7.5,7.5,0,0,0,7.5-7.5V76.779a7.5,7.5,0,0,0-15,0v86.037a7.5,7.5,0,0,0,7.5,7.5Z" fill="#12847c"/>
      <path id="Path_9" data-name="Path 9" d="M139.494,76.779v86.037a7.5,7.5,0,1,0,15,0V76.779a7.5,7.5,0,0,0-15,0Z" fill="#12847c"/>
      <path id="Path_10" data-name="Path 10" d="M191.33,175.111c5.607,3.1,12.9,4.55,20.527,4.55,13.481,0,27.977-4.543,35.922-12.555a37.444,37.444,0,0,0,8.782-14.753,57.854,57.854,0,0,0,29.97,8.62c26.944,0,52.782-16.529,52.516-45.532-.121-13.188-5.561-25.332-14.2-31.695-4.927-3.628-13.251-7.219-24.934-3.709-15.741,4.727-21.874,19.894-18.528,31.236a24.447,24.447,0,0,0,13.995,15.683c8.425,3.77,18.268,3.547,26.136,1.43-3.807,8.294-12.665,15.6-31.4,17.413a42.685,42.685,0,0,1-30.143-9.312,7.619,7.619,0,0,0-.983-.649c-.057-8.194-1.636-16.016-3.175-23.609l-2.687-13.256a7.5,7.5,0,1,0-14.7,2.979l2.687,13.256c1.562,7.71,3.177,15.683,2.835,23.233-.345,7.583-2.768,14.011-6.824,18.1-7.684,7.747-28.932,10.746-38.542,5.437a14.471,14.471,0,0,1-7.645-11.219,12.7,12.7,0,0,1,4.947-11.193,7.5,7.5,0,1,0-9.47-11.635A27.646,27.646,0,0,0,176,152.1a29.44,29.44,0,0,0,15.333,23.014Zm130.064-62.568c-5.186,2.458-13.684,3.5-19.885.719a9.621,9.621,0,0,1-5.733-6.234c-1.635-5.542,3.051-11,8.454-12.623a17.144,17.144,0,0,1,4.92-.792,11.137,11.137,0,0,1,6.8,2.211c4.118,3.034,7.032,9.1,7.857,16.037A7.482,7.482,0,0,0,321.394,112.543Z" fill="#12847c"/>
      <path id="Path_11" data-name="Path 11" d="M126.756,55.076a7.495,7.495,0,0,0,9.864,3.906c12.8-5.536,26.61-12.711,27.192-13.014a7.5,7.5,0,0,0-4-14.136c-10.029.713-15.979-1.143-17.673-5.518a6.112,6.112,0,0,1,.842-6.542,6.533,6.533,0,0,1,6.444-2.016,7.5,7.5,0,0,0,3.352-14.623,21.514,21.514,0,0,0-21.14,6.823,21.089,21.089,0,0,0-3.487,21.777A21.484,21.484,0,0,0,136.964,42.4c-2.094.964-4.219,1.917-6.3,2.818a7.5,7.5,0,0,0-3.906,9.862Z" fill="#12847c"/>
    </g>
  </g>
</svg>
