<svg xmlns="http://www.w3.org/2000/svg" width="15.875" height="15.875" viewBox="0 0 15.875 15.875">
  <g id="layer1" transform="translate(-0.529 -280.596)">
    <path id="path13423" d="M3.439,280.6a.8.8,0,0,0-.793.793v8.467a.265.265,0,0,0,.53,0v-6.613H13.757v6.613a.265.265,0,1,0,.529,0v-8.467a.8.8,0,0,0-.793-.793Zm0,.53H13.494a.257.257,0,0,1,.264.264v1.324H3.176v-1.324A.257.257,0,0,1,3.439,281.125Zm.53.529a.265.265,0,1,0,.265.265A.265.265,0,0,0,3.969,281.654Zm1.058,0a.265.265,0,1,0,.265.265A.265.265,0,0,0,5.027,281.654Zm1.058,0a.265.265,0,1,0,.265.265A.265.265,0,0,0,6.085,281.654Zm3.691,0a.265.265,0,0,0,.012.529h3.176a.265.265,0,0,0,0-.529Zm-8.452.529a.8.8,0,0,0-.795.793V292.5a.8.8,0,0,0,.795.793H15.611a.8.8,0,0,0,.793-.793v-9.526a.8.8,0,0,0-.793-.793h-.529a.265.265,0,1,0,0,.529h.529a.257.257,0,0,1,.264.264v7.674H1.058v-7.674a.258.258,0,0,1,.266-.264h.527a.265.265,0,1,0,0-.529Zm7.94,2.112a.265.265,0,0,0-.254.186l-1.588,4.762a.265.265,0,1,0,.5.168l1.588-4.764A.265.265,0,0,0,9.264,284.3Zm1.15,1.53,1.344,1.121-1.344,1.119a.265.265,0,1,0,.34.406l1.586-1.322a.265.265,0,0,0,0-.406l-1.586-1.324a.271.271,0,0,0-.183-.063.265.265,0,0,0-.156.47Zm-4.071-.469a.265.265,0,0,0-.162.063l-1.588,1.324a.265.265,0,0,0,0,.406l1.588,1.322a.265.265,0,1,0,.338-.406l-1.344-1.119,1.344-1.121a.265.265,0,0,0-.176-.469ZM1.058,291.18H15.874V292.5a.257.257,0,0,1-.264.264H1.324a.258.258,0,0,1-.266-.264Zm7.952.529H7.925a.264.264,0,0,0,.012.527H9a.264.264,0,1,0,.014-.528ZM6.983,293.8a.265.265,0,0,0-.247.156,2.742,2.742,0,0,1-.75.923H5.556a.8.8,0,0,0-.793.8v.527a.265.265,0,0,0,.264.266h6.879a.265.265,0,0,0,.266-.266v-.527a.8.8,0,0,0-.795-.8h-.429a2.742,2.742,0,0,1-.75-.923.265.265,0,1,0-.48.224,2.99,2.99,0,0,0,.473.7H6.742a2.991,2.991,0,0,0,.473-.7A.265.265,0,0,0,6.983,293.8Zm-1.426,1.609h5.82a.26.26,0,0,1,.266.266v.264H5.293v-.264a.258.258,0,0,1,.264-.266Z" fill="#12847c"/>
  </g>
</svg>
