<svg xmlns="http://www.w3.org/2000/svg" width="305" height="512" viewBox="0 0 305 512">
  <g id="_2" data-name="2" transform="translate(-103.5)">
    <path id="Path_12" data-name="Path 12" d="M356.54,72.919a20.5,20.5,0,1,1,20.5-20.5A20.523,20.523,0,0,1,356.54,72.919Zm0-26a5.5,5.5,0,1,0,5.5,5.5A5.506,5.506,0,0,0,356.54,46.919Z" fill="#12847c"/>
    <g id="Group_7" data-name="Group 7">
      <path id="Path_13" data-name="Path 13" d="M365.213,0H146.787A43.335,43.335,0,0,0,103.5,43.287V80.624a7.5,7.5,0,0,0,15,0V43.287A28.318,28.318,0,0,1,146.787,15H365.214A28.319,28.319,0,0,1,393.5,43.287V428.5h-275V115.624a7.5,7.5,0,0,0-15,0V468.713A43.336,43.336,0,0,0,146.788,512H319.552a7.5,7.5,0,0,0,0-15H146.787A28.319,28.319,0,0,1,118.5,468.713V443.5h275v25.213A28.319,28.319,0,0,1,365.213,497H354.55a7.5,7.5,0,0,0,0,15h10.663A43.336,43.336,0,0,0,408.5,468.713V43.287A43.335,43.335,0,0,0,365.213,0Z" fill="#12847c"/>
      <path id="Path_14" data-name="Path 14" d="M233.5,463.055a7.5,7.5,0,0,0,0,15h45a7.5,7.5,0,0,0,0-15Z" fill="#12847c"/>
      <path id="Path_15" data-name="Path 15" d="M232.5,181.666h47a12.514,12.514,0,0,0,12.5-12.5v-47a12.514,12.514,0,0,0-12.5-12.5h-47a12.514,12.514,0,0,0-12.5,12.5v47A12.514,12.514,0,0,0,232.5,181.666Zm2.5-57h42v42H235Z" fill="#12847c"/>
      <path id="Path_16" data-name="Path 16" d="M147.46,181.666h47a12.514,12.514,0,0,0,12.5-12.5v-47a12.514,12.514,0,0,0-12.5-12.5h-47a12.514,12.514,0,0,0-12.5,12.5v47A12.515,12.515,0,0,0,147.46,181.666Zm2.5-57h42v42h-42Z" fill="#12847c"/>
      <path id="Path_17" data-name="Path 17" d="M317.54,181.666h47a12.514,12.514,0,0,0,12.5-12.5v-47a12.514,12.514,0,0,0-12.5-12.5h-47a12.514,12.514,0,0,0-12.5,12.5v47A12.514,12.514,0,0,0,317.54,181.666Zm2.5-57h42v42h-42Z" fill="#12847c"/>
      <path id="Path_18" data-name="Path 18" d="M220,262.708a12.514,12.514,0,0,0,12.5,12.5h47a12.514,12.514,0,0,0,12.5-12.5v-47a12.514,12.514,0,0,0-12.5-12.5h-47a12.514,12.514,0,0,0-12.5,12.5Zm15-44.5h42v42H235Z" fill="#12847c"/>
      <path id="Path_19" data-name="Path 19" d="M134.96,262.708a12.514,12.514,0,0,0,12.5,12.5h47a12.514,12.514,0,0,0,12.5-12.5v-47a12.514,12.514,0,0,0-12.5-12.5h-47a12.514,12.514,0,0,0-12.5,12.5Zm15-44.5h42v42h-42Z" fill="#12847c"/>
      <path id="Path_20" data-name="Path 20" d="M305.04,262.708a12.514,12.514,0,0,0,12.5,12.5h47a12.514,12.514,0,0,0,12.5-12.5v-47a12.514,12.514,0,0,0-12.5-12.5h-47a12.514,12.514,0,0,0-12.5,12.5Zm15-44.5h42v42h-42Z" fill="#12847c"/>
    </g>
  </g>
</svg>
