<svg xmlns="http://www.w3.org/2000/svg" width="118.867" height="118.881" viewBox="0 0 118.867 118.881">
  <g id="_3" data-name="3" transform="translate(-4.571 -4.558)">
    <path id="Path_21" data-name="Path 21" d="M67.9,23.608a31.111,31.111,0,1,0,9.259,22.145A31.318,31.318,0,0,0,67.9,23.608ZM65.424,65.424a27.636,27.636,0,1,1,8.224-19.67,27.818,27.818,0,0,1-8.224,19.67Z" fill="#12847c"/>
    <path id="Path_22" data-name="Path 22" d="M65.372,35.621A22.118,22.118,0,0,0,49.585,24.012a1.75,1.75,0,0,0-.6,3.447,18.617,18.617,0,0,1,13.282,9.769,1.75,1.75,0,1,0,3.109-1.607Z" fill="#12847c"/>
    <path id="Path_23" data-name="Path 23" d="M41.9,24.015a22.126,22.126,0,0,0-5.118,1.562,1.751,1.751,0,0,0,1.422,3.2,18.581,18.581,0,0,1,4.3-1.313,1.75,1.75,0,1,0-.608-3.447Z" fill="#12847c"/>
    <path id="Path_24" data-name="Path 24" d="M119.837,102.425,100.9,83.493l-3.078-3.078a12.306,12.306,0,0,0-11.753-3.207l-7.092-7.092a41.188,41.188,0,1,0-8.868,8.864L77.2,86.068a12.361,12.361,0,0,0-.394,3.052,12.234,12.234,0,0,0,3.606,8.706l3.077,3.076,18.931,18.931a12.312,12.312,0,0,0,17.412-17.412ZM19.1,72.409a37.7,37.7,0,1,1,53.314,0,37.693,37.693,0,0,1-53.314,0Zm53.754,4.36c.692-.605,1.373-1.226,2.032-1.885s1.279-1.339,1.886-2.031L82.6,78.686a12.258,12.258,0,0,0-2.189,1.728,12.445,12.445,0,0,0-1.73,2.187ZM80.308,89.12a8.816,8.816,0,0,1,15.044-6.231l1.84,1.84L84.73,97.192l-1.841-1.841a8.755,8.755,0,0,1-2.581-6.231Zm37.054,28.243a8.825,8.825,0,0,1-12.463,0l-17.7-17.7L99.667,87.2l17.695,17.7a8.823,8.823,0,0,1,0,12.463Z" fill="#12847c"/>
  </g>
</svg>
