<svg xmlns="http://www.w3.org/2000/svg" width="1529.914" height="1156.6" viewBox="0 0 1529.914 1156.6">
  <g id="_4" data-name="4" transform="translate(-10 -196.7)">
    <g id="Group_13" data-name="Group 13">
      <g id="Group_8" data-name="Group 8">
        <path id="Path_25" data-name="Path 25" d="M313,1353.3H31a21,21,0,0,1-21-21V313a21,21,0,0,1,21-21H313a21,21,0,0,1,21,21V1332.3A21,21,0,0,1,313,1353.3Zm-261-42H292V334H52Z" fill="#12847c"/>
      </g>
      <g id="Group_11" data-name="Group 11">
        <g id="Group_9" data-name="Group 9">
          <path id="Path_26" data-name="Path 26" d="M313,527.5H31a21,21,0,0,1,0-42H313a21,21,0,0,1,0,42Z" fill="#12847c"/>
        </g>
        <g id="Group_10" data-name="Group 10">
          <path id="Path_27" data-name="Path 27" d="M313,656.9H31a21,21,0,0,1,0-42H313a21,21,0,0,1,0,42Z" fill="#12847c"/>
        </g>
      </g>
      <g id="Group_12" data-name="Group 12">
        <path id="Path_28" data-name="Path 28" d="M226.1,1064.1H117.9a21,21,0,1,1,0-42H226.1a21,21,0,1,1,0,42Z" fill="#12847c"/>
      </g>
    </g>
    <g id="Group_19" data-name="Group 19">
      <g id="Group_14" data-name="Group 14">
        <path id="Path_29" data-name="Path 29" d="M1257.4,1353.3a21.062,21.062,0,0,1-19.5-13.2L857.5,394.4a21.006,21.006,0,0,1,11.6-27.3l261.6-105.2a20.985,20.985,0,0,1,27.3,11.7l380.4,945.7a20.985,20.985,0,0,1-11.7,27.3l-261.6,105.2a20.306,20.306,0,0,1-7.7,1.5Zm-353.1-955L1269,1305l222.6-89.6L1126.9,308.7Z" fill="#12847c"/>
      </g>
      <g id="Group_17" data-name="Group 17">
        <g id="Group_15" data-name="Group 15">
          <path id="Path_30" data-name="Path 30" d="M949.2,587.1a21.023,21.023,0,0,1-7.9-40.5L1203,441.4a20.974,20.974,0,0,1,15.7,38.9L957,585.6a21.593,21.593,0,0,1-7.8,1.5Z" fill="#12847c"/>
        </g>
        <g id="Group_16" data-name="Group 16">
          <path id="Path_31" data-name="Path 31" d="M997.5,707.2a21.023,21.023,0,0,1-7.9-40.5l261.6-105.2a20.974,20.974,0,1,1,15.7,38.9L1005.3,705.6a19.806,19.806,0,0,1-7.8,1.6Z" fill="#12847c"/>
        </g>
      </g>
      <g id="Group_18" data-name="Group 18">
        <path id="Path_32" data-name="Path 32" d="M1242.3,1047.6a21.023,21.023,0,0,1-7.9-40.5l75.8-30.5a20.974,20.974,0,1,1,15.7,38.9l-75.8,30.5A19.457,19.457,0,0,1,1242.3,1047.6Z" fill="#12847c"/>
      </g>
    </g>
    <g id="Group_20" data-name="Group 20">
      <path id="Path_33" data-name="Path 33" d="M595,460H313a21,21,0,0,1,0-42H595a21,21,0,0,1,0,42Z" fill="#12847c"/>
    </g>
    <g id="Group_24" data-name="Group 24">
      <g id="Group_21" data-name="Group 21">
        <path id="Path_34" data-name="Path 34" d="M508.1,1054.5H399.9a21,21,0,0,1,0-42H508.1a21,21,0,0,1,0,42Z" fill="#12847c"/>
      </g>
      <g id="Group_23" data-name="Group 23">
        <g id="Group_22" data-name="Group 22">
          <path id="Path_35" data-name="Path 35" d="M508.1,1177.9H399.9a21,21,0,0,1,0-42H508.1a21,21,0,0,1,0,42Z" fill="#12847c"/>
        </g>
      </g>
    </g>
    <g id="Group_27" data-name="Group 27">
      <g id="Group_26" data-name="Group 26">
        <g id="Group_25" data-name="Group 25">
          <path id="Path_36" data-name="Path 36" d="M508.1,879H399.9a21,21,0,0,1-21-21V571.1a21,21,0,0,1,21-21H508.1a21,21,0,0,1,21,21V858a21,21,0,0,1-21,21Zm-87.2-42h66.2V592.1H420.9Z" fill="#12847c"/>
        </g>
      </g>
    </g>
    <g id="Group_28" data-name="Group 28">
      <path id="Path_37" data-name="Path 37" d="M877,1353.3H595a21,21,0,0,1-21-21V217.7a21,21,0,0,1,21-21H877a21,21,0,0,1,21,21V1332.4A20.976,20.976,0,0,1,877,1353.3Zm-261-42H856V238.7H616Z" fill="#12847c"/>
    </g>
    <g id="Group_31" data-name="Group 31">
      <g id="Group_29" data-name="Group 29">
        <path id="Path_38" data-name="Path 38" d="M877,425.9H595a21,21,0,0,1,0-42H877a21,21,0,0,1,0,42Z" fill="#12847c"/>
      </g>
      <g id="Group_30" data-name="Group 30">
        <path id="Path_39" data-name="Path 39" d="M877,555.3H595a21,21,0,0,1,0-42H877a21,21,0,0,1,0,42Z" fill="#12847c"/>
      </g>
    </g>
    <g id="Group_32" data-name="Group 32">
      <path id="Path_40" data-name="Path 40" d="M595,1353.3H313a21,21,0,0,1,0-42H595a21,21,0,0,1,0,42Z" fill="#12847c"/>
    </g>
    <g id="Group_37" data-name="Group 37">
      <g id="Group_35" data-name="Group 35">
        <g id="Group_33" data-name="Group 33">
          <path id="Path_41" data-name="Path 41" d="M790.1,1034.3H681.9a21,21,0,0,1,0-42H790.1a21,21,0,0,1,0,42Z" fill="#12847c"/>
        </g>
        <g id="Group_34" data-name="Group 34">
          <path id="Path_42" data-name="Path 42" d="M790.1,1157.7H681.9a21,21,0,0,1,0-42H790.1a21,21,0,0,1,0,42Z" fill="#12847c"/>
        </g>
      </g>
      <g id="Group_36" data-name="Group 36">
        <path id="Path_43" data-name="Path 43" d="M736,862a76.5,76.5,0,1,1,76.5-76.5A76.564,76.564,0,0,1,736,862Zm0-111a34.5,34.5,0,1,0,34.5,34.5A34.569,34.569,0,0,0,736,751Z" fill="#12847c"/>
      </g>
    </g>
  </g>
</svg>
