<svg xmlns="http://www.w3.org/2000/svg" width="511.976" height="472.055" viewBox="0 0 511.976 472.055">
  <g id="_5" data-name="5" transform="translate(0 -19.961)">
    <path id="Path_44" data-name="Path 44" d="M273.11,490.246a22.152,22.152,0,0,1-24.521-4.878h0L129.813,366.591h-82.1A37.3,37.3,0,0,1,12.026,340.6a257.4,257.4,0,0,1-10.611-53.9,7.5,7.5,0,0,1,14.934-1.41,242.455,242.455,0,0,0,9.966,50.75,22.356,22.356,0,0,0,21.4,15.558h77.7V160.385h-77.7a22.355,22.355,0,0,0-21.4,15.558C21.153,192.108,15,219.116,15,255.988a7.5,7.5,0,0,1-15,0c0-38.8,6.54-67.428,12.026-84.608a37.307,37.307,0,0,1,35.692-25.995h82.1L248.59,26.608A22.5,22.5,0,0,1,287,42.519v183.47a7.5,7.5,0,0,1-15,0V42.519a7.5,7.5,0,0,0-12.8-5.3L140.42,155.992V355.985L259.2,474.762a7.5,7.5,0,0,0,12.8-5.3V255.988a7.5,7.5,0,1,1,15,0v213.47A22.153,22.153,0,0,1,273.11,490.246Zm194.36-75.708a7.5,7.5,0,1,1-12.794-7.83c69.917-114.241,52.506-260.271-42.34-355.116a7.5,7.5,0,0,1,10.607-10.606A304.338,304.338,0,0,1,467.47,414.538ZM321.679,369.727a7.5,7.5,0,0,1-10.606-10.606,145.85,145.85,0,0,0,0-206.266,7.5,7.5,0,0,1,10.607-10.606,160.851,160.851,0,0,1,0,227.478Zm0,0a7.5,7.5,0,0,1-10.606,0m61.239,50.632a7.5,7.5,0,0,1-10.606,0h0a7.5,7.5,0,0,1,0-10.606,217.458,217.458,0,0,0,0-307.53,7.5,7.5,0,1,1,10.607-10.606,232.457,232.457,0,0,1,0,328.742Zm50.631,50.632a7.5,7.5,0,0,1-10.606,0h0a7.5,7.5,0,0,1,0-10.606,293.089,293.089,0,0,0,24.577-27.915,7.5,7.5,0,0,1,11.87,9.173A308.555,308.555,0,0,1,422.943,470.991Z" fill="#12847c"/>
  </g>
</svg>
