<?xml version="1.0" encoding="UTF-8"?>
<svg width="512px" height="512px" viewBox="0 0 512 512" version="1.1" xmlns="http://www.w3.org/2000/svg" xmlns:xlink="http://www.w3.org/1999/xlink">
    <title>memory</title>
    <g id="Page-1" stroke="none" stroke-width="1" fill="none" fill-rule="evenodd">
        <g id="memory" transform="translate(0.000000, -0.000000)" fill="#12847C" fill-rule="nonzero">
            <path d="M220.032,147.148 C223.7,145.223 225.113,140.689 223.188,137.021 C220.731,132.339 220.374,126.781 222.181,121.371 C223.493,117.442 221.372,113.193 217.443,111.882 C213.515,110.566 209.265,112.69 207.953,116.619 C204.84,125.938 205.534,135.66 209.906,143.992 C211.853,147.702 216.426,149.041 220.032,147.148 L220.032,147.148 Z M214.663,176.303 C210.724,177.584 208.569,181.816 209.851,185.755 C211.487,190.782 210.906,196.321 208.215,201.352 C206.261,205.004 207.638,209.548 211.291,211.502 C214.877,213.42 219.467,212.118 221.442,208.426 C226.077,199.762 227.026,190.063 224.116,181.114 C222.834,177.176 218.603,175.022 214.663,176.303 Z M302.149,185.755 C303.43,181.816 301.275,177.584 297.337,176.303 C293.4,175.022 289.166,177.176 287.885,181.115 C284.974,190.063 285.924,199.762 290.559,208.427 C292.535,212.121 297.117,213.426 300.71,211.503 C304.362,209.549 305.739,205.005 303.786,201.353 C301.095,196.321 300.514,190.782 302.149,185.755 Z M182.188,364.003 C186.33,364.003 189.688,360.646 189.688,356.503 C189.688,352.36 186.33,349.003 182.188,349.003 L51.312,349.003 C47.17,349.003 43.812,352.36 43.812,356.503 C43.812,360.646 47.17,364.003 51.312,364.003 L182.188,364.003 Z M487.28,127.01 L408.426,127.01 C395.23,54.86 331.904,0 256,0 C180.096,0 116.77,54.86 103.574,127.01 L24.72,127.01 C11.089,127.01 0,138.117 0,151.77 L0,203.51 C0,207.653 3.358,211.01 7.5,211.01 C11.642,211.01 15,207.653 15,203.51 L15,151.77 C15,146.388 19.36,142.01 24.72,142.01 L101.588,142.01 C101.233,146.281 101.042,150.597 101.042,154.957 C101.042,170.986 103.489,186.455 108.028,201.01 L51.31,201.01 C47.168,201.01 43.81,204.367 43.81,208.51 C43.81,212.653 47.168,216.01 51.31,216.01 L113.587,216.01 C123.524,239.1 138.915,259.308 158.133,275.004 L51.312,275.004 C47.17,275.004 43.812,278.361 43.812,282.504 C43.812,286.647 47.17,290.004 51.312,290.004 L180.09,290.004 C200.49,301.516 223.741,308.544 248.5,309.73 L248.5,457.424 C233.753,436.616 209.535,423.001 182.188,423.001 L15,423.001 L15,238.51 C15,234.367 11.642,231.01 7.5,231.01 C3.358,231.01 0,234.367 0,238.51 L0,487.234 C0,500.89 11.09,512 24.723,512 L487.278,512 C500.91,512 512,500.89 512,487.233 L512,151.77 C512,138.117 500.911,127.01 487.28,127.01 Z M24.723,497 C19.362,497 15,492.619 15,487.233 L15,438.001 L182.188,438.001 C216.224,438.001 244.354,463.851 248.081,497 L24.723,497 Z M256,294.91 C255.979,294.91 255.959,294.913 255.938,294.913 C179.847,294.913 116.043,233.04 116.043,154.957 C116.043,77.784 178.828,15 256,15 C333.172,15 395.957,77.784 395.957,154.957 C395.957,232.843 332.096,294.913 256.062,294.913 C256.041,294.913 256.021,294.91 256,294.91 L256,294.91 Z M497,423.001 L450.793,423.001 C446.651,423.001 443.293,426.358 443.293,430.501 C443.293,434.644 446.651,438.001 450.793,438.001 L497,438.001 L497,487.233 C497,492.619 492.639,497 487.277,497 L263.919,497 C267.647,463.851 295.776,438.001 329.812,438.001 L415.793,438.001 C419.935,438.001 423.293,434.644 423.293,430.501 C423.293,426.358 419.935,423.001 415.793,423.001 L329.812,423.001 C302.465,423.001 278.247,436.616 263.5,457.424 L263.5,309.729 C288.259,308.543 311.509,301.516 331.91,290.003 L460.688,290.003 C464.83,290.003 468.188,286.646 468.188,282.503 C468.188,278.36 464.83,275.003 460.688,275.003 L353.867,275.003 C373.085,259.307 388.476,239.099 398.413,216.009 L460.69,216.009 C464.832,216.009 468.19,212.652 468.19,208.509 C468.19,204.366 464.832,201.009 460.69,201.009 L403.971,201.009 C408.51,186.454 410.957,170.986 410.957,154.956 C410.957,150.596 410.766,146.279 410.411,142.009 L487.279,142.009 C492.639,142.009 497,146.387 497,151.769 L497,423.001 L497,423.001 Z M460.688,349.003 L329.812,349.003 C325.67,349.003 322.312,352.36 322.312,356.503 C322.312,360.646 325.67,364.003 329.812,364.003 L460.688,364.003 C464.83,364.003 468.188,360.646 468.188,356.503 C468.188,352.36 464.83,349.003 460.688,349.003 L460.688,349.003 Z M294.557,111.882 C290.628,113.194 288.507,117.443 289.819,121.371 C291.626,126.781 291.269,132.34 288.812,137.021 C286.887,140.689 288.3,145.223 291.968,147.148 C295.568,149.037 300.148,147.7 302.094,143.992 C306.466,135.66 307.159,125.938 304.047,116.619 C302.734,112.69 298.484,110.568 294.557,111.882 L294.557,111.882 Z M335.83,220.189 C359.227,211.402 374.818,190.398 374.818,167.38 C374.818,159.576 373.1,152.016 369.707,144.871 C373.057,139.065 374.818,132.571 374.818,125.967 C374.818,104.686 357.149,87.319 334.193,85.569 C327.338,70.481 311.119,60.49 293.107,60.49 C277.65,60.49 264.008,67.691 256.001,78.601 C247.994,67.691 234.352,60.49 218.895,60.49 C200.883,60.49 184.664,70.481 177.809,85.569 C154.853,87.321 137.184,104.688 137.184,125.967 C137.184,132.571 138.946,139.067 142.295,144.871 C138.902,152.014 137.184,159.575 137.184,167.38 C137.184,190.399 152.775,211.403 176.172,220.19 C181.687,237.495 198.972,249.423 218.896,249.423 C234.353,249.423 247.995,242.222 256.002,231.312 C264.009,242.222 277.651,249.423 293.108,249.423 C313.03,249.423 330.315,237.495 335.83,220.189 L335.83,220.189 Z M248.5,208.794 C248.5,222.927 235.219,234.424 218.894,234.424 C205.077,234.424 193.253,226.245 190.141,214.534 C190.098,214.37 190.032,214.217 189.982,214.056 C190.046,207.769 193.297,201.844 198.932,197.774 C202.29,195.349 203.047,190.661 200.622,187.303 C198.198,183.946 193.509,183.189 190.151,185.614 C183.522,190.401 178.836,196.828 176.555,204.027 C161.557,196.603 152.183,182.793 152.183,167.381 C152.183,154.995 157.237,143.48 169.921,139.134 C173.839,137.791 175.928,133.527 174.586,129.609 C173.244,125.69 168.982,123.604 165.061,124.943 C160.591,126.474 156.48,128.731 152.913,131.554 C152.44,129.726 152.184,127.854 152.184,125.969 C152.184,113.555 162.799,102.929 176.552,100.814 C177.871,106.159 180.488,111.211 184.244,115.519 C186.975,118.652 191.716,118.956 194.826,116.244 C197.948,113.521 198.272,108.784 195.551,105.662 C192.522,102.188 190.839,98.101 190.612,93.792 C195.447,82.981 205.106,75.492 218.897,75.492 C235.222,75.492 248.503,86.989 248.503,101.122 L248.503,208.794 L248.5,208.794 Z M293.106,234.424 C276.781,234.424 263.5,222.927 263.5,208.794 L263.5,101.12 C263.5,86.987 276.781,75.49 293.106,75.49 C306.79,75.49 316.518,82.876 321.391,93.79 C321.164,98.099 319.481,102.186 316.452,105.66 C313.73,108.782 314.055,113.519 317.177,116.242 C320.287,118.954 325.028,118.65 327.759,115.517 C331.515,111.209 334.131,106.157 335.451,100.812 C349.203,102.927 359.819,113.553 359.819,125.967 C359.819,127.852 359.563,129.724 359.09,131.552 C355.522,128.729 351.412,126.472 346.942,124.941 C343.024,123.599 338.758,125.688 337.417,129.607 C336.075,133.525 338.164,137.79 342.082,139.132 C354.284,143.313 359.82,155.351 359.82,167.379 C359.82,182.79 350.447,196.6 335.448,204.025 C333.166,196.826 328.481,190.399 321.852,185.612 C318.494,183.185 313.805,183.943 311.381,187.301 C308.956,190.658 309.713,195.347 313.071,197.772 C318.706,201.841 321.956,207.767 322.021,214.054 C318.474,225.864 307.557,234.424 293.106,234.424 Z" id="Shape"></path>
        </g>
    </g>
</svg>