<svg xmlns="http://www.w3.org/2000/svg" width="361.507" height="485.032" viewBox="0 0 361.507 485.032">
  <g id="_7" data-name="7" transform="translate(-61.763)">
    <path id="Path_47" data-name="Path 47" d="M419.02,0H99.067c-17.644,0-37.3,13.2-37.3,32.149V451.963h0a33.1,33.1,0,0,0,33,33.069H419.02a4.25,4.25,0,0,0,0-8.5c-13.359,0-23.824-10.764-23.824-24.506,0-13.668,10.46-24.386,23.717-24.5h0a4.342,4.342,0,0,0,4.356-4.25V4.25A4.249,4.249,0,0,0,419.02,0Zm-4.25,35.022h-92.4a4.25,4.25,0,0,0,0,8.5h92.4V68.945H373.514a4.25,4.25,0,0,0,0,8.5H414.77v274.37H374.558a4.25,4.25,0,0,0,0,8.5H414.77v58.711l-311.453-.005V391.629h80.225a4.25,4.25,0,0,0,0-8.5H103.317V326.913H139.7a4.25,4.25,0,0,0,0-8.5H103.317V34.649h21.772a4.25,4.25,0,0,0,0-8.5H103.317V8.5H414.77ZM70.263,32.149c0-12.136,12.225-21.516,24.553-23.327v410.2h-.048a32.928,32.928,0,0,0-24.5,10.922V32.149ZM386.7,452.027a33.168,33.168,0,0,0,10.457,24.506H94.769a24.546,24.546,0,0,1-24.023-19.666H304.623a4.25,4.25,0,0,0,0-8.5H70.538a24.317,24.317,0,0,1,2-6.636h54.115a4.25,4.25,0,1,0,0-8.5H79.067a24.388,24.388,0,0,1,15.7-5.71h4.245c.018,0,.035.005.053.005s.035-.005.053-.005l298.029.005A33.169,33.169,0,0,0,386.7,452.027Z" fill="#12847c"/>
    <path id="Path_48" data-name="Path 48" d="M260.826,294.276a84.9,84.9,0,1,0-84.9-84.9A85,85,0,0,0,260.826,294.276Zm0-161.3a76.4,76.4,0,1,1-76.4,76.4A76.485,76.485,0,0,1,260.826,132.977Z" fill="#12847c"/>
    <path id="Path_49" data-name="Path 49" d="M226.329,243.874a32.053,32.053,0,0,1,9.019,17.576,4.25,4.25,0,0,0,6.673,2.764,32.243,32.243,0,0,1,37.611,0,4.249,4.249,0,0,0,6.672-2.765A32.241,32.241,0,0,1,312.9,234.856a4.25,4.25,0,0,0,2.764-6.674,32.246,32.246,0,0,1,0-37.611A4.249,4.249,0,0,0,312.9,183.9,32.241,32.241,0,0,1,286.3,157.3a4.249,4.249,0,0,0-6.673-2.764,32.242,32.242,0,0,1-37.61,0,4.249,4.249,0,0,0-6.673,2.764,32.249,32.249,0,0,1-26.6,26.6,4.249,4.249,0,0,0-2.764,6.673,32.248,32.248,0,0,1,0,37.611,4.25,4.25,0,0,0,2.764,6.674A32.029,32.029,0,0,1,226.329,243.874Zm-10.237-53.028A40.811,40.811,0,0,0,242.3,164.641a40.8,40.8,0,0,0,37.06,0,40.81,40.81,0,0,0,26.2,26.206,40.807,40.807,0,0,0,0,37.059,40.815,40.815,0,0,0-26.206,26.205,40.8,40.8,0,0,0-37.06,0,40.81,40.81,0,0,0-26.2-26.206,40.811,40.811,0,0,0,0-37.059Z" fill="#12847c"/>
    <path id="Path_50" data-name="Path 50" d="M168.983,247.419c-5.972,18.174,4.242,45.386,4.715,46.628a4.248,4.248,0,0,0,2.457,2.457c.708.27,17.523,6.61,33.425,6.61a42.114,42.114,0,0,0,13.206-1.89c8.632,17.07,35.089,29.088,36.3,29.631a4.246,4.246,0,0,0,3.476,0c1.213-.543,27.671-12.56,36.3-29.631a42.143,42.143,0,0,0,13.206,1.89h0c15.9,0,32.716-6.34,33.424-6.61a4.254,4.254,0,0,0,2.457-2.457c.474-1.242,10.687-28.454,4.714-46.629,17.074-8.628,29.094-35.091,29.637-36.3a4.246,4.246,0,0,0,0-3.476c-.543-1.213-12.563-27.675-29.636-36.305,5.971-18.174-4.242-45.385-4.715-46.627a4.254,4.254,0,0,0-2.458-2.458c-.708-.27-17.522-6.61-33.424-6.61a42.147,42.147,0,0,0-13.207,1.889c-8.632-17.07-35.09-29.088-36.3-29.632a4.251,4.251,0,0,0-3.475,0c-1.213.543-27.67,12.562-36.3,29.632a42.114,42.114,0,0,0-13.206-1.89c-15.9,0-32.717,6.34-33.424,6.61A4.248,4.248,0,0,0,173.7,124.7c-.474,1.243-10.687,28.454-4.715,46.628-17.074,8.629-29.093,35.092-29.637,36.3a4.246,4.246,0,0,0,0,3.476C139.89,212.327,151.909,238.79,168.983,247.419Zm6.8-69.7a4.25,4.25,0,0,0,2.52-6.085c-5.995-11.139-.6-32.631,2.673-42.077,4.578-1.555,17.11-5.417,28.6-5.417,5.606,0,10.148.915,13.5,2.72a4.25,4.25,0,0,0,6.085-2.521c3.638-12.123,22.678-23.509,31.661-27.871,8.982,4.353,28.011,15.721,31.658,27.872a4.249,4.249,0,0,0,6.085,2.52c3.354-1.805,7.9-2.72,13.5-2.72,11.488,0,24.022,3.863,28.6,5.417,3.269,9.449,8.668,30.939,2.673,42.077a4.25,4.25,0,0,0,2.52,6.085c12.123,3.64,23.509,22.678,27.871,31.662-4.353,8.982-15.721,28.01-27.872,31.657a4.25,4.25,0,0,0-2.521,6.085c6,11.138.6,32.631-2.672,42.077-4.578,1.555-17.111,5.417-28.6,5.417-5.606,0-10.148-.915-13.5-2.72a4.249,4.249,0,0,0-6.085,2.52c-3.64,12.123-22.677,23.509-31.662,27.871-8.982-4.353-28.01-15.72-31.658-27.871a4.249,4.249,0,0,0-6.084-2.52c-3.353,1.8-7.9,2.72-13.5,2.72-11.488,0-24.023-3.863-28.6-5.417-3.269-9.448-8.668-30.939-2.673-42.077a4.25,4.25,0,0,0-2.521-6.085c-12.123-3.639-23.508-22.675-27.87-31.66C152.281,200.39,163.666,181.355,175.788,177.716Z" fill="#12847c"/>
    <path id="Path_51" data-name="Path 51" d="M322.367,456.867h46.971a4.25,4.25,0,0,0,0-8.5H322.367a4.25,4.25,0,0,0,0,8.5Z" fill="#12847c"/>
    <path id="Path_52" data-name="Path 52" d="M312.973,383.129h-82.46a4.25,4.25,0,0,0,0,8.5h82.46a4.25,4.25,0,0,0,0-8.5Z" fill="#12847c"/>
    <path id="Path_53" data-name="Path 53" d="M238.864,43.522h56.365a4.25,4.25,0,0,0,0-8.5H238.864a4.25,4.25,0,0,0,0,8.5Z" fill="#12847c"/>
    <path id="Path_54" data-name="Path 54" d="M240.994,202.7h39.665a4.25,4.25,0,0,0,0-8.5H240.994a4.25,4.25,0,1,0,0,8.5Z" fill="#12847c"/>
    <path id="Path_55" data-name="Path 55" d="M273.874,219.253h-26.1a4.25,4.25,0,0,0,0,8.5h26.1a4.25,4.25,0,0,0,0-8.5Z" fill="#12847c"/>
  </g>
</svg>
