<?xml version="1.0" encoding="UTF-8"?>
<svg width="540px" height="160px" viewBox="0 0 540 160" version="1.1" xmlns="http://www.w3.org/2000/svg" xmlns:xlink="http://www.w3.org/1999/xlink">
    <title>app-store</title>
    <defs>
        <linearGradient x1="49.9984472%" y1="100.265508%" x2="49.9984472%" y2="-260.382794%" id="linearGradient-1">
            <stop stop-color="#1A1A1A" stop-opacity="0.1" offset="0%"></stop>
            <stop stop-color="#212121" stop-opacity="0.151" offset="12.3%"></stop>
            <stop stop-color="#353535" stop-opacity="0.227" offset="30.8%"></stop>
            <stop stop-color="#575757" stop-opacity="0.318" offset="53.2%"></stop>
            <stop stop-color="#858585" stop-opacity="0.421" offset="78.3%"></stop>
            <stop stop-color="#B3B3B3" stop-opacity="0.51" offset="100%"></stop>
        </linearGradient>
    </defs>
    <g id="Page-1" stroke="none" stroke-width="1" fill="none" fill-rule="evenodd">
        <g id="app-store" fill-rule="nonzero">
            <path d="M536.417509,141.110795 C536.417509,145.177803 534.800376,149.078004 531.922304,151.952312 C529.044231,154.82662 525.141311,156.439255 521.073228,156.435016 L18.9262146,156.435016 C10.4511508,156.443852 3.57296742,149.583611 3.5619224,141.110795 L3.5619224,18.9051975 C3.57296157,10.4291464 10.4479111,3.56317912 18.9262146,3.560979 L521.069226,3.560979 C525.139475,3.560979 529.04296,5.17772492 531.920686,8.05543916 C534.798412,10.9331534 536.417509,14.8360257 536.417509,18.9051975 L536.417509,141.110795 Z" id="Path" fill="#FFFFFF"></path>
            <path d="M521.073228,159.999988 L18.9262146,159.999988 C8.48695728,159.9978 0.0198630515,151.547269 0,141.110795 L0,18.9091986 C0.0154431981,8.46765272 8.48189482,0.00881305837 18.9262146,0 L521.069226,0 C531.511722,0.0132099711 539.9756,8.46947867 539.995446,18.9091986 L539.995446,141.110795 C540.003444,151.529659 531.498854,159.999988 521.073228,159.999988 L521.073228,159.999988 Z" id="Path" fill="#A6A6A6"></path>
            <path d="M536.417509,141.110795 C536.417509,145.177803 534.800376,149.078004 531.922304,151.952312 C529.044231,154.82662 525.141311,156.439255 521.073228,156.435016 L18.9262146,156.435016 C10.4511508,156.443852 3.57296742,149.583611 3.5619224,141.110795 L3.5619224,18.9051975 C3.57296157,10.4291464 10.4479111,3.56317912 18.9262146,3.560979 L521.069226,3.560979 C525.139475,3.560979 529.04296,5.17772492 531.920686,8.05543916 C534.798412,10.9331534 536.417509,14.8360257 536.417509,18.9051975 L536.417509,141.110795 Z" id="Path" fill="#000000"></path>
            <path d="M120.577076,79.1577624 C120.461014,66.2622171 131.138777,59.9884923 131.62704,59.696412 C125.579776,50.8819887 116.206718,49.6776576 112.91294,49.5816312 C105.040691,48.7534035 97.4045701,54.2909259 93.3944058,54.2909259 C89.3041982,54.2909259 83.1288654,49.6616532 76.4732733,49.7976906 C67.9086509,49.9297269 59.8963266,54.8870898 55.5019549,62.5852062 C46.4330603,78.2815215 53.1967107,101.347863 61.8854001,114.035351 C66.2317458,120.25306 71.3104869,127.186967 77.9580746,126.9429 C84.4615846,126.678827 86.8908958,122.801761 94.7391315,122.801761 C102.515328,122.801761 104.79656,126.9429 111.576219,126.786857 C118.555986,126.678827 122.950357,120.545141 127.144621,114.275417 C132.167332,107.15746 134.18442,100.139531 134.264464,99.7794318 C134.104377,99.7234164 120.71315,94.6100106 120.577076,79.1577624 Z M107.770164,41.2353366 C111.268052,36.8621343 113.661344,30.9124986 112.996985,24.8748387 C107.934253,25.0989003 101.602836,28.3758012 97.9568682,32.6529771 C94.7311272,36.4220133 91.849572,42.5997117 92.5939738,48.4093089 C98.2810431,48.8334255 104.120195,45.5405202 107.770164,41.2353366 L107.770164,41.2353366 Z" id="Shape" fill="#FFFFFF"></path>
            <path d="M521.073228,0 L252.108065,0 L357.456923,159.999988 L521.073228,159.999988 C531.514429,159.991185 539.979592,151.537212 539.999442,141.098792 L539.999442,18.9091986 C539.9818,8.46856593 531.516635,0.0110124017 521.073228,0 Z" id="Path" fill="url(#linearGradient-1)"></path>
            <g id="Group" transform="translate(169.811649, 72.015799)" fill="#FFFFFF">
                <path d="M44.9642676,54.0348555 L35.8753622,54.0348555 L30.8966752,38.3945556 L13.5913354,38.3945556 L8.84877576,54.0348555 L5.68587666e-14,54.0348555 L17.1492556,0.7882167 L27.738971,0.7882167 L44.9642676,54.0348555 L44.9642676,54.0348555 Z M29.3958652,31.8327516 L24.8934352,17.9289291 C24.4171782,16.5085386 23.5206943,13.163619 22.2079858,7.8981714 L22.0478994,7.8981714 C21.5196143,10.162794 20.6751586,13.5077136 19.5185343,17.9289291 L15.0921454,31.8327516 L29.3958652,31.8327516 Z M88.9800233,34.3654479 C88.9800233,40.8952431 87.2070664,46.0566621 83.6571505,49.8457038 C80.4794354,53.2186311 76.5293035,54.9030942 71.8187612,54.9030942 C66.7320158,54.9030942 63.0740416,53.0905959 60.8528428,49.4575971 L60.8528428,69.6031356 L52.3202377,69.6031356 L52.3202377,28.2597693 C52.3202377,24.1586418 52.2121794,19.9534857 52.004067,15.6402999 L59.508117,15.6402999 L59.9843741,21.725973 L60.1444605,21.725973 C62.9899962,17.1407124 67.3083269,14.8480821 73.1034546,14.8480821 C77.6338997,14.8480821 81.4159409,16.6365738 84.4415738,20.2175583 C87.4632046,23.806545 88.9800233,28.5198408 88.9800233,34.3654479 Z M80.2873318,34.6775337 C80.2873318,30.9405063 79.4468782,27.8596593 77.7579666,25.4309916 C75.9129709,22.9062975 73.4356338,21.6419499 70.3299577,21.6419499 C68.2248215,21.6419499 66.311789,22.3461435 64.6028667,23.7345252 C62.8899422,25.1349102 61.7693374,26.9634129 61.2450545,29.2280355 C61.011004,30.0749549 60.8780083,30.946585 60.8488406,31.8247494 L60.8488406,38.2305105 C60.8488406,41.0192772 61.7053029,43.3759251 63.4182274,45.3044553 C65.1311518,47.2249833 67.3563528,48.1892484 70.0938302,48.1892484 C73.3075647,48.1892484 75.8089147,46.9449063 77.5978802,44.4762276 C79.3908479,41.9995467 80.2873318,38.7346491 80.2873318,34.6775337 L80.2873318,34.6775337 Z M133.151863,34.3654479 C133.151863,40.8952431 131.378906,46.0566621 127.82899,49.8457038 C124.647273,53.2186311 120.701143,54.9030942 115.986599,54.9030942 C110.899854,54.9030942 107.241879,53.0905959 105.020681,49.4575971 L105.020681,69.6031356 L96.4880754,69.6031356 L96.4880754,28.2597693 C96.4880754,24.1586418 96.3800171,19.9534857 96.1719048,15.6402999 L103.675955,15.6402999 L104.152212,21.725973 L104.312298,21.725973 C107.153832,17.1407124 111.472162,14.8480821 117.271292,14.8480821 C121.797735,14.8480821 125.579776,16.6365738 128.613414,20.2175583 C131.631042,23.806545 133.151863,28.5198408 133.151863,34.3654479 L133.151863,34.3654479 Z M124.45517,34.6775337 C124.45517,30.9405063 123.610714,27.8596593 121.921802,25.4309916 C120.076806,22.9062975 117.607474,21.6419499 114.501798,21.6419499 C112.396661,21.6419499 110.483629,22.3461435 108.766702,23.7345252 C107.053778,25.1349102 105.937175,26.9634129 105.412892,29.2280355 C105.152752,30.2843259 105.012676,31.1445624 105.012676,31.8247494 L105.012676,38.2305105 C105.012676,41.0192772 105.873141,43.3759251 107.578061,45.3044553 C109.290985,47.2209822 111.516186,48.1892484 114.261668,48.1892484 C117.479405,48.1892484 119.980755,46.9449063 121.765718,44.4762276 C123.558686,41.9995467 124.45517,38.7346491 124.45517,34.6775337 L124.45517,34.6775337 Z M182.538518,39.0987492 C182.538518,43.6319955 180.953662,47.3170086 177.803962,50.1617907 C174.338092,53.2666443 169.49948,54.8230722 163.296132,54.8230722 C157.565039,54.8230722 152.97056,53.7187686 149.504689,51.5061603 L151.477754,44.3962056 C155.219773,46.612815 159.329992,47.7171186 163.804407,47.7171186 C167.022143,47.7171186 169.523493,46.9889184 171.308457,45.5445213 C173.097422,44.0961231 174.00191,42.1595907 174.00191,39.7429263 C174.00191,37.5783312 173.253506,35.7658329 171.784714,34.289427 C170.307917,32.8170222 167.866599,31.4446449 164.436748,30.1842984 C155.111715,26.7073425 150.445197,21.6219444 150.445197,14.9321052 C150.445197,10.562904 152.094086,6.9859206 155.383862,4.1891517 C158.673638,1.3963839 163.035992,0 168.462921,0 C173.309537,0 177.347716,0.8442321 180.553446,2.5286952 L178.412291,9.482607 C175.394662,7.8501582 171.988824,7.0339338 168.178768,7.0339338 C165.169143,7.0339338 162.807869,7.7741373 161.118957,9.2465421 C159.69819,10.562904 158.977802,12.1673451 158.977802,14.0718687 C158.977802,16.1724462 159.798244,17.9169258 161.431126,19.285302 C162.84789,20.5456485 165.433286,21.9180258 169.171303,23.3904306 C173.757779,25.2389388 177.127597,27.3915306 179.284762,29.8642104 C181.457934,32.3368902 182.538518,35.4217383 182.538518,39.0987492 Z M210.821782,22.0420599 L201.416706,22.0420599 L201.416706,40.6831848 C201.416706,45.4244883 203.073601,47.7891384 206.395393,47.7891384 C207.920216,47.7891384 209.184899,47.6611032 210.185439,47.3930295 L210.421566,53.8708104 C208.740659,54.4989831 206.527465,54.81507 203.785985,54.81507 C200.416166,54.81507 197.782745,53.7867873 195.881719,51.7302219 C193.988697,49.6736565 193.036183,46.2287094 193.036183,41.3793762 L193.036183,22.0260555 L187.433159,22.0260555 L187.433159,15.6242955 L193.036183,15.6242955 L193.036183,8.5943628 L201.416706,6.0656676 L201.416706,15.6242955 L210.821782,15.6242955 L210.821782,22.0420599 L210.821782,22.0420599 Z M253.172639,34.5214908 C253.172639,40.4231133 251.483728,45.2684454 248.113909,49.0574871 C244.588006,52.9585596 239.897475,54.9030942 234.050319,54.9030942 C228.407273,54.9030942 223.920852,53.0345805 220.575046,49.3015542 C217.22924,45.5605257 215.556338,40.8472299 215.556338,35.1616668 C215.556338,29.2120311 217.285271,24.3386913 220.73113,20.5496496 C224.184995,16.7566068 228.835504,14.8600854 234.68266,14.8600854 C240.317702,14.8600854 244.844144,16.7326002 248.269993,20.4696276 C251.54376,24.0946242 253.172639,28.7759112 253.172639,34.5214908 Z M244.327866,34.7175447 C244.327866,31.2005778 243.567455,28.1837484 242.042632,25.6590543 C240.253667,22.6102161 237.692285,21.085797 234.374494,21.085797 C230.956649,21.085797 228.335234,22.6102161 226.550271,25.6590543 C225.021446,28.1837484 224.261036,31.2525921 224.261036,34.8775887 C224.261036,38.3985567 225.021446,41.4233883 226.550271,43.9400802 C228.395267,46.9889184 230.968656,48.5133375 234.302455,48.5133375 C237.564215,48.5133375 240.121596,46.9569096 241.970594,43.8640593 C243.53944,41.2793487 244.327866,38.2425138 244.327866,34.7175447 Z M280.919615,23.1423624 C280.032162,22.9821866 279.131958,22.9031717 278.230163,22.9062975 C275.228543,22.9062975 272.90729,24.0346077 271.274409,26.3072325 C269.857644,28.3077825 269.14526,30.8364777 269.14526,33.889317 L269.14526,54.0348555 L260.612655,54.0348555 L260.612655,27.7316241 C260.620264,23.7011692 260.537532,19.67105 260.364521,15.644301 L267.796532,15.644301 L268.108701,22.9903206 L268.344828,22.9903206 C269.249316,20.4656265 270.666081,18.4290666 272.611131,16.9046475 C274.391505,15.5725922 276.554716,14.8512451 278.778459,14.8480821 C279.566885,14.8480821 280.279269,14.9040975 280.91161,15.004125 L280.919615,23.1423624 L280.919615,23.1423624 Z M319.08021,33.0210783 C319.101847,34.3178334 318.997299,35.6136191 318.768042,36.890142 L293.170226,36.890142 C293.266278,40.6831848 294.506948,43.5879834 296.884231,45.5885334 C299.041395,47.373024 301.830901,48.2692704 305.25675,48.2692704 C309.046795,48.2692704 312.504661,47.6691054 315.61434,46.4567721 L316.951061,52.374399 C313.3171,53.9588346 309.026784,54.7470513 304.076112,54.7470513 C298.120898,54.7470513 293.446376,52.9945695 290.04454,49.4976081 C286.650708,45.9966456 284.94979,41.291352 284.94979,35.3977317 C284.94979,29.6121411 286.530643,24.7908156 289.696352,20.9457585 C293.01014,16.8406299 297.488557,14.7880656 303.123598,14.7880656 C308.658586,14.7880656 312.848847,16.8406299 315.694383,20.9457585 C317.947599,24.1986528 319.08021,28.2317616 319.08021,33.0210783 L319.08021,33.0210783 Z M310.943819,30.80847 C311.003851,28.2757737 310.443549,26.0951742 309.286925,24.2506671 C307.810128,21.8740137 305.536901,20.6896881 302.491257,20.6896881 C299.701752,20.6896881 297.428525,21.846006 295.699592,24.166644 C294.278825,26.0111511 293.434369,28.2277605 293.174229,30.8004678 L310.943819,30.80847 Z" id="Shape"></path>
            </g>
            <g id="Group" transform="translate(174.806344, 26.219208)" fill="#FFFFFF">
                <path d="M6.13531128,27.7596318 C3.7620304,27.7596318 1.70892232,27.6435999 0,27.447546 L0,1.7044686 C2.39012434,1.33534763 4.80543459,1.15341123 7.2238988,1.16012948 C17.00918,1.16012948 21.5156122,5.9736423 21.5156122,13.8197994 C21.5156122,22.8702876 16.1927394,27.7596318 6.13531128,27.7596318 Z M7.56808456,4.4612265 C6.24737176,4.4612265 5.1227648,4.5412485 4.19026152,4.7333013 L4.19026152,24.3026814 C4.69453368,24.3827034 5.6630564,24.4187133 7.0237908,24.4187133 C13.4352511,24.4187133 17.085221,20.7697101 17.085221,13.9358313 C17.085221,7.842156 13.783439,4.4612265 7.56808456,4.4612265 L7.56808456,4.4612265 Z M35.5591916,27.9556857 C30.0442151,27.9556857 26.4702862,23.8385538 26.4702862,18.2490171 C26.4702862,12.4234155 30.1202562,8.2702737 35.8713601,8.2702737 C41.3062934,8.2702737 44.9602654,12.1913517 44.9602654,17.9409324 C44.9602654,23.8385538 41.1942329,27.9556857 35.5591916,27.9556857 Z M35.719278,11.3351163 C32.6896429,11.3351163 30.7485953,14.1678951 30.7485953,18.1289841 C30.7485953,22.0140522 32.7296645,24.846831 35.6792564,24.846831 C38.6288483,24.846831 40.6099175,21.8179983 40.6099175,18.0489621 C40.6099175,14.2079061 38.6688699,11.3351163 35.719278,11.3351163 Z M76.4092387,8.6583804 L70.5060527,27.527568 L66.659977,27.527568 L64.2146572,19.3333152 C63.6066444,17.3289459 63.1003919,15.2951244 62.6978386,13.2396399 L62.6177954,13.2396399 C62.309629,15.2962053 61.7253137,17.3567718 61.1049789,19.3333152 L58.5035749,27.527568 L54.6174775,27.527568 L49.0624794,8.6583804 L53.3728058,8.6583804 L55.5099592,17.6288466 C56.0142314,19.765434 56.4384603,21.7819884 56.7906504,23.686512 L56.8706936,23.686512 C57.1788599,22.0980753 57.6831321,20.1135297 58.4235317,17.6688576 L61.1049789,8.6623815 L64.5228235,8.6623815 L67.0882081,17.4768048 C67.7085429,19.6133922 68.212815,21.7099686 68.6050267,23.6905131 L68.7170872,23.6905131 C68.9892341,21.7499796 69.4174652,19.6894131 69.9977784,17.4768048 L72.2910161,8.6623815 L76.4092387,8.6583804 L76.4092387,8.6583804 Z M98.1409675,27.527568 L93.9467038,27.527568 L93.9467038,16.6925892 C93.9467038,13.3556718 92.6660126,11.683212 90.1406497,11.683212 C87.6553083,11.683212 85.946386,13.8197994 85.946386,16.3044825 L85.946386,27.527568 L81.7521223,27.527568 L81.7521223,14.0518632 C81.7521223,12.3834045 81.7121007,10.5949128 81.5960381,8.6543793 L85.2860296,8.6543793 L85.4821354,11.5671801 L85.5981981,11.5671801 C86.7268072,9.5506257 89.0160427,8.2702737 91.5814273,8.2702737 C95.5435657,8.2702737 98.1449697,11.2991064 98.1449697,16.2284616 L98.1409675,27.527568 L98.1409675,27.527568 Z M109.70721,27.527568 L105.508944,27.527568 L105.508944,7.10738135e-15 L109.70721,7.10738135e-15 L109.70721,27.527568 Z M124.999463,27.9556857 C119.488489,27.9556857 115.910558,23.8385538 115.910558,18.2490171 C115.910558,12.4234155 119.560528,8.2702737 125.30763,8.2702737 C130.746565,8.2702737 134.396538,12.1913517 134.396538,17.9409324 C134.400537,23.8385538 130.630502,27.9556857 124.999463,27.9556857 Z M125.155548,11.3351163 C122.125912,11.3351163 120.184865,14.1678951 120.184865,18.1289841 C120.184865,22.0140522 122.169936,24.846831 125.111524,24.846831 C128.065118,24.846831 130.042191,21.8179983 130.042191,18.0489621 C130.046187,14.2079061 128.109142,11.3351163 125.155548,11.3351163 L125.155548,11.3351163 Z M150.93346,27.527568 L150.629296,25.3549707 L150.517235,25.3549707 C149.236544,27.1034514 147.367536,27.9556857 144.998257,27.9556857 C141.616432,27.9556857 139.215136,25.5870345 139.215136,22.4021589 C139.215136,17.7448785 143.253315,15.3362163 150.245089,15.3362163 L150.245089,14.9881206 C150.245089,12.5034375 148.928378,11.2590954 146.326974,11.2590954 C144.46597,11.2590954 142.833088,11.7272241 141.396313,12.6594804 L140.543853,9.9027225 C142.288794,8.8144233 144.46597,8.2702737 147.02335,8.2702737 C151.954011,8.2702737 154.443354,10.8709887 154.443354,16.0764198 L154.443354,23.0263305 C154.443354,24.9308541 154.5274,26.40726 154.715501,27.5315691 L150.93346,27.527568 L150.93346,27.527568 Z M150.357149,18.1289841 C145.698635,18.1289841 143.361373,19.2572943 143.361373,21.9340302 C143.361373,23.9145747 144.566024,24.8828409 146.238926,24.8828409 C148.372078,24.8828409 150.357149,23.2543932 150.357149,21.0417849 L150.357149,18.1289841 L150.357149,18.1289841 Z M174.810347,27.527568 L174.614241,24.4987353 L174.498178,24.4987353 C173.293528,26.7873645 171.268435,27.9556857 168.438908,27.9556857 C163.888452,27.9556857 160.518633,23.9545857 160.518633,18.325038 C160.518633,12.4234155 164.012519,8.2662726 168.783094,8.2662726 C171.308457,8.2662726 173.097422,9.1185069 174.105966,10.8309777 L174.190012,10.8309777 L174.190012,7.10738135e-15 L178.388278,7.10738135e-15 L178.388278,22.4421699 C178.388278,24.2666715 178.432301,25.9751412 178.544362,27.527568 L174.810347,27.527568 Z M174.190012,16.4245155 C174.190012,13.7837895 172.441068,11.5311702 169.771627,11.5311702 C166.661949,11.5311702 164.760923,14.2879281 164.760923,18.1689951 C164.760923,21.9740412 166.733988,24.5787573 169.687582,24.5787573 C172.325005,24.5787573 174.190012,22.286127 174.190012,19.5693801 L174.190012,16.4245155 Z M205.006644,27.9556857 C199.49567,27.9556857 195.921741,23.8385538 195.921741,18.2490171 C195.921741,12.4234155 199.571711,8.2702737 205.318812,8.2702737 C210.757748,8.2702737 214.407721,12.1913517 214.407721,17.9409324 C214.41172,23.8385538 210.645687,27.9556857 205.006644,27.9556857 Z M205.162728,11.3351163 C202.137095,11.3351163 200.196048,14.1678951 200.196048,18.1289841 C200.196048,22.0140522 202.177117,24.846831 205.122706,24.846831 C208.076301,24.846831 210.053392,21.8179983 210.053392,18.0489621 C210.061372,14.2079061 208.120324,11.3351163 205.162728,11.3351163 Z M236.963891,27.527568 L232.765626,27.527568 L232.765626,16.6925892 C232.765626,13.3556718 231.484934,11.683212 228.959571,11.683212 C226.47423,11.683212 224.76931,13.8197994 224.76931,16.3044825 L224.76931,27.527568 L220.571044,27.527568 L220.571044,14.0518632 C220.571044,12.3834045 220.531022,10.5949128 220.41496,8.6543793 L224.104951,8.6543793 L224.301057,11.5671801 L224.41712,11.5671801 C225.541727,9.5506257 227.834964,8.2662726 230.396347,8.2662726 C234.358485,8.2662726 236.963891,11.2951053 236.963891,16.2244605 L236.963891,27.527568 Z M265.183122,11.803245 L260.568631,11.803245 L260.568631,20.965764 C260.568631,23.2984053 261.377067,24.4627254 263.009949,24.4627254 C263.750348,24.4627254 264.370683,24.3827034 264.870953,24.2666715 L264.987016,27.4515471 C264.174577,27.7636329 263.08599,27.9196758 261.73326,27.9196758 C258.427476,27.9196758 256.450408,26.0951742 256.450408,21.3178608 L256.450408,11.803245 L253.696922,11.803245 L253.696922,8.6583804 L256.450408,8.6583804 L256.450408,5.20143 L260.568631,3.9570879 L260.568631,8.6543793 L265.183122,8.6543793 L265.183122,11.803245 L265.183122,11.803245 Z M287.387105,27.527568 L283.196844,27.527568 L283.196844,16.7726112 C283.196844,13.3956828 281.920155,11.6872131 279.39079,11.6872131 C277.217617,11.6872131 275.192524,13.163619 275.192524,16.1524407 L275.192524,27.527568 L271.002262,27.527568 L271.002262,7.10738135e-15 L275.192524,7.10738135e-15 L275.192524,11.3351163 L275.276569,11.3351163 C276.597282,9.2785509 278.510314,8.2662726 280.951632,8.2662726 C284.945788,8.2662726 287.387105,11.3711262 287.387105,16.3044825 L287.387105,27.527568 L287.387105,27.527568 Z M310.135383,19.1012514 L297.54859,19.1012514 C297.628633,22.6742337 299.993909,24.6907881 303.495799,24.6907881 C305.356804,24.6907881 307.069728,24.3787023 308.582545,23.7985428 L309.234897,26.7113436 C307.449933,27.487557 305.348799,27.8756637 302.90348,27.8756637 C297.000294,27.8756637 293.506408,24.1466385 293.506408,18.365049 C293.506408,12.5794584 297.084339,8.2302627 302.431225,8.2302627 C307.253828,8.2302627 310.27946,11.803245 310.27946,17.2007289 C310.306582,17.8377001 310.25822,18.4756424 310.135383,19.1012514 L310.135383,19.1012514 Z M306.289307,16.1124297 C306.289307,13.1996289 304.820514,11.1430635 302.139067,11.1430635 C299.729767,11.1430635 297.824739,13.2396399 297.552592,16.1124297 L306.289307,16.1124297 L306.289307,16.1124297 Z" id="Shape"></path>
            </g>
        </g>
    </g>
</svg>