<svg id="logo_header" xmlns="http://www.w3.org/2000/svg" width="179" height="133.358" viewBox="0 0 179 133.358">
            <g id="logo_2" data-name="logo 2">
              <path id="Path_55" data-name="Path 55" d="M328.6,72.7H307.361l2.317-2.446H331.05Z" transform="translate(-208.737 11.117)" fill="#d2ae1e"></path>
              <path id="Path_56" data-name="Path 56" d="M318.626,21.3a.457.457,0,0,1-.129.258.562.562,0,0,0-.129.386v1.8a3.712,3.712,0,0,1-1.031,2.961,4.733,4.733,0,0,1-3.348.9h-.257a3.981,3.981,0,0,1-1.416-.129c-.258-.128-.387-.128-.516-.257-.129,0-.257-.129-.385-.258a2.6,2.6,0,0,1-1.031.515,6.836,6.836,0,0,1-1.8.129,4.374,4.374,0,0,1-3.219-.9,5.009,5.009,0,0,1-1.029-3.6V19.371c0-.387.129-.645.258-.645a.393.393,0,0,0,.258.129l.258.387.9.9,1.03.774c.257.129.386.387.515.516l-.129.257c-.129,0-.129.129-.129.387v1.154a3.017,3.017,0,0,0,.258,1.416,1.57,1.57,0,0,0,1.159.386c.9,0,1.416-.515,1.416-1.673V19.5c0-.387.129-.645.386-.645.129.129.129.129.258.129l.258.387,1.159,1.03.774.774c.258.129.386.257.386.386a.447.447,0,0,1-.128.258c-.129,0-.129.129-.129.387v1.548a1.23,1.23,0,0,0,.256.9,2.17,2.17,0,0,0,1.159.258c.516,0,.9-.129,1.031-.386a3,3,0,0,0,.258-1.416V19.371c0-.387.129-.645.386-.645a.126.126,0,0,1,.129.124v.005l.129.129.258.258.9.9,1.03.774C318.5,21.043,318.626,21.172,318.626,21.3Z" transform="translate(-209.575 -3.147)" fill="#d2ae1e"></path>
              <g id="Group_657" data-name="Group 657">
                <path id="Path_58" data-name="Path 58" d="M376.83,58.642s-22.661,2.961-22.661-5.409V6.626s-8.624,3.477-9.4,5.922v43.9s0,6.952,11.2,8.626c0,0,14.935,1.159,20.728-5.407C377.988,58.126,376.83,58.642,376.83,58.642Z" transform="translate(-198.381 -6.497)" fill="#75973c"></path>
                <path id="Path_59" data-name="Path 59" d="M295.657,67.038S273,70,273,61.631V6.525s-8.624,3.477-9.4,5.923V64.721s0,6.952,11.2,8.626c0,0,14.935,1.159,20.728-5.407C296.687,66.652,295.657,67.038,295.657,67.038Z" transform="translate(-220.852 -6.525)" fill="#304e21"></path>
                <path id="Path_60" data-name="Path 60" d="M350.288,53.794h-6.567c-.386-15.193-13.9-14.421-13.9-14.421h-26.78L305.1,35.9,288.874,48.643h40.171c4.764.258,4.12,5.151,4.12,5.151h-45.45c-2.832-.645-2.7-1.674-2.7-1.674L273.681,62.935h76.35c9.528,0,9.4-9.141,9.4-9.141V6.928s-8.626,3.477-9.4,5.923V53.794Z" transform="translate(-218.061 -6.413)" fill="#75973c"></path>
                <path id="Path_61" data-name="Path 61" d="M268.153,38.342C265.835,33.578,258.109,27.4,258.109,27.4s-4.119,7.467-5.793,9.141c-1.8,1.8,9.27,4.893,6.438,9.27-3.477,4.764-14.292,4.377-17.768-.9l-9.655,12.1h23.818C270.212,57.268,270.212,42.719,268.153,38.342Z" transform="translate(-229.785 -0.747)" fill="#75973c"></path>
                <rect id="Rectangle_452" data-name="Rectangle 452" width="6.566" height="6.566" transform="translate(48.083 128.711) rotate(-44.951)" fill="#d2ae1e"></rect>
                <path id="Path_62" data-name="Path 62" d="M236.685,81.457v5.665H230.12V80.557l5.665-.129V74.892h6.565v6.566Z" transform="translate(-230.12 12.401)" fill="#d2ae1e"></path>
                <path id="Path_63" data-name="Path 63" d="M254.478,108.908l-3.991,3.991-4.636-4.635,4.635-4.635,3.991,3.991,3.991-3.991,4.635,4.635-4.635,4.635Z" transform="translate(-225.765 20.357)" fill="#d2ae1e"></path>
                <path id="Path_64" data-name="Path 64" d="M408.246,108.953c-5.922,6.565-20.729,5.407-20.729,5.407-11.2-1.674-11.2-8.626-11.2-8.626V61.96c.775-2.446,9.4-5.923,9.4-5.923v46.607c0,8.5,22.661,5.409,22.661,5.409S409.406,107.665,408.246,108.953Zm-72.487-5.409H317.734L306.661,91.313S301.9,99.94,299.967,102c-2.061,2.059,8.24,6.18,7.983,11.844s-7.081,9.4-12.618,2.19H287.22s7.467,5.922,10.429,7.338c2.961,1.287,16.737,5.151,18.157-10.429h46.223c9.526,0,9.526-9.4,9.526-9.4V56.679s-8.626,3.477-9.4,5.923v40.943H344.643v-1.413c.258-4.378,10.944-13.9,10.944-13.9V76.636l-15.45,15.45-15.193-15.45V88.223S335.632,97.751,335.759,102ZM277.694,77.28s-8.628,3.476-9.4,5.921v20.343H257.737V76.12S241.9,90.926,235.077,97.233c0,0-5.923,4.764-2.962,11.46,0,0,3.219,4.635,10.557,4.248h44.547c9.528,0,9.528-9.4,9.528-9.4V77.28s-8.625,3.476-9.4,5.921v20.343h-9.783V77.28Zm-28.97,22.145c1.287,1.8,1.416,3.991.129,4.893s-3.348.257-4.635-1.549-1.416-3.991-.129-4.893C245.247,96.979,247.308,97.622,248.724,99.425Z" transform="translate(-229.797 7.182)" fill="#304e21"></path>
              </g>
            </g>
            <path id="Path_67" data-name="Path 67" d="M367.08,88.347a3.96,3.96,0,0,1,2.219.633,5.493,5.493,0,0,1,1.744,1.587,3.961,3.961,0,0,1,.633,2.219,3.632,3.632,0,0,1-.633,2.219A4.6,4.6,0,0,1,369.3,96.75a5.063,5.063,0,0,1-2.219.476,3.648,3.648,0,0,1-2.219-.633,3.091,3.091,0,0,1-1.587-1.587,4.205,4.205,0,0,1,0-4.438,3.835,3.835,0,0,1,1.587-1.587A3.96,3.96,0,0,1,367.08,88.347Zm0,.793a3.2,3.2,0,0,0-1.744.474,3.766,3.766,0,0,0-1.429,1.267,4.041,4.041,0,0,0,0,3.8,3.248,3.248,0,0,0,1.267,1.267,3.052,3.052,0,0,0,1.9.633,4.213,4.213,0,0,0,1.9-.476,6.107,6.107,0,0,0,1.427-1.426,4.04,4.04,0,0,0,0-3.8,10.282,10.282,0,0,0-1.42-1.264A4.216,4.216,0,0,0,367.08,89.14Zm-1.906,6.184V90.568h1.59a2.708,2.708,0,0,1,1.267.158,2.183,2.183,0,0,1,.633.475c.158.158.158.318.158.633a1.122,1.122,0,0,1-1.269,1.269c.158,0,.318.158.476.318a2.434,2.434,0,0,1,.633.951l.633.951H368.19l-.317-.793c-.475-.633-.633-.951-.951-1.11,0-.158-.318-.158-.476-.158h-.475v2.061Zm.793-2.7h.955c.476,0,.793,0,.951-.158s.318-.318.318-.476,0-.317-.158-.317c-.158-.318-.318-.476-.476-.476h-1.586Z" transform="translate(-193.435 16.126)" fill="#75973c"></path>
          </svg>