<svg xmlns="http://www.w3.org/2000/svg" xmlns:xlink="http://www.w3.org/1999/xlink" viewBox="0 0 681 677"><defs><style>.cls-1{fill:#fff;}.cls-2{fill:url(#linear-gradient);}.cls-3{fill:url(#linear-gradient-2);}.cls-4{fill:url(#linear-gradient-3);}.cls-5{fill:url(#linear-gradient-4);}.cls-6{fill:url(#linear-gradient-5);}.cls-7{fill:url(#linear-gradient-6);}.cls-8{fill:url(#linear-gradient-7);}.cls-9{fill:url(#linear-gradient-8);}.cls-10{fill:url(#linear-gradient-9);}.cls-11{fill:url(#linear-gradient-10);}.cls-12{fill:url(#linear-gradient-11);}.cls-13{fill:url(#linear-gradient-12);}.cls-14{fill:url(#linear-gradient-13);}.cls-15{fill:url(#linear-gradient-14);}.cls-16{fill:url(#linear-gradient-15);}.cls-17{fill:url(#linear-gradient-16);}.cls-18{fill:url(#linear-gradient-17);}.cls-19{fill:url(#linear-gradient-18);}.cls-20{fill:url(#linear-gradient-19);}.cls-21{fill:url(#linear-gradient-20);}.cls-22{fill:url(#linear-gradient-21);}.cls-23{fill:url(#linear-gradient-22);}.cls-24{fill:url(#linear-gradient-23);}.cls-25{fill:#ebb364;}.cls-26{fill:url(#linear-gradient-24);}.cls-27{fill:url(#linear-gradient-25);}</style><linearGradient id="linear-gradient" x1="-341.63" y1="721.91" x2="-339.19" y2="721.91" gradientTransform="matrix(263.5, 0, 0, -315.28, 90038, 227968.37)" gradientUnits="userSpaceOnUse"><stop offset="0" stop-color="#ebb364"/><stop offset="1" stop-color="#ffe99d"/></linearGradient><linearGradient id="linear-gradient-2" x1="-340.54" y1="721.9" x2="-338.79" y2="721.9" gradientTransform="matrix(367.39, 0, 0, -323.8, 125129.18, 234110.44)" xlink:href="#linear-gradient"/><linearGradient id="linear-gradient-3" x1="-340.56" y1="722.48" x2="-338.14" y2="722.48" gradientTransform="matrix(265.24, 0, 0, -131.23, 90350.45, 95095.37)" xlink:href="#linear-gradient"/><linearGradient id="linear-gradient-4" x1="-352.3" y1="721.96" x2="-335.59" y2="721.96" gradientTransform="matrix(38.49, 0, 0, -276.79, 13579.97, 200206.86)" xlink:href="#linear-gradient"/><linearGradient id="linear-gradient-5" x1="-343.91" y1="724.42" x2="-336.4" y2="724.42" gradientTransform="matrix(85.74, 0, 0, -43.88, 29504.01, 32068.16)" xlink:href="#linear-gradient"/><linearGradient id="linear-gradient-6" x1="-340.59" y1="724.42" x2="-333.13" y2="724.42" gradientTransform="matrix(86.25, 0, 0, -43.89, 29396.19, 32347.46)" xlink:href="#linear-gradient"/><linearGradient id="linear-gradient-7" x1="-344.82" y1="724.44" x2="-337.1" y2="724.44" gradientTransform="matrix(83.43, 0, 0, -43.53, 28786.38, 32092.94)" xlink:href="#linear-gradient"/><linearGradient id="linear-gradient-8" x1="-340.26" y1="724.45" x2="-332.7" y2="724.45" gradientTransform="matrix(85.14, 0, 0, -43.37, 28989.99, 31688.98)" xlink:href="#linear-gradient"/><linearGradient id="linear-gradient-9" x1="-342.61" y1="723.04" x2="-338.76" y2="723.04" gradientTransform="matrix(167.06, 0, 0, -82.91, 57256.26, 60365.97)" xlink:href="#linear-gradient"/><linearGradient id="linear-gradient-10" x1="-343.79" y1="723.39" x2="-338.61" y2="723.39" gradientTransform="matrix(124.22, 0, 0, -67.84, 42725.54, 49317.96)" xlink:href="#linear-gradient"/><linearGradient id="linear-gradient-11" x1="-341.28" y1="723.01" x2="-337.23" y2="723.01" gradientTransform="matrix(159.1, 0, 0, -84.98, 54316.23, 61848.95)" xlink:href="#linear-gradient"/><linearGradient id="linear-gradient-12" x1="-341.2" y1="723.61" x2="-333.8" y2="723.61" gradientTransform="matrix(86.9, 0, 0, -60.78, 29670.2, 44201.29)" xlink:href="#linear-gradient"/><linearGradient id="linear-gradient-13" x1="-343.94" y1="723.61" x2="-336.02" y2="723.61" gradientTransform="matrix(81.31, 0, 0, -60.58, 27984.78, 44058.89)" xlink:href="#linear-gradient"/><linearGradient id="linear-gradient-14" x1="-340.74" y1="723.9" x2="-328.23" y2="723.9" gradientTransform="matrix(51.41, 0, 0, -53.25, 17535.32, 38914.92)" xlink:href="#linear-gradient"/><linearGradient id="linear-gradient-15" x1="-338.75" y1="724.74" x2="-324.05" y2="724.74" gradientTransform="matrix(43.79, 0, 0, -39.5, 14854.17, 29052.75)" xlink:href="#linear-gradient"/><linearGradient id="linear-gradient-16" x1="-342.07" y1="723.66" x2="-331.28" y2="723.66" gradientTransform="matrix(59.59, 0, 0, -59.17, 20401.63, 43192.61)" xlink:href="#linear-gradient"/><linearGradient id="linear-gradient-17" x1="-344.21" y1="724.73" x2="-329.33" y2="724.73" gradientTransform="matrix(43.27, 0, 0, -39.66, 14912.06, 29295.34)" xlink:href="#linear-gradient"/><linearGradient id="linear-gradient-18" x1="-345.56" y1="723.85" x2="-334.97" y2="723.85" gradientTransform="matrix(60.74, 0, 0, -54.4, 21008.44, 39769.08)" xlink:href="#linear-gradient"/><linearGradient id="linear-gradient-19" x1="-339.54" y1="723.96" x2="-331.84" y2="723.96" gradientTransform="matrix(83.64, 0, 0, -52.03, 28416.06, 38044.19)" xlink:href="#linear-gradient"/><linearGradient id="linear-gradient-20" x1="-334.82" y1="723.5" x2="-306.76" y2="723.5" gradientTransform="matrix(22.95, 0, 0, -64.15, 7702.63, 46636.32)" xlink:href="#linear-gradient"/><linearGradient id="linear-gradient-21" x1="-345.71" y1="723.91" x2="-318.65" y2="723.91" gradientTransform="matrix(23.76, 0, 0, -53.08, 8232.09, 38875.16)" xlink:href="#linear-gradient"/><linearGradient id="linear-gradient-22" x1="-354.67" y1="723.96" x2="-328.61" y2="723.96" gradientTransform="matrix(24.7, 0, 0, -51.96, 8777.73, 38072.64)" xlink:href="#linear-gradient"/><linearGradient id="linear-gradient-23" x1="-339.03" y1="724.15" x2="-313.7" y2="724.15" gradientTransform="matrix(25.38, 0, 0, -48.21, 8622.57, 35134.33)" xlink:href="#linear-gradient"/><linearGradient id="linear-gradient-24" x1="-340.69" y1="722.42" x2="-339.69" y2="722.42" gradientTransform="matrix(535.35, 0, 0, -139.1, 182458.77, 100558.2)" xlink:href="#linear-gradient"/><linearGradient id="linear-gradient-25" x1="-340.75" y1="722.35" x2="-339.75" y2="722.35" gradientTransform="matrix(681, 0, 0, -150.78, 232053.04, 109017.73)" xlink:href="#linear-gradient"/></defs><g id="Layer_2" data-name="Layer 2"><g id="Layer_1-2" data-name="Layer 1"><g id="icon_1024" data-name="icon 1024"><g id="Group_34549" data-name="Group 34549"><g id="Group_34547" data-name="Group 34547"><g id="Group_34545" data-name="Group 34545"><g id="Group_34520" data-name="Group 34520"><g id="Group_34497" data-name="Group 34497"><path id="Path_30053" data-name="Path 30053" class="cls-1" d="M410.09,328.27a15.16,15.16,0,0,0,.27-2c0-1.71-.1-3.42-.14-5.13-.05-2.08,0-4.15-.12-6.23-.11-2.56-.2-5.13-.48-7.68-.39-3.7-1-7.37-1.4-11.07-.37-3.89-.5-7.8-.78-11.69q-.36-5-.83-10c-.19-2.12-.41-4.24-.69-6.36-.51-3.87-.93-7.75-1.63-11.59-1-5.71-2.31-11.37-3.41-17.06a8.29,8.29,0,0,0-3.11-5.23,2.59,2.59,0,0,1-.9-3.39c1.07-2.73,2.1-5.48,3.3-8.16,1.79-3.95,3.73-7.84,5.56-11.77,1.23-2.62,2-2.74,3.73-.37a26.23,26.23,0,0,1,3.82,8.67c.55,2,1,4.05,1.43,6.06.6,2.49,1.3,5,1.81,7.47a60.09,60.09,0,0,1,1.3,10.17c.08,2.37.4,4.74.7,7.1A174.78,174.78,0,0,1,420,270c0,2.8.47,5.58.7,8.38.19,2.31.33,4.63.53,6.94.15,1.76.38,3.52.52,5.28.48,5.9,1.06,11.8,1.38,17.71.32,6.1.4,12.21.56,18.31.09,3,.14,3,3.1,3.07s6.12.41,9.16.25c6.21-.34,12.46-.41,18.63-1.47,3.49-.6,7-.84,10.53-1.41s6.84-1.33,10.24-2.06,6.59-1.35,9.81-2.28c4.75-1.37,9.43-3,14.14-4.45,1.74-.56,3.51-1.06,5.23-1.68,3.15-1.15,6.28-2.35,9.41-3.55s6.38-2.46,9.57-3.72c3-1.19,6-2.4,9-3.6,2.72-1.09,5.45-2.17,8.15-3.3q3.54-1.48,7.05-3.09c4-1.86,8.1-3.72,12.11-5.67,3.13-1.52,6.17-3.24,9.31-4.73,7.79-3.69,15.61-7.36,24.08-9.25a59.24,59.24,0,0,1,10.68-1.52c5.43-.18,9.47,2.56,12.07,7.23.67,1.2.63,2.82.84,4.26a12.53,12.53,0,0,1-1.2,7.3c-1.79,3.82-3.53,7.66-5.5,11.39a54.41,54.41,0,0,1-3.8,5.59,27.2,27.2,0,0,1-1.7,2.15,25,25,0,0,1-1.9,1.95c-2.24,2.09-4.53,4.1-6.74,6.22-3.34,3.22-6.64,6.5-10,9.75-3.14,3.08-6.33,6.1-9.39,9.26a56.8,56.8,0,0,0-7.86,10.33c-2.79,4.67-5.93,9.12-9,13.63-.54.82-1.09,1.79-2.62,1.76a12,12,0,0,1,.51-2.13c1.61-3.63,3.12-7.32,5-10.83,2.89-5.52,5.85-11,9.1-16.33a69.35,69.35,0,0,1,6.86-9c3.56-4.11,7.26-8.11,11.06-12,2.77-2.84,5.8-5.43,8.72-8.12.9-.83,1.85-1.61,2.68-2.5s.81-1.43-.07-2.2a11.62,11.62,0,0,0-2.83-2,14.26,14.26,0,0,0-7.51-1.22,69.85,69.85,0,0,0-22.39,6.66c-2.86,1.38-5.77,2.66-8.6,4.1-5.29,2.68-10.49,5.53-15.81,8.14-4.66,2.29-9.42,4.35-14.14,6.51l-8,3.63c-.44.2-.88.42-1.34.6-3.18,1.23-6.39,2.42-9.56,3.69s-6.51,2.78-9.8,4.06c-3.58,1.39-7.2,2.68-10.84,3.92-4.1,1.4-8.2,2.79-12.36,4-2.51.74-5.11,1.2-7.67,1.76-5.72,1.26-11.44,2.55-17.18,3.74-2,.42-4.1.56-6.16.86-3.44.51-6.91.89-10.31,1.61a39.46,39.46,0,0,1-7.83.6c-1,0-1.95.07-2.92.13a1.23,1.23,0,0,0-1.34,1.13.82.82,0,0,0,0,.27c0,5.25,0,10.5.07,15.75,0,3.6.1,7.21.19,10.81.1,4,.24,8.06.34,12.1.15,5.55.16,11.12.43,16.67.34,6.65.89,13.29,1.35,19.93.07,1,.2,2.07.25,3.11a69.9,69.9,0,0,0,2.13,12.44,6.83,6.83,0,0,1,.28,1.25c.2,4.6,2.13,8.62,4.15,12.62,1.18,2.34,2.3,4.72,3.57,7a29.68,29.68,0,0,0,5.56,7.47c1.52,1.4,2.9,3,4.42,4.36,4.84,4.51,10.74,7.13,16.84,9.44a103.5,103.5,0,0,0,19.29,5,89.28,89.28,0,0,0,13.86,1.16c3,0,6.1.27,9.14.14,5.24-.23,10.47-.62,15.7-1.05,3.34-.27,6.68-.72,10-1.14a194.39,194.39,0,0,0,20.76-3.41c9.22-2.2,18.28-5,27.3-7.88,4.72-1.52,9.09-3.91,13.58-6a44.63,44.63,0,0,0,8.76-5.3c2.42-1.89,2.41-2,1.1-4.84a49.76,49.76,0,0,0-6-9,71.41,71.41,0,0,0-8.84-9.79,3.78,3.78,0,0,1-1.24-4.11c1.45-5.56,2.83-11.14,4.33-16.69a32.56,32.56,0,0,1,1.82-4.79c.79-1.76,2-2,3.27-.6,2.57,2.77,5.1,5.6,7.5,8.52,1.81,2.22,3.47,4.58,5.06,7a22.62,22.62,0,0,1,3.73,8.11c.3,1.5.7,3,1,4.48a26.8,26.8,0,0,1,.09,10,13.6,13.6,0,0,0-.15,2c-.14,6.24-1.76,12.18-3.66,18.06a5.22,5.22,0,0,0-.29.87c-.67,3.56-2.68,6.47-4.93,9.09a73.69,73.69,0,0,1-7.41,7,27.76,27.76,0,0,1-4.58,3.33c-2.7,1.53-5.54,2.84-8.3,4.27-7.42,3.87-15.4,6.21-23.34,8.68A185.7,185.7,0,0,1,538,519.9c-3.12.53-6.28.82-9.42,1.26-1.34.18-2.66.4-4,.67a114.8,114.8,0,0,1-16.95,1.7c-3.41.16-6.83.14-10.24.24-2.63.08-5.25.39-7.87.3a62.07,62.07,0,0,1-12-1.11,162.57,162.57,0,0,1-19.73-5.63,77.5,77.5,0,0,1-10.68-4.81,59.84,59.84,0,0,1-16.05-13.19,27.1,27.1,0,0,1-3.75-5.16c-.88-1.66-2.27-3.05-3.09-4.73-1.25-2.57-2.26-5.27-3.26-7.95-1.07-2.86-2-5.77-3-8.66a17.27,17.27,0,0,1-.75-2.64c-.68-4.09-1.29-8.2-2-12.29-.59-3.55-1.28-7.09-1.82-10.64-.32-2.11-.51-4.25-.64-6.38-.22-3.6-.32-7.21-.52-10.8-.12-2.14-.42-4.26-.5-6.39-.22-5.62-.42-11.24-.53-16.86-.07-4,0-7.95,0-11.92,0-8.37,0-16.74,0-25.11,0-4.7-.2-9.41-.31-14.11,0-.31-.07-.62-.13-.93-1.35-.8-2.86-.62-4.29-.75a69.79,69.79,0,0,1-22-5.5c-2.35-1-4.73-2-7.08-3a8,8,0,0,1-1.78-.94A88.22,88.22,0,0,1,363,333.22c-2.23-2.54-3.56-5.54-5.09-8.45a28.53,28.53,0,0,1-3.13-8.58c-.26-1.56-.62-3.11-.76-4.69-.28-3.1-.49-6.2-.61-9.31A43.18,43.18,0,0,1,355.38,289c.67-2.41,1.24-4.85,2-7.23a115.94,115.94,0,0,1,7-17.7c2.23-4.35,4.38-8.75,6.8-13s5-8.1,7.58-12.14c.2-.3.41-.6.64-.89,1-1.27,1.48-1.44,2.4-.91a2.72,2.72,0,0,1,1.48,3.21,6,6,0,0,1-.6,1.12c-2,3.22-4.14,6.36-6,9.66a57.14,57.14,0,0,0-2.67,6.42c-.39,1-.66,2-1.13,2.9a32.47,32.47,0,0,0-3,10.32,12.27,12.27,0,0,1-.86,3c-1,2.5-2.09,5-1.7,7.78a9.37,9.37,0,0,1-.28,2.18c-.1,1-.19,1.95-.2,2.92a33.67,33.67,0,0,0,.06,4.92c.57,4.31.66,8.6,2.9,12.7,2.76,5,6.62,8.84,10.8,12.52a33.4,33.4,0,0,0,9.11,5.34,75.59,75.59,0,0,0,14.19,4.9C405.85,327.47,407.88,327.83,410.09,328.27Z"/></g><g id="Group_34498" data-name="Group 34498"><path id="Path_30054" data-name="Path 30054" class="cls-1" d="M197.53,479.28a2.18,2.18,0,0,0-.29.64c-.44,4.57-2.35,8.7-3.82,13,0,.12-.1.23-.13.34-.36,1.29-.36,2.84-1.11,3.83-2.49,3.29-4.72,6.86-8.09,9.38a44.19,44.19,0,0,1-13.74,6.78,37.05,37.05,0,0,1-8.11,1.21,26.53,26.53,0,0,1-8-.41c-7.09-1.61-12.7-5.29-16.23-11.78-1-1.82-1.76-3.76-2.63-5.64-.18-.38-.34-.77-.55-1.24a3,3,0,0,0-.88.31,31.39,31.39,0,0,0-6.73,6.44l-.1.15a102.67,102.67,0,0,1-9.82,10.61,54,54,0,0,1-6.84,5.2,43.6,43.6,0,0,1-5.95,2.8c-1.17.53-2.36,1-3.55,1.49a27.25,27.25,0,0,1-8,1.77,72.09,72.09,0,0,1-15.19.14A39,39,0,0,1,66,520.37C60.38,517.72,56,513.59,52,509c-3.52-4-5.7-8.81-7.74-13.64a104.16,104.16,0,0,1-4.86-15.52c-.25-1-.3-2.05-.45-3.08-.38-2.48-.84-4.94-1.13-7.43-.45-4-.87-8-1.17-12-.31-4.2-.46-8.41-.67-12.62-.09-1.71-.1-3.42-.23-5.13-.08-1.14-.35-2.27-.46-3.42s-.09-2.07-.1-3.11a39.26,39.26,0,0,0-.63-8.38,21.6,21.6,0,0,1-.22-4c-.08-2.37-.17-4.74-.22-7.12-.07-3.11-.32-6.24-.12-9.33a65.16,65.16,0,0,0-.24-9.88c-.19-2.24,0-4.51-.1-6.76-.08-3.36-.16-6.71-.34-10.06-.17-3-.55-6-.7-8.95-.17-3.42-.14-6.84-.28-10.27-.07-1.82-.4-3.64-.46-5.47-.14-4-.13-8.07-.26-12.1-.17-5.25-.41-10.5-.62-15.75-.13-3.23-.23-6.47-.39-9.7-.22-4.33-.48-8.66-.73-13-.21-3.66-.36-7.32-.63-11-.29-3.9-.7-7.79-1.05-11.68-.2-2.19-.37-4.38-.58-6.57-.13-1.34-.34-2.67-.5-4-.21-1.82-.42-3.64-.61-5.46-.43-4-.84-8-1.27-12-.05-.3-.12-.6-.2-.9-.52-2.44-1.07-4.88-1.58-7.33-.83-4-1.57-8-2.5-12A19.65,19.65,0,0,0,19.34,227a5.28,5.28,0,0,1-.3-4.21c1.88-6.3,4.95-12.1,7.43-18.14.28-.68.53-1.37.81-2,.9-2.18,2.14-2.39,3.57-.47a13.1,13.1,0,0,1,1.6,3.25c1.44,3.92,2,8,2.78,12.14.85,4.63,1.75,9.25,2.51,13.9a69.16,69.16,0,0,1,.82,7.46,65.85,65.85,0,0,0,1.54,9.76c.65,3.16,1,6.39,1.42,9.59.38,2.91.72,5.83,1,8.75.35,3.71.66,7.42.9,11.14q.56,8.7,1,17.4c.29,6.22.55,12.45.72,18.68.08,2.87,0,5.75-.16,8.61a98.87,98.87,0,0,0,.54,13.55c.11,1.52.09,3,.1,4.58,0,3.73,0,7.46.1,11.19.09,3.29.39,6.58.5,9.87.07,2-.14,4-.06,6,.14,3.54.42,7.07.62,10.61.17,3.17.31,6.34.47,9.51.12,2.2.22,4.4.39,6.59.2,2.74.52,5.47.68,8.21.14,2.13.07,4.27.17,6.4.28,5.62.6,11.23.92,16.84.24,4.15.42,8.3.76,12.44.43,5.3,1,10.58,1.49,15.87.4,5,1.62,9.77,2.58,14.62.44,2.27,1.16,4.48,1.8,6.71a19.15,19.15,0,0,0,3.16,6.36C62,486,64.83,489.88,69,492.43a32.25,32.25,0,0,0,16.57,5.22,112.44,112.44,0,0,0,13.35-.83,15.6,15.6,0,0,0,4.07-1,79.28,79.28,0,0,0,8.72-3.8,57.78,57.78,0,0,0,11.37-8.61c4.58-4.17,8-9.23,11.35-14.33,1.48-2.25,3.08-4.41,4.68-6.57a8.62,8.62,0,0,1,1.68-1.68,1.8,1.8,0,0,1,3,.9,1.06,1.06,0,0,1,.13.52c-.52,2.73,1,5.24.82,8a11.21,11.21,0,0,0,.73,4.13c3.15,9.1,10.1,13.83,19.69,13.61a40.75,40.75,0,0,0,14.61-3.09,30.91,30.91,0,0,0,10.83-7,2.39,2.39,0,0,0,.77-2.13c-.48-3.2-.91-6.41-1.42-9.61-1.3-8.12-4.61-15.57-7.93-23-1.84-4.13-4.09-8.07-6.2-12.07a4.22,4.22,0,0,1-.35-3.17,138,138,0,0,1,4.76-16.17c.59-1.53.88-3.18,1.34-4.77.21-.74.33-1.68,1.31-1.79s1.48.68,1.93,1.43c1.33,2.2,2.72,4.35,4,6.56,1,1.73,2,3.51,2.91,5.29A126.63,126.63,0,0,1,199,435c1.25,3.44,2.08,7,3.38,10.45,1.93,5.08,3,10.46,5.63,15.28a30.4,30.4,0,0,0,3.12,5.16c3.09,3.7,6.4,7.21,9.61,10.81a33.07,33.07,0,0,0,7.73,5.83c1.2.73,2.46,1.36,3.64,2.13a30.36,30.36,0,0,0,8.9,3.8c5.53,1.45,11,3.18,16.86,3.14,1.08,0,2.15.44,3.24.54,2.3.21,4.62.33,6.93.48,2.62.18,5.24.36,7.86.51,1.09.07,2.18.13,3.27.1q3.85-.06,7.7-.22c3.65-.16,7.32-.2,11-.59,5.1-.55,10.2-1.16,15.23-2.12,4.44-.84,8.77-2.19,13.15-3.33,4.08-1.07,8.12-2.27,12.23-3.21a77.92,77.92,0,0,0,14-4.82c3.13-1.38,6.24-2.81,9.38-4.17,4.48-1.94,8.31-4.88,12.11-7.86,1.13-.88,1.19-1.18.36-2.5-1.88-3-3.7-6.07-5.86-8.86-2.8-3.62-5.89-7-8.9-10.46a17.51,17.51,0,0,0-2.32-2.07,2.63,2.63,0,0,1-.92-3.1q1.83-6.06,3.7-12.1c.87-2.86,1.77-5.72,2.61-8.6.75-2.55,1.33-2.89,3.34-1.22a49.83,49.83,0,0,1,6,5.86,76.92,76.92,0,0,1,10.74,15.93,32.67,32.67,0,0,1,3.36,13.58c.16,4.47-1.19,8.69-1.9,13a33.38,33.38,0,0,1-2.55,8c-1.56,3.58-3.4,7-5.3,10.45a17.12,17.12,0,0,1-3,3.66,69.82,69.82,0,0,1-5.56,5c-2.35,1.85-4.82,3.55-7.3,5.22a30,30,0,0,1-3.88,2.06c-3.87,1.82-7.7,3.75-11.66,5.34a78.87,78.87,0,0,1-12.72,4.09c-4.83,1.06-9.56,2.56-14.33,3.86-2.64.72-5.25,1.59-7.92,2.11-3.6.7-7.24,1.17-10.86,1.68a156,156,0,0,1-19.55,1.48c-1,0-1.95.21-2.93.18-2.37-.06-4.76-.07-7.12-.36a70.12,70.12,0,0,0-10.24-.51,25.21,25.21,0,0,1-3.47-.26c-3.63-.41-7.28-.77-10.9-1.31-2-.3-4-.9-6.05-1.39-1.37-.33-2.73-.67-4.08-1.07s-2.8-.87-4.18-1.33c-3.33-1.13-6.21-3.11-9.26-4.78a38.62,38.62,0,0,1-11.2-9.05c-3.19-3.77-6.42-7.5-8.67-12a49.35,49.35,0,0,1-3.16-7.18,3.66,3.66,0,0,0-.4-.82C197.86,479.38,197.71,479.36,197.53,479.28Z"/></g><g id="Group_34499" data-name="Group 34499"><path id="Path_30055" data-name="Path 30055" class="cls-1" d="M272.56,348a5.27,5.27,0,0,1,.1-1.19,7.17,7.17,0,0,1,.67-1.5c4-6.94,7.5-14.16,12.32-20.6a83.3,83.3,0,0,1,9-10.12c3-2.87,5.93-5.84,9.07-8.55,2.44-2.12,5.16-3.9,7.76-5.83a8.08,8.08,0,0,0,.88-.66c3.27-3.13,7.08-5.58,10.46-8.57,2-1.78,2.09-2.27.3-4.29-1.45-1.63-3.41-2.05-5.46-2.18a34,34,0,0,0-11.94,1.58,185.7,185.7,0,0,0-27.54,10.55c-5.17,2.48-10.5,4.64-15.77,6.92-4,1.72-8,3.37-12,5.11-2.63,1.15-5.2,2.45-7.83,3.59-2.24,1-4.52,1.84-6.81,2.7-3.54,1.32-7.08,2.65-10.65,3.88-6,2-11.92,4-17.88,6q-5,1.64-9.94,3.2-11.19,3.56-22.63,6.11c-1.94.44-4,.44-5.79,1.59a.89.89,0,0,1-.7.07c-3-.9-6-.29-9.05.17-1.5.22-3,.32-4.54.44-2.73.21-5.47.45-8.21.56-3.41.14-6.83.3-10.24.2-3.66-.11-7.3-.55-10.95-.8A51.58,51.58,0,0,1,113.8,334a84.21,84.21,0,0,1-15.21-6.3A50.57,50.57,0,0,1,89,321a29,29,0,0,1-5.76-6.83c-1.67-2.84-3.68-5.48-5.48-8.24a15,15,0,0,1-1.13-2.48c-.2-.51-.3-1.06-.5-1.57a40.78,40.78,0,0,1-2.38-9.21,36.37,36.37,0,0,0-1-4.1,10.61,10.61,0,0,1-.29-4.72,12.8,12.8,0,0,0,.13-1.64l.45-9.32a3.66,3.66,0,0,1,.1-.73c1.38-4.93,2.67-9.9,4.2-14.78.91-2.91,2.2-5.69,3.32-8.53l1.68-4.25a14.11,14.11,0,0,1,.7-1.7c2-3.62,4.08-7.24,6.17-10.83,1.15-1.95,2.37-3.85,3.61-5.74,1.74-2.66,3.53-5.29,5.31-7.91a4.61,4.61,0,0,1,.88-.94,1.18,1.18,0,0,1,1.65-.15,1.3,1.3,0,0,1,.26.31c1.28,1.53,1.9,2.58.08,4.44-.51.53-1,1-1.59,1.53a8.61,8.61,0,0,0-2.75,4,5,5,0,0,1-.65,1.51,22.07,22.07,0,0,0-2.94,6.68,13.11,13.11,0,0,1-.63,1.72c-2.7,5.77-3.8,12-5,18.16a66.89,66.89,0,0,0-.62,21,31.94,31.94,0,0,0,1.35,5.88,17.1,17.1,0,0,0,1.88,3.13c.86,1.47,1.71,3,2.56,4.44a2.27,2.27,0,0,0,.27.48c2.7,3.06,5.17,6.35,8.78,8.47,1.1.64,2.14,1.41,3.22,2.09a27.22,27.22,0,0,0,3,1.76c3.52,1.55,7,3.21,10.63,4.46s7.28,2.06,11,3a19.94,19.94,0,0,0,3.28.21c3.89.33,7.77.83,11.66,1,3.47.12,6.95-.16,10.43-.29,2.62-.1,5.24-.23,7.87-.37a17.76,17.76,0,0,0,3.08-.3,33.3,33.3,0,0,1,5.44-.6,63,63,0,0,0,6.86-1q3.26-.57,6.47-1.29,3.59-.78,7.12-1.71c2.42-.63,4.81-1.35,7.22-2,4.3-1.17,8.62-2.22,12.8-3.79,2.57-1,5.27-1.54,7.87-2.39s5.19-1.81,7.78-2.71c1.33-.45,2.67-.88,4-1.29a195.29,195.29,0,0,0,23.19-8.56c4.9-2.2,9.92-4.11,14.89-6.14,5.43-2.21,10.89-4.35,16.29-6.64,4.27-1.8,8.42-3.9,12.72-5.64a127.25,127.25,0,0,1,20.5-6.24,28.93,28.93,0,0,1,9.64-.63,9.2,9.2,0,0,1,3.46,1.08,29.83,29.83,0,0,1,4.22,3.2,3.15,3.15,0,0,1,.9,1.74,20.72,20.72,0,0,1-.95,11.19,19.93,19.93,0,0,0-1.71,5.58,4.54,4.54,0,0,1-.71,1.68c-2,3.77-4,7.55-6,11.31a23.4,23.4,0,0,1-4.91,6.56,36.16,36.16,0,0,0-3.47,4.25,7.24,7.24,0,0,1-1,1.06q-3.36,2.83-6.74,5.64-2.06,1.69-4.15,3.31c-2.52,1.94-5.05,3.86-7.57,5.79a107.52,107.52,0,0,0-11.46,9.41c-1.07,1.08-2.18,2.14-3.3,3.18a28.48,28.48,0,0,0-5.27,6.31,11.42,11.42,0,0,1-1.75,2.11c-1.34,1.42-2.72,2.81-4.12,4.18a7.3,7.3,0,0,1-1.12.79Z"/></g><g id="Group_34500" data-name="Group 34500"><path id="Path_30056" data-name="Path 30056" class="cls-1" d="M646.69,290.64a4.39,4.39,0,0,0-1.15,3.75c.25,2.37.57,4.74.87,7.1,1.08,8.67,2.15,17.35,3.27,26,.46,3.57,1.11,7.12,1.55,10.7.66,5.33,1.69,10.61,2.06,16,.25,3.7,1.1,7.37,1.55,11.07.76,6.31,1.4,12.63,2.11,19,.24,2.06.54,4.12.77,6.18.52,4.62,1,9.24,1.52,13.85.39,3.34,1,6.66,1.29,10,.24,2.49.17,5,.34,7.51.26,3.72.66,7.42.9,11.14.16,2.37.15,4.76.22,7.13.08,3.18.19,6.36.24,9.54,0,2.74,0,5.48,0,8.23,0,3.12-.16,6.23-.14,9.35a32.39,32.39,0,0,1-1.05,8.87,22.6,22.6,0,0,0-.39,3.07A94.33,94.33,0,0,1,654.8,501c-1.5,3.8-3.71,7.14-5.53,10.73a5.37,5.37,0,0,1-1.6,1.94c-1.27.89-2.42.24-2.52-1.31a7.86,7.86,0,0,1,.08-1.28c.74-6.18,1.46-12.37,2.23-18.56.82-6.59.14-13.18.13-19.77,0-1.65-.15-3.3-.08-4.95.28-6.56-.84-13-1-19.58-.07-2.87-.25-5.74-.46-8.6q-.39-5.47-.91-10.95c-.46-4.87-.89-9.75-1.47-14.6-1.28-10.68-2.64-21.35-3.95-32-.52-4.24-.93-8.5-1.48-12.74-1.36-10.43-2.78-20.85-4.15-31.27-1.12-8.54-2.27-17.09-3.3-25.64-.46-3.82-.53-7.69-1-11.51-.74-6.37-1.69-12.72-2.47-19.09-.57-4.67-.92-9.36-1.56-14a19.86,19.86,0,0,0-1.57-5.23,4.66,4.66,0,0,1,.1-4.18q3.8-8.25,8.11-16.24c.63-1.17,1.06-2.47,1.64-3.68.66-1.38,1.12-1.44,2.41-.67a4.69,4.69,0,0,1,2,2.78c1.2,3.71,2.34,7.46,3.56,11.17.61,1.85,1.33,3.67,2,5.49q3,7.57,6,15.14c1.23,3,2.59,6,3.76,9.1,1.3,3.42,2.63,6.85,3.6,10.37a11.46,11.46,0,0,1,0,5.08c-.45,2.39-2.26,2.86-4,1.16a11.79,11.79,0,0,1-1.95-2.64,18.32,18.32,0,0,0-3.88-4.36A4,4,0,0,0,646.69,290.64Z"/></g><g id="Group_34501" data-name="Group 34501"><path id="Path_30057" data-name="Path 30057" class="cls-1" d="M438,285.23a16.41,16.41,0,0,1,.69-1.62q5.42-9.57,10.85-19.13c1-1.67,1.27-1.71,3-.71,1.1.65,2.33,1.09,3.42,1.75,4.43,2.7,8.78,5.53,13.25,8.15,2.89,1.69,5.92,3.17,8.94,4.62,1.44.69,1.73.53,2.54-.79q5.29-8.69,10.53-17.4a11.17,11.17,0,0,1,.82-1.21,1.24,1.24,0,0,1,1.73-.28l.06.05q6.54,4.05,13.09,8.08c3,1.82,6,3.6,8.94,5.39,2.15,1.29,4.3,2.57,6.44,3.87,1.52.92,1.88,2,1,3.52a24.31,24.31,0,0,1-2.75,3.64,22.54,22.54,0,0,0-3.34,5,87.16,87.16,0,0,1-5,7.86,19.2,19.2,0,0,1-1.6,2c-1.07,1.26-1.88,1.5-3.38.75s-2.65-1.51-3.95-2.3q-4.47-2.71-8.91-5.45-5.77-3.56-11.51-7.16l-.77-.5a1.2,1.2,0,0,0-1.86.46q-2.72,4.35-5.47,8.68c-1.56,2.47-3,5-4.73,7.4-2,2.68-4.55,3.05-7.4,1.37-4.57-2.71-9.15-5.41-13.69-8.17-1.51-.91-2.88-2.07-4.39-3s-3.2-1.76-4.83-2.6A2.39,2.39,0,0,1,438,285.23Z"/></g><g id="Group_34502" data-name="Group 34502"><path id="Path_30058" data-name="Path 30058" class="cls-1" d="M195.86,555.34c.41-.55.73-.91,1-1.31l8.1-12.66q1.83-2.85,3.71-5.67c1.05-1.57,1.86-1.86,3.27-.63,4.69,4,10.5,6.17,15.71,9.33,2.66,1.61,5.32,3.24,7.92,4.94a14.73,14.73,0,0,1,2.31,2.08,4.55,4.55,0,0,1,1,5.23c-.92,2.34-2.8,4-4.29,5.9-.66.86-1.31,1.74-1.9,2.66-1.56,2.41-3.05,4.86-4.63,7.26a16.92,16.92,0,0,1-1.79,2.08,1.47,1.47,0,0,1-2.06.29l-.06-.05c-7-4.47-14.12-8.74-21.48-12.6a51.12,51.12,0,0,1-4.59-3l-2.23-1.48c-2,2.9-4,5.6-5.78,8.42-1.45,2.26-2.61,4.71-4.07,7a31.74,31.74,0,0,1-3.16,3.79,4.09,4.09,0,0,1-3.12,1.31,9.78,9.78,0,0,1-5.91-1.51c-3.77-2.5-7.62-4.86-11.48-7.21-2.46-1.49-4.94-3-7.51-4.22-1.8-.88-2.35-2-1.1-4.14q5-8.45,9.86-17c.56-.95,1-2,1.56-2.91.92-1.43,1.56-1.36,3-.44,2.24,1.46,4.62,2.7,6.94,4.05,2.59,1.5,5.12,3.11,7.76,4.5,3.6,1.88,6.84,4.58,11.1,5a3,3,0,0,1,1,.36A8.19,8.19,0,0,1,195.86,555.34Z"/></g><g id="Group_34503" data-name="Group 34503"><path id="Path_30059" data-name="Path 30059" class="cls-1" d="M549.51,563.71c-1.19,2.16-2.33,4.31-3.54,6.41-.79,1.37-1.7,2.66-2.51,4a30.21,30.21,0,0,1-5,6,13.33,13.33,0,0,1-2.94,2.12A4.93,4.93,0,0,1,530,582c-4.12-2.62-8.22-5.25-12.12-8.21-1-.73-2.07-1.28-3.1-1.95-1.89-1.23-3.78-2.46-5.64-3.73a16,16,0,0,1-1.52-1.32,2.3,2.3,0,0,1-.52-2.85,22.49,22.49,0,0,1,1.57-2.69c2.61-3.91,5.27-7.8,7.86-11.73.94-1.43,1.74-2.95,2.62-4.42a9.58,9.58,0,0,1,.91-1.37c.84-1,1.29-1,2.33-.31,3,2,6,4.06,8.92,6.09s6,4.16,9.07,6.21c1.21.82,2.48,1.57,3.74,2.32a10.64,10.64,0,0,0,1.32.63c2.3.94,3.95.4,5.33-1.63q5.46-8,11-16a5.72,5.72,0,0,1,.68-.86c.88-.89,1.51-1,2.33-.06a23,23,0,0,0,5.16,3.76c1.55,1,3,2.14,4.53,3.12q5.82,3.66,11.69,7.23a9.46,9.46,0,0,1,3.4,3.25,4.18,4.18,0,0,1-.16,4.84q-5,6.93-10.06,13.76a24.36,24.36,0,0,1-2.45,2.73c-1.14,1.11-1.86,1.18-3.24.29q-8.7-5.58-17.37-11.22c-1.95-1.27-3.87-2.57-5.82-3.84A4.19,4.19,0,0,0,549.51,563.71Z"/></g><g id="Group_34504" data-name="Group 34504"><path id="Path_30060" data-name="Path 30060" class="cls-1" d="M169.35,268.74c-1.49,2-2.84,3.76-4.07,5.57-.79,1.16-1.43,2.42-2.13,3.64-1.52,2.65-2.9,5.39-4.58,7.93-2.09,3.15-2.75,3.4-6.21,2a53.05,53.05,0,0,1-7.29-3.79c-3.48-2-6.86-4.23-10.31-6.32-2.62-1.58-5.27-3.09-7.9-4.63-1.36-.8-1.63-1.68-.8-3.26,1-1.9,2.08-3.74,3.16-5.58q4.09-7,8.22-13.88a5.51,5.51,0,0,1,.89-1.16,1.15,1.15,0,0,1,1.5-.16c1.51.91,3,1.79,4.56,2.69,3.2,1.91,6.38,3.85,9.6,5.73,2.95,1.73,5.94,3.39,8.89,5.12,1.68,1,3.31,2.07,5,3.1.25.15.53.26.9.45.43-.67.82-1.27,1.2-1.88q4.77-7.39,9.52-14.8c.7-1.08,1.29-2.23,2-3.28s1.45-1.23,2.36-.28a39.31,39.31,0,0,0,8.24,6.09c4.07,2.47,8.2,4.85,12.3,7.27,1.47.86,3,1.63,4.41,2.6,2.1,1.46,2.52,3.28,1.11,5.37-1.18,1.77-2.7,3.3-4,5-.62.81-1.08,1.75-1.64,2.6-1.55,2.34-3.09,4.69-4.68,7a29.54,29.54,0,0,1-2.1,2.5,1.9,1.9,0,0,1-2.49.44c-2-1-3.9-2-5.8-3.13q-6.28-3.61-12.5-7.31a23.42,23.42,0,0,1-5.86-4.36A12.11,12.11,0,0,0,169.35,268.74Z"/></g><g id="Group_34505" data-name="Group 34505"><path id="Path_30061" data-name="Path 30061" class="cls-1" d="M456.87,456.23a3.62,3.62,0,0,1-.13-1.09c.75-3,1.44-5.94,2.36-8.85.82-2.6,2.78-4.38,4.87-6.05,3.71-3,8-4.87,12.29-6.86,6.08-2.86,12.29-5.45,18.39-8.28,9.59-4.46,19.36-8.5,29.18-12.42,4.88-1.94,9.8-3.8,14.69-5.72,5.06-2,10.1-4,15.18-6,5.88-2.26,11.82-4.34,17.67-6.67,7.32-2.91,14.56-6,21.87-9,4.93-2,9.93-3.82,14.86-5.81,2.65-1.07,5.21-2.36,7.84-3.49,2.13-.91,4.3-1.75,6.47-2.57a1,1,0,0,1,1.29.44.92.92,0,0,1,.1.54,5.19,5.19,0,0,1-.44,2.3c-1.07,2.12-2.21,4.22-3.47,6.23a6.71,6.71,0,0,1-3.6,2.68c-2.93,1.06-5.79,2.31-8.66,3.52-7.73,3.23-15.42,6.54-23.17,9.71s-15.53,6.24-23.31,9.34-15.68,6.22-23.52,9.31c-4.16,1.63-8.37,3.1-12.5,4.78-6.4,2.61-12.74,5.32-19.1,8q-3.21,1.35-6.39,2.77-13,5.87-26.06,11.77c-2.39,1.09-4.77,2.23-7,3.55a47.42,47.42,0,0,0-5.73,4,11.87,11.87,0,0,0-1.94,2.62C458.43,455.61,458.14,456.44,456.87,456.23Z"/></g><g id="Group_34506" data-name="Group 34506"><path id="Path_30062" data-name="Path 30062" class="cls-1" d="M658.92,208a8.53,8.53,0,0,1-.34,2.3c-1.9,3.82-3.45,7.86-6.39,11.07a20.57,20.57,0,0,1-3.27,2.91c-2.58,1.85-5.21,3.64-7.88,5.34a51.46,51.46,0,0,1-17,6.54,48.6,48.6,0,0,0-4.79,1.2,41.91,41.91,0,0,1-8.43,1.72c-2.73.32-5.44.83-8.18,1.1-3.58.35-7.18.57-10.77.79-1.46.09-2.93.1-4.4.08A95.94,95.94,0,0,1,566,237.83c-2.85-.71-5.7-1.35-8.57-2-1.11-.25-1.45,0-1.54,1.15a11.46,11.46,0,0,0,.07,2.19,36,36,0,0,1-.87,13.82c-1.46,5.24-2.77,10.52-4.28,15.74a41.17,41.17,0,0,1-2.35,5.56,8.15,8.15,0,0,1-1.25,1.56,2,2,0,0,1-.19-2c1-4.74,1.92-9.47,2.86-14.2.84-4.27.24-8.52-.2-12.78a45.08,45.08,0,0,0-2.22-8.86,19.58,19.58,0,0,0-2.09-4c-.85-1.42-1.78-2.78-2.74-4.11a18.19,18.19,0,0,0-6.27-5.22c-1.74-.94-1.89-1.27-1.4-3.24.28-1.13.69-2.22,1-3.32a7.68,7.68,0,0,0,.56-1.92,7.1,7.1,0,0,1,1.74-3.77,1.61,1.61,0,0,1,2.17-.71l.22.13c2.62,1.64,5.75,2.69,7.47,5.46,2.14,3.42,5.68,4.45,9.07,5.77,5.72,2.23,11.75,3.3,17.76,4.38,4.32.77,8.67,1.51,13,1.88a101,101,0,0,0,10.44-.06c5.7-.11,11.29-1.18,16.93-1.86a40,40,0,0,0,9.12-2,13.54,13.54,0,0,1,2.65-.74A69.33,69.33,0,0,0,639,221.41a48.65,48.65,0,0,0,9.71-5.11c1.51-.94,3-1.92,4.42-3a13.18,13.18,0,0,0,1.69-1.65c1-1,1.89-2.08,2.86-3.09A5.5,5.5,0,0,1,658.92,208Z"/></g><g id="Group_34507" data-name="Group 34507"><path id="Path_30063" data-name="Path 30063" class="cls-1" d="M232.92,451.59a4.56,4.56,0,0,1-.27-1.16,6.77,6.77,0,0,1,.29-1.79q1.51-4.62,3.09-9.21a6.46,6.46,0,0,1,3-3.56c3.41-1.91,6.8-3.86,10.27-5.65,3.26-1.67,6.6-3.2,9.95-4.69,4.18-1.86,8.44-3.56,12.62-5.44,3.84-1.72,7.61-3.62,11.45-5.36s7.82-3.44,11.74-5.14l14.12-6.16q8-3.49,15.92-7c2.18-1,4.31-2,6.49-3,4.14-1.82,8.3-3.58,12.44-5.41,5.75-2.54,11.49-5.12,17.24-7.67,5.52-2.46,11.06-4.88,16.57-7.37,1.39-.62,2.68-1.44,4-2.16.43-.23.86-.47,1.3-.68,2.33-1.08,4.65-2.17,7-3.2a1.75,1.75,0,0,1,1.33-.05c.22.11.22.75.24,1.16a1.58,1.58,0,0,1-.18.7c-1.32,2.69-2.59,5.4-4,8a4.35,4.35,0,0,1-1.86,1.67c-4.5,2.21-9,4.35-13.56,6.47-3.38,1.57-6.8,3-10.16,4.64s-6.9,3.41-10.36,5.08c-1.42.69-2.88,1.32-4.34,1.92-2.65,1.1-5.34,2.11-8,3.26-5.36,2.36-10.69,4.8-16,7.19-4.8,2.14-9.61,4.24-14.4,6.38-3.85,1.72-7.67,3.5-11.54,5.18-2.57,1.13-5.2,2.12-7.78,3.21a11.71,11.71,0,0,0-1.7,1,22.18,22.18,0,0,1-2.73,1.8c-4,1.84-8,3.62-12.05,5.37-4.7,2-9.44,4-14.14,6.08-4,1.76-8.09,3.47-12,5.4-3,1.44-5.77,3.18-8.64,4.81a8.92,8.92,0,0,0-3.59,3.81,11.18,11.18,0,0,1-1.25,1.67Z"/></g><g id="Group_34508" data-name="Group 34508"><path id="Path_30064" data-name="Path 30064" class="cls-1" d="M276.45,231.6c-.53.65-1,1.18-1.43,1.75a65.17,65.17,0,0,1-10.26,11.43c-3.13,2.69-6.27,5.47-10.22,7A14.39,14.39,0,0,1,247,253c-2.59-.39-4.48-1.75-5.08-4.36a41.81,41.81,0,0,1-.74-5.8c-.18-2.07-.23-4.14-.37-6.21a7.82,7.82,0,0,0-.29-1.44c-.89-3.3-2.4-4.59-5.78-4.93a20.13,20.13,0,0,0-10.38,1.7A67.17,67.17,0,0,0,207.64,242c-.44.38-.93.69-1.51,1.11a3.71,3.71,0,0,1,.83-3.46,55.31,55.31,0,0,1,12.13-13.4c2-1.58,4.12-3.06,6.26-4.47a22.89,22.89,0,0,1,8.8-3.5,15,15,0,0,1,6.89.41,5.15,5.15,0,0,1,3.34,3.42,20.51,20.51,0,0,1,1.11,8.11,39.18,39.18,0,0,0,.2,6,5,5,0,0,0,5,4.52,16.58,16.58,0,0,0,9.9-2.8,50.75,50.75,0,0,0,10.87-8.94c1.11-1.24,1-1.2,0-2.56-1.62-2.07-3.21-4.16-4.7-6.32a7.48,7.48,0,0,1-1.12-4.92,14.27,14.27,0,0,1,.65-3.6c1.32-3.8,2.52-7.66,4.59-11.16,2.82-4.77,7.13-7.26,12.45-8.14a8.87,8.87,0,0,1,3.44.23,5.36,5.36,0,0,1,4.06,3.85,13.66,13.66,0,0,1,.2,6c-.94,6.4-3.52,12.18-6.76,17.7-.76,1.3-.79,1.47.24,2.53,2.58,2.69,5.16,5.37,7.78,8a2,2,0,0,1,.63,2,23.82,23.82,0,0,1-3.94,9c-.87,1.19-1.3,1.22-2.35.2-1.44-1.41-2.83-2.87-4.22-4.33-1.56-1.63-3.09-3.31-4.65-4.94A13.33,13.33,0,0,0,276.45,231.6Zm3.7-13c.68-1,1.17-1.59,1.55-2.26.82-1.43,1.51-2.95,2.39-4.33,1.2-1.87.93-3.72.22-5.62a3.37,3.37,0,0,0-2.23-2,9.18,9.18,0,0,0-8.95,2.35,2.12,2.12,0,0,0-.24,3h0a34.44,34.44,0,0,0,2.57,3.78c1.4,1.68,2.94,3.24,4.68,5.12Z"/></g><g id="Group_34509" data-name="Group 34509"><path id="Path_30065" data-name="Path 30065" class="cls-1" d="M483.87,223c-1.28-1.07-2.39-1.92-3.4-2.88-1.5-1.43-3-2.88-4.37-4.42a5.15,5.15,0,0,1-1.24-3.56,6,6,0,0,1,.09-1.46c1.57-5.54,3.15-11.07,7.16-15.48a12.51,12.51,0,0,1,5.47-3.54c.58-.19,1.17-.37,1.75-.57,4.37-1.5,8.1.89,8.76,5.52a18.09,18.09,0,0,1-.65,8.33c-1,3.07-2.23,6.08-3.41,9.09-.54,1.39-.63,1.4.56,2.26,2.62,1.89,5.29,3.72,7.91,5.61.74.53,1.4,1.17,2.12,1.74a21.69,21.69,0,0,0,2.18,1.63c1.48.92,1.94,1.69,1.28,3.35a67.7,67.7,0,0,1-3.19,6.79c-1.38,2.6-2.1,2.7-4.19.63-2.24-2.22-5-3.74-7.49-5.55-1.34-1-2.65-2-4-2.95s-1.6-1-2.64.4c-2.52,3.3-5,6.62-7.63,9.84a32.57,32.57,0,0,1-3.77,3.75c-2.79,2.46-5.34,5.22-8.62,7.1-1.21.7-2.5,1.28-3.72,2-3.27,1.85-8.31-.55-9.14-4.6a44.5,44.5,0,0,1-.58-9.5,19.89,19.89,0,0,0-.88-6.51c-1.33-3.95-2.9-4.84-6.91-3.88a18.39,18.39,0,0,0-8.1,4.49c-2.75,2.51-5.37,5.17-8.06,7.75-.54.52-1.12,1-1.69,1.49l-.43-.2a6.41,6.41,0,0,1,.16-1.85,36.61,36.61,0,0,1,2.27-5,61.84,61.84,0,0,1,13.28-16,15.75,15.75,0,0,1,7.63-3.37c2.57-.44,4.42.65,5.51,3.23a23.27,23.27,0,0,1,1.66,10.41,62.11,62.11,0,0,0,0,6.4c.25,4.54,4.9,6.33,8.34,4.71a30.57,30.57,0,0,0,7.11-4.48q3.06-2.64,6.07-5.31A33.83,33.83,0,0,0,483.87,223Zm6.7-10c.43-1,.78-1.79,1.14-2.6,1.25-2.74.27-5-1.63-7a3.83,3.83,0,0,0-2-1.05,6.52,6.52,0,0,0-4.86,1.15c-1.3.91-1.38,1.5-.24,2.59,1.4,1.35,2.89,2.6,4.34,3.9l3.29,3Z"/></g><g id="Group_34510" data-name="Group 34510"><path id="Path_30066" data-name="Path 30066" class="cls-1" d="M202.59,380.05c-.3.65-.63,1.29-.88,1.95-.59,1.54-1.06,3.13-1.72,4.64a16.76,16.76,0,0,1-7.57,8.42,6.26,6.26,0,0,1-3.56.61c-4.76-.35-7.24-2.37-8.63-6a32.27,32.27,0,0,1-2.2-11.45,27.48,27.48,0,0,0-.68-7.83,6,6,0,0,0-1.47-2.68,2.28,2.28,0,0,1-.64-1.77c.64-3,1.41-6,2.17-9.05a3.86,3.86,0,0,1,.57-1.15c.51-.78,1-.91,1.6-.22a8.32,8.32,0,0,1,1.46,2.49,21.74,21.74,0,0,1,.94,8.7c-.27,3.74.64,7.27,1.67,10.81,1.86,6.42,10,7.23,13.58,3.84.36-.33.74-.63,1.11-.95a6.25,6.25,0,0,0,2.28-6,44.82,44.82,0,0,0-3.87-13.51,6,6,0,0,1-.42-4.42c.53-1.88.92-3.8,1.45-5.67a9,9,0,0,1,1-2.15c.3-.48.75-1.08,1.23-1.19.73-.17.87.68,1.15,1.2a43.55,43.55,0,0,1,4.5,13.88,23.75,23.75,0,0,0,3.05,8.79,10.86,10.86,0,0,0,6,4.8,6.24,6.24,0,0,0,4.81-.42c1.6-.79,1.72-1.11.92-2.68q-2-4-4.1-8a30.53,30.53,0,0,1-3.38-10.6,5,5,0,0,1,0-1.64c.72-2.84,1.44-5.67,2.29-8.47.25-.81.57-2,1.69-1.9s1,1.36,1.15,2.21a50.81,50.81,0,0,0,4.58,12.15c.81,1.64,1.71,3.24,2.51,4.89a12.85,12.85,0,0,1,1.14,8.74c-1,4.34-1.86,8.75-4.12,12.68a7.35,7.35,0,0,1-1.93,2.39,19.88,19.88,0,0,1-5.23,2.91c-2.53.77-5-.1-7-1.74a13,13,0,0,1-4-4.9c-.26-.6-.6-1.17-.9-1.75Z"/></g><g id="Group_34511" data-name="Group 34511"><path id="Path_30067" data-name="Path 30067" class="cls-1" d="M133.78,426.14a17,17,0,0,1-.82,2.4c-2.53,5-5.06,10-7.69,15a19.82,19.82,0,0,1-2.44,3.19c-.74.9-1.58.94-2.76.65-3.51-.87-6.44-2.92-9.63-4.42-3.92-1.84-7.82-3.73-11.72-5.62q-3.61-1.75-7.22-3.57c-1.51-.76-1.89-1.84-1.13-3.51,1.58-3.45,3.21-6.86,4.85-10.27,1.54-3.19,3.11-6.36,4.67-9.54.19-.38.36-.78.56-1.15.79-1.43,1.19-1.53,2.62-.85,3.47,1.65,7,3.24,10.44,4.9,4.4,2.12,8.78,4.28,13.16,6.42,1.37.68,2.75,1.34,4.09,2.07A5.13,5.13,0,0,1,133.78,426.14Z"/></g><g id="Group_34512" data-name="Group 34512"><path id="Path_30068" data-name="Path 30068" class="cls-1" d="M307.3,366.46c-.56-.77-.85-1.24-1.2-1.65a25.67,25.67,0,0,0-5.61-4.68,5.74,5.74,0,0,0-4.76-.62c-1.24.29-1.64.93-1.76,2.23-.47,5.29-.86,10.6-1.47,15.87-.79,6.76-2.67,13.29-4.44,19.84-.6,2.18-1.37,4.31-2.13,6.44a18.13,18.13,0,0,1-1.29,2.37,13.52,13.52,0,0,1-1-1.55c-1.07-2.4-2.08-4.83-3.18-7.21a73.71,73.71,0,0,0-8.23-13.83,9.33,9.33,0,0,0-3.41-3c-.41.55-.8,1.07-1.18,1.6a1.25,1.25,0,0,1-1.55.65c-4.26-1.64-8.71-2.88-12.3-5.94a3,3,0,0,1-1.19-3.23,74.84,74.84,0,0,1,2.92-9c1.6-3.63,4.63-4.58,8.35-3.1,2.72,1.07,4.9,3,7.2,4.68a35.38,35.38,0,0,1,10.18,12.56,92.16,92.16,0,0,1,5,10.6c.07.2.29.34.69.8a16.32,16.32,0,0,0,.53-2.3c.49-5.66.93-11.33,1.42-17a41.08,41.08,0,0,1,.76-6.54c.93-3.66,2.15-7.25,3.35-10.83a12.91,12.91,0,0,1,1.55-2.91,7.93,7.93,0,0,1,11-2.33l.4.28c2,1.42,4.07,2.71,5.38,4.89a3.47,3.47,0,0,1,.67,3.1c-1,2.56-2,5.12-3,7.65A13.35,13.35,0,0,1,307.3,366.46Z"/></g><g id="Group_34513" data-name="Group 34513"><path id="Path_30069" data-name="Path 30069" class="cls-1" d="M370.55,551.52a6.26,6.26,0,0,1-.93,1.63,56.64,56.64,0,0,0-7.78,10.8c-1.37,2.33-3.44,4.26-5.24,6.32a1.77,1.77,0,0,1-2,.39,19.44,19.44,0,0,1-5.72-2.82,64.4,64.4,0,0,0-5.44-3.71c-4.11-2.64-8.25-5.23-12.39-7.82a9.9,9.9,0,0,0-1.64-.79c-2-.81-2.58-2.22-1.46-4,1.31-2.13,2.7-4.22,4-6.33,2.67-4.15,5.37-8.29,8-12.46,1.11-1.74,1.71-2,3.57-.93a112.93,112.93,0,0,1,9.86,5.93c2.76,1.91,5.73,3.5,8.54,5.32,2.46,1.6,4.84,3.3,7.22,5A3.54,3.54,0,0,1,370.55,551.52Z"/></g><g id="Group_34514" data-name="Group 34514"><path id="Path_30070" data-name="Path 30070" class="cls-1" d="M498.37,415.89c-.72-1.25-1.52-2.47-2.14-3.78a95.55,95.55,0,0,0-11.58-17.78,22,22,0,0,0-2.17-2.25,10.91,10.91,0,0,0-1.47-1c-.62,1-1.14,1.92-1.68,2.79-1,1.59-1.22,1.61-2.92.74s-3.43-1.6-5.11-2.46a31.84,31.84,0,0,1-3.78-2.24,3.73,3.73,0,0,1-1.6-4.19,46.5,46.5,0,0,1,3.49-9.82,4.82,4.82,0,0,1,5.29-2.73c3.72.43,6.84,2.17,9.8,4.28a36.13,36.13,0,0,1,8.89,9.91q2.61,4,5.06,8.08c.81,1.36,1.43,2.83,2.15,4.24a11.12,11.12,0,0,0,.83,1.2,18.33,18.33,0,0,0,.63-2.31c.63-4.73,1.08-9.48,1.86-14.18a66.16,66.16,0,0,1,2.33-9.6c1.06-3.3,1.95-6.71,3.87-9.68a15.23,15.23,0,0,1,1.76-2.32,4,4,0,0,1,4-1.14,18.17,18.17,0,0,1,9.64,6,3.07,3.07,0,0,1,.79,3.22c-.87,2.27-1.78,4.54-2.71,6.79a6.88,6.88,0,0,1-1,1.54c-.81,1-1.25,1.08-2.21.12a22.74,22.74,0,0,0-5.88-4.34,14.52,14.52,0,0,0-2.91-1.07c-1.66-.42-2.42.11-2.66,1.83-.35,2.54-.58,5.1-.95,7.64-1,6.9-1.83,13.83-4.1,20.47-1.17,3.41-2.49,6.76-3.8,10.12a11.88,11.88,0,0,1-1.2,1.92Z"/></g><g id="Group_34515" data-name="Group 34515"><path id="Path_30071" data-name="Path 30071" class="cls-1" d="M149.82,350a4.77,4.77,0,0,1-.37,1.18c-1.39,2.37-2.76,4.75-4.28,7a5.31,5.31,0,0,1-2.1,1.71q-6.06,3-12.21,5.88c-2.6,1.2-5.3,2.2-7.92,3.39-7.28,3.32-14.56,6.63-21.8,10-4.52,2.14-9,4.33-13.43,6.73-4.81,2.64-9.49,5.54-14.21,8.35a9.48,9.48,0,0,0-4.17,4.23A3.53,3.53,0,0,1,68.21,400a1.84,1.84,0,0,1-1.48.22c-.3-.12-.5-.78-.55-1.22a3.88,3.88,0,0,1,.25-1.43c.78-2.38,1.49-4.79,2.39-7.12,1.28-3.29,3.94-5.38,6.8-7.2,1.86-1.17,3.78-2.24,5.72-3.28,5.76-3.08,11.52-6.16,17.33-9.14,3-1.56,6.18-2.95,9.3-4.35,6.35-2.86,12.62-5.93,19.1-8.45a195.51,195.51,0,0,0,18.07-8c.87-.44,1.7-1,2.55-1.44C149,347.86,149.87,348.39,149.82,350Z"/></g><g id="Group_34516" data-name="Group 34516"><path id="Path_30072" data-name="Path 30072" class="cls-1" d="M58.74,256.94a25.54,25.54,0,0,1,.31-3c1-4.3,2.05-8.56,2.94-12.87.55-2.69.84-5.43,1.21-8.16a20.17,20.17,0,0,0-1.17-9c-.51-1.57-.89-3.2-1.54-4.7a24.06,24.06,0,0,0-9.36-11c-1.18-.75-2.24-1.69-3.35-2.54A2.17,2.17,0,0,1,47,203.2a5.4,5.4,0,0,1,.13-.72q1.47-3.85,3-7.68a4,4,0,0,1,.7-1.07c.76-.9,1.24-.95,2.19-.27,1.69,1.2,3.34,2.45,5.06,3.61a23.86,23.86,0,0,1,8.3,10.06c2.27,4.92,4,10.06,3.36,15.58a56,56,0,0,1-1.79,9c-2.1,7.34-4.39,14.64-6.63,21.94a17.27,17.27,0,0,1-1.15,2.69c-.17.33-.55.55-.83.82Z"/></g><g id="Group_34517" data-name="Group 34517"><path id="Path_30073" data-name="Path 30073" class="cls-1" d="M300.92,460.79a74.9,74.9,0,0,1,4.21-21.09,88.67,88.67,0,0,1,5.17-12.52,22.19,22.19,0,0,1,2.53-3.57,2.79,2.79,0,0,1,1.2-.8c.71-.27,1.28.16,1.15.9a10.71,10.71,0,0,1-.69,2.07c-1.75,4.63-3.54,9.24-5.24,13.88a34.52,34.52,0,0,0-2.14,12.4c.05,4,1.35,7.63,4.81,10a13.65,13.65,0,0,0,4.2,1.68c1.31.34,1.93-.26,2.06-1.6a3.54,3.54,0,0,0,0-.92,12.58,12.58,0,0,1,1.36-7.1c.69-1.55,1.21-3.19,1.95-4.72.38-.78.86-1.84,2-1.63s1,1.42,1,2.28a26.32,26.32,0,0,1-1.4,9.92,53.07,53.07,0,0,1-5.73,12.85,6.21,6.21,0,0,1-7.12,2.72,10.87,10.87,0,0,1-7.59-6.57C301.34,466,300.43,463,300.92,460.79Z"/></g><g id="Group_34518" data-name="Group 34518"><path id="Path_30074" data-name="Path 30074" class="cls-1" d="M541.24,427.7c.73.79.36,1.42.08,2-.45.93-1,1.82-1.46,2.75-3.09,6.26-5.83,12.68-7.2,19.54a14.56,14.56,0,0,0,2.66,12,8.64,8.64,0,0,0,7.87,3.49c1.61-.12,1.67-.28,1.77-1.9a2.59,2.59,0,0,1,.07-.73c1.06-3.11,1.81-6.34,3.61-9.16a3.5,3.5,0,0,1,.55-.73.92.92,0,0,1,1.67.44,3.93,3.93,0,0,1,.12,1.45,38.52,38.52,0,0,1-.62,4.53,53.35,53.35,0,0,1-4.5,12.56c-.39.76-.86,1.47-1.3,2.21-2,3.32-4.91,4-8.74,3.2-4.7-1-7.19-4.46-8.5-8.76a23.26,23.26,0,0,1-.56-11.39,93.8,93.8,0,0,1,8.32-23.79,31.87,31.87,0,0,1,5.47-7.32A2.93,2.93,0,0,1,541.24,427.7Z"/></g><g id="Group_34519" data-name="Group 34519"><path id="Path_30075" data-name="Path 30075" class="cls-1" d="M154.76,198.17c-.46,1-.88,2-1.38,2.92q-3.15,6.09-6.34,12.19a20.68,20.68,0,0,0-2,12.28c.52,4.38,3.44,6.74,7.31,8a5,5,0,0,0,3.18-.39,8.34,8.34,0,0,0,4.55-4.54,18.39,18.39,0,0,1,1.77-3.19c.26-.39,1-.84,1.3-.7a2.26,2.26,0,0,1,.92,1.39,3.51,3.51,0,0,1-.16,1.61c-1.36,5.23-3.54,10-7.52,13.8a46.17,46.17,0,0,1-3.65,3,5.75,5.75,0,0,1-7.13.37c-.61-.39-1.34-.62-1.92-1.06a8.58,8.58,0,0,1-2.26-2.07,17.26,17.26,0,0,1-2.7-8.62,40.12,40.12,0,0,1,3.56-16.89c1.26-3,2.15-6.26,4.13-9,1.8-2.47,3.6-4.94,5.48-7.34a19.55,19.55,0,0,1,2.34-2.21Z"/></g></g><g id="Group_34544" data-name="Group 34544"><g id="Group_34521" data-name="Group 34521"><path id="Path_30076" data-name="Path 30076" class="cls-2" d="M410.09,328.27a15.16,15.16,0,0,0,.27-2c0-1.71-.1-3.42-.14-5.13-.05-2.08,0-4.15-.12-6.23-.11-2.56-.2-5.13-.48-7.68-.39-3.7-1-7.37-1.4-11.07-.37-3.89-.5-7.8-.78-11.69q-.36-5-.83-10c-.19-2.12-.41-4.24-.69-6.36-.51-3.87-.93-7.75-1.63-11.59-1-5.71-2.31-11.37-3.41-17.06a8.29,8.29,0,0,0-3.11-5.23,2.59,2.59,0,0,1-.9-3.39c1.07-2.73,2.1-5.48,3.3-8.16,1.79-3.95,3.73-7.84,5.56-11.77,1.23-2.62,2-2.74,3.73-.37a26.23,26.23,0,0,1,3.82,8.67c.55,2,1,4.05,1.43,6.06.6,2.49,1.3,5,1.81,7.47a60.09,60.09,0,0,1,1.3,10.17c.08,2.37.4,4.74.7,7.1A174.78,174.78,0,0,1,420,270c0,2.8.47,5.58.7,8.38.19,2.31.33,4.63.53,6.94.15,1.76.38,3.52.52,5.28.48,5.9,1.06,11.8,1.38,17.71.32,6.1.4,12.21.56,18.31.09,3,.14,3,3.1,3.07s6.12.41,9.16.25c6.21-.34,12.46-.41,18.63-1.47,3.49-.6,7-.84,10.53-1.41s6.84-1.33,10.24-2.06,6.59-1.35,9.81-2.28c4.75-1.37,9.43-3,14.14-4.45,1.74-.56,3.51-1.06,5.23-1.68,3.15-1.15,6.28-2.35,9.41-3.55s6.38-2.46,9.57-3.72c3-1.19,6-2.4,9-3.6,2.72-1.09,5.45-2.17,8.15-3.3q3.54-1.48,7.05-3.09c4-1.86,8.1-3.72,12.11-5.67,3.13-1.52,6.17-3.24,9.31-4.73,7.79-3.69,15.61-7.36,24.08-9.25a59.24,59.24,0,0,1,10.68-1.52c5.43-.18,9.47,2.56,12.07,7.23.67,1.2.63,2.82.84,4.26a12.53,12.53,0,0,1-1.2,7.3c-1.79,3.82-3.53,7.66-5.5,11.39a54.41,54.41,0,0,1-3.8,5.59,27.2,27.2,0,0,1-1.7,2.15,25,25,0,0,1-1.9,1.95c-2.24,2.09-4.53,4.1-6.74,6.22-3.34,3.22-6.64,6.5-10,9.75-3.14,3.08-6.33,6.1-9.39,9.26a56.8,56.8,0,0,0-7.86,10.33c-2.79,4.67-5.93,9.12-9,13.63-.54.82-1.09,1.79-2.62,1.76a12,12,0,0,1,.51-2.13c1.61-3.63,3.12-7.32,5-10.83,2.89-5.52,5.85-11,9.1-16.33a69.35,69.35,0,0,1,6.86-9c3.56-4.11,7.26-8.11,11.06-12,2.77-2.84,5.8-5.43,8.72-8.12.9-.83,1.85-1.61,2.68-2.5s.81-1.43-.07-2.2a11.62,11.62,0,0,0-2.83-2,14.26,14.26,0,0,0-7.51-1.22,69.85,69.85,0,0,0-22.39,6.66c-2.86,1.38-5.77,2.66-8.6,4.1-5.29,2.68-10.49,5.53-15.81,8.14-4.66,2.29-9.42,4.35-14.14,6.51l-8,3.63c-.44.2-.88.42-1.34.6-3.18,1.23-6.39,2.42-9.56,3.69s-6.51,2.78-9.8,4.06c-3.58,1.39-7.2,2.68-10.84,3.92-4.1,1.4-8.2,2.79-12.36,4-2.51.74-5.11,1.2-7.67,1.76-5.72,1.26-11.44,2.55-17.18,3.74-2,.42-4.1.56-6.16.86-3.44.51-6.91.89-10.31,1.61a39.46,39.46,0,0,1-7.83.6c-1,0-1.95.07-2.92.13a1.23,1.23,0,0,0-1.34,1.13.82.82,0,0,0,0,.27c0,5.25,0,10.5.07,15.75,0,3.6.1,7.21.19,10.81.1,4,.24,8.06.34,12.1.15,5.55.16,11.12.43,16.67.34,6.65.89,13.29,1.35,19.93.07,1,.2,2.07.25,3.11a69.9,69.9,0,0,0,2.13,12.44,6.83,6.83,0,0,1,.28,1.25c.2,4.6,2.13,8.62,4.15,12.62,1.18,2.34,2.3,4.72,3.57,7a29.68,29.68,0,0,0,5.56,7.47c1.52,1.4,2.9,3,4.42,4.36,4.84,4.51,10.74,7.13,16.84,9.44a103.5,103.5,0,0,0,19.29,5,89.28,89.28,0,0,0,13.86,1.16c3,0,6.1.27,9.14.14,5.24-.23,10.47-.62,15.7-1.05,3.34-.27,6.68-.72,10-1.14a194.39,194.39,0,0,0,20.76-3.41c9.22-2.2,18.28-5,27.3-7.88,4.72-1.52,9.09-3.91,13.58-6a44.63,44.63,0,0,0,8.76-5.3c2.42-1.89,2.41-2,1.1-4.84a49.76,49.76,0,0,0-6-9,71.41,71.41,0,0,0-8.84-9.79,3.78,3.78,0,0,1-1.24-4.11c1.45-5.56,2.83-11.14,4.33-16.69a32.56,32.56,0,0,1,1.82-4.79c.79-1.76,2-2,3.27-.6,2.57,2.77,5.1,5.6,7.5,8.52,1.81,2.22,3.47,4.58,5.06,7a22.62,22.62,0,0,1,3.73,8.11c.3,1.5.7,3,1,4.48a26.8,26.8,0,0,1,.09,10,13.6,13.6,0,0,0-.15,2c-.14,6.24-1.76,12.18-3.66,18.06a5.22,5.22,0,0,0-.29.87c-.67,3.56-2.68,6.47-4.93,9.09a73.69,73.69,0,0,1-7.41,7,27.76,27.76,0,0,1-4.58,3.33c-2.7,1.53-5.54,2.84-8.3,4.27-7.42,3.87-15.4,6.21-23.34,8.68A185.7,185.7,0,0,1,538,519.9c-3.12.53-6.28.82-9.42,1.26-1.34.18-2.66.4-4,.67a114.8,114.8,0,0,1-16.95,1.7c-3.41.16-6.83.14-10.24.24-2.63.08-5.25.39-7.87.3a62.07,62.07,0,0,1-12-1.11,162.57,162.57,0,0,1-19.73-5.63,77.5,77.5,0,0,1-10.68-4.81,59.84,59.84,0,0,1-16.05-13.19,27.1,27.1,0,0,1-3.75-5.16c-.88-1.66-2.27-3.05-3.09-4.73-1.25-2.57-2.26-5.27-3.26-7.95-1.07-2.86-2-5.77-3-8.66a17.27,17.27,0,0,1-.75-2.64c-.68-4.09-1.29-8.2-2-12.29-.59-3.55-1.28-7.09-1.82-10.64-.32-2.11-.51-4.25-.64-6.38-.22-3.6-.32-7.21-.52-10.8-.12-2.14-.42-4.26-.5-6.39-.22-5.62-.42-11.24-.53-16.86-.07-4,0-7.95,0-11.92,0-8.37,0-16.74,0-25.11,0-4.7-.2-9.41-.31-14.11,0-.31-.07-.62-.13-.93-1.35-.8-2.86-.62-4.29-.75a69.79,69.79,0,0,1-22-5.5c-2.35-1-4.73-2-7.08-3a8,8,0,0,1-1.78-.94A88.22,88.22,0,0,1,363,333.22c-2.23-2.54-3.56-5.54-5.09-8.45a28.53,28.53,0,0,1-3.13-8.58c-.26-1.56-.62-3.11-.76-4.69-.28-3.1-.49-6.2-.61-9.31A43.18,43.18,0,0,1,355.38,289c.67-2.41,1.24-4.85,2-7.23a115.94,115.94,0,0,1,7-17.7c2.23-4.35,4.38-8.75,6.8-13s5-8.1,7.58-12.14c.2-.3.41-.6.64-.89,1-1.27,1.48-1.44,2.4-.91a2.72,2.72,0,0,1,1.48,3.21,6,6,0,0,1-.6,1.12c-2,3.22-4.14,6.36-6,9.66a57.14,57.14,0,0,0-2.67,6.42c-.39,1-.66,2-1.13,2.9a32.47,32.47,0,0,0-3,10.32,12.27,12.27,0,0,1-.86,3c-1,2.5-2.09,5-1.7,7.78a9.37,9.37,0,0,1-.28,2.18c-.1,1-.19,1.95-.2,2.92a33.67,33.67,0,0,0,.06,4.92c.57,4.31.66,8.6,2.9,12.7,2.76,5,6.62,8.84,10.8,12.52a33.4,33.4,0,0,0,9.11,5.34,75.59,75.59,0,0,0,14.19,4.9C405.85,327.47,407.88,327.83,410.09,328.27Z"/></g><g id="Group_34522" data-name="Group 34522"><path id="Path_30077" data-name="Path 30077" class="cls-3" d="M197.53,479.28a2.18,2.18,0,0,0-.29.64c-.44,4.57-2.35,8.7-3.82,13,0,.12-.1.23-.13.34-.36,1.29-.36,2.84-1.11,3.83-2.49,3.29-4.72,6.86-8.09,9.38a44.19,44.19,0,0,1-13.74,6.78,37.05,37.05,0,0,1-8.11,1.21,26.53,26.53,0,0,1-8-.41c-7.09-1.61-12.7-5.29-16.23-11.78-1-1.82-1.76-3.76-2.63-5.64-.18-.38-.34-.77-.55-1.24a3,3,0,0,0-.88.31,31.39,31.39,0,0,0-6.73,6.44l-.1.15a102.67,102.67,0,0,1-9.82,10.61,54,54,0,0,1-6.84,5.2,43.6,43.6,0,0,1-5.95,2.8c-1.17.53-2.36,1-3.55,1.49a27.25,27.25,0,0,1-8,1.77,72.09,72.09,0,0,1-15.19.14A39,39,0,0,1,66,520.37C60.38,517.72,56,513.59,52,509c-3.52-4-5.7-8.81-7.74-13.64a104.16,104.16,0,0,1-4.86-15.52c-.25-1-.3-2.05-.45-3.08-.38-2.48-.84-4.94-1.13-7.43-.45-4-.87-8-1.17-12-.31-4.2-.46-8.41-.67-12.62-.09-1.71-.1-3.42-.23-5.13-.08-1.14-.35-2.27-.46-3.42s-.09-2.07-.1-3.11a39.26,39.26,0,0,0-.63-8.38,21.6,21.6,0,0,1-.22-4c-.08-2.37-.17-4.74-.22-7.12-.07-3.11-.32-6.24-.12-9.33a65.16,65.16,0,0,0-.24-9.88c-.19-2.24,0-4.51-.1-6.76-.08-3.36-.16-6.71-.34-10.06-.17-3-.55-6-.7-8.95-.17-3.42-.14-6.84-.28-10.27-.07-1.82-.4-3.64-.46-5.47-.14-4-.13-8.07-.26-12.1-.17-5.25-.41-10.5-.62-15.75-.13-3.23-.23-6.47-.39-9.7-.22-4.33-.48-8.66-.73-13-.21-3.66-.36-7.32-.63-11-.29-3.9-.7-7.79-1.05-11.68-.2-2.19-.37-4.38-.58-6.57-.13-1.34-.34-2.67-.5-4-.21-1.82-.42-3.64-.61-5.46-.43-4-.84-8-1.27-12-.05-.3-.12-.6-.2-.9-.52-2.44-1.07-4.88-1.58-7.33-.83-4-1.57-8-2.5-12A19.65,19.65,0,0,0,19.34,227a5.28,5.28,0,0,1-.3-4.21c1.88-6.3,4.95-12.1,7.43-18.14.28-.68.53-1.37.81-2,.9-2.18,2.14-2.39,3.57-.47a13.1,13.1,0,0,1,1.6,3.25c1.44,3.92,2,8,2.78,12.14.85,4.63,1.75,9.25,2.51,13.9a69.16,69.16,0,0,1,.82,7.46,65.85,65.85,0,0,0,1.54,9.76c.65,3.16,1,6.39,1.42,9.59.38,2.91.72,5.83,1,8.75.35,3.71.66,7.42.9,11.14q.56,8.7,1,17.4c.29,6.22.55,12.45.72,18.68.08,2.87,0,5.75-.16,8.61a98.87,98.87,0,0,0,.54,13.55c.11,1.52.09,3,.1,4.58,0,3.73,0,7.46.1,11.19.09,3.29.39,6.58.5,9.87.07,2-.14,4-.06,6,.14,3.54.42,7.07.62,10.61.17,3.17.31,6.34.47,9.51.12,2.2.22,4.4.39,6.59.2,2.74.52,5.47.68,8.21.14,2.13.07,4.27.17,6.4.28,5.62.6,11.23.92,16.84.24,4.15.42,8.3.76,12.44.43,5.3,1,10.58,1.49,15.87.4,5,1.62,9.77,2.58,14.62.44,2.27,1.16,4.48,1.8,6.71a19.15,19.15,0,0,0,3.16,6.36C62,486,64.83,489.88,69,492.43a32.25,32.25,0,0,0,16.57,5.22,112.44,112.44,0,0,0,13.35-.83,15.6,15.6,0,0,0,4.07-1,79.28,79.28,0,0,0,8.72-3.8,57.78,57.78,0,0,0,11.37-8.61c4.58-4.17,8-9.23,11.35-14.33,1.48-2.25,3.08-4.41,4.68-6.57a8.62,8.62,0,0,1,1.68-1.68,1.8,1.8,0,0,1,3,.9,1.06,1.06,0,0,1,.13.52c-.52,2.73,1,5.24.82,8a11.21,11.21,0,0,0,.73,4.13c3.15,9.1,10.1,13.83,19.69,13.61a40.75,40.75,0,0,0,14.61-3.09,30.91,30.91,0,0,0,10.83-7,2.39,2.39,0,0,0,.77-2.13c-.48-3.2-.91-6.41-1.42-9.61-1.3-8.12-4.61-15.57-7.93-23-1.84-4.13-4.09-8.07-6.2-12.07a4.22,4.22,0,0,1-.35-3.17,138,138,0,0,1,4.76-16.17c.59-1.53.88-3.18,1.34-4.77.21-.74.33-1.68,1.31-1.79s1.48.68,1.93,1.43c1.33,2.2,2.72,4.35,4,6.56,1,1.73,2,3.51,2.91,5.29A126.63,126.63,0,0,1,199,435c1.25,3.44,2.08,7,3.38,10.45,1.93,5.08,3,10.46,5.63,15.28a30.4,30.4,0,0,0,3.12,5.16c3.09,3.7,6.4,7.21,9.61,10.81a33.07,33.07,0,0,0,7.73,5.83c1.2.73,2.46,1.36,3.64,2.13a30.36,30.36,0,0,0,8.9,3.8c5.53,1.45,11,3.18,16.86,3.14,1.08,0,2.15.44,3.24.54,2.3.21,4.62.33,6.93.48,2.62.18,5.24.36,7.86.51,1.09.07,2.18.13,3.27.1q3.85-.06,7.7-.22c3.65-.16,7.32-.2,11-.59,5.1-.55,10.2-1.16,15.23-2.12,4.44-.84,8.77-2.19,13.15-3.33,4.08-1.07,8.12-2.27,12.23-3.21a77.92,77.92,0,0,0,14-4.82c3.13-1.38,6.24-2.81,9.38-4.17,4.48-1.94,8.31-4.88,12.11-7.86,1.13-.88,1.19-1.18.36-2.5-1.88-3-3.7-6.07-5.86-8.86-2.8-3.62-5.89-7-8.9-10.46a17.51,17.51,0,0,0-2.32-2.07,2.63,2.63,0,0,1-.92-3.1q1.83-6.06,3.7-12.1c.87-2.86,1.77-5.72,2.61-8.6.75-2.55,1.33-2.89,3.34-1.22a49.83,49.83,0,0,1,6,5.86,76.92,76.92,0,0,1,10.74,15.93,32.67,32.67,0,0,1,3.36,13.58c.16,4.47-1.19,8.69-1.9,13a33.38,33.38,0,0,1-2.55,8c-1.56,3.58-3.4,7-5.3,10.45a17.12,17.12,0,0,1-3,3.66,69.82,69.82,0,0,1-5.56,5c-2.35,1.85-4.82,3.55-7.3,5.22a30,30,0,0,1-3.88,2.06c-3.87,1.82-7.7,3.75-11.66,5.34a78.87,78.87,0,0,1-12.72,4.09c-4.83,1.06-9.56,2.56-14.33,3.86-2.64.72-5.25,1.59-7.92,2.11-3.6.7-7.24,1.17-10.86,1.68a156,156,0,0,1-19.55,1.48c-1,0-1.95.21-2.93.18-2.37-.06-4.76-.07-7.12-.36a70.12,70.12,0,0,0-10.24-.51,25.21,25.21,0,0,1-3.47-.26c-3.63-.41-7.28-.77-10.9-1.31-2-.3-4-.9-6.05-1.39-1.37-.33-2.73-.67-4.08-1.07s-2.8-.87-4.18-1.33c-3.33-1.13-6.21-3.11-9.26-4.78a38.62,38.62,0,0,1-11.2-9.05c-3.19-3.77-6.42-7.5-8.67-12a49.35,49.35,0,0,1-3.16-7.18,3.66,3.66,0,0,0-.4-.82C197.86,479.38,197.71,479.36,197.53,479.28Z"/></g><g id="Group_34523" data-name="Group 34523"><path id="Path_30078" data-name="Path 30078" class="cls-4" d="M272.56,348a5.27,5.27,0,0,1,.1-1.19,7.17,7.17,0,0,1,.67-1.5c4-6.94,7.5-14.16,12.32-20.6a83.3,83.3,0,0,1,9-10.12c3-2.87,5.93-5.84,9.07-8.55,2.44-2.12,5.16-3.9,7.76-5.83a8.08,8.08,0,0,0,.88-.66c3.27-3.13,7.08-5.58,10.46-8.57,2-1.78,2.09-2.27.3-4.29-1.45-1.63-3.41-2.05-5.46-2.18a34,34,0,0,0-11.94,1.58,185.7,185.7,0,0,0-27.54,10.55c-5.17,2.48-10.5,4.64-15.77,6.92-4,1.72-8,3.37-12,5.11-2.63,1.15-5.2,2.45-7.83,3.59-2.24,1-4.52,1.84-6.81,2.7-3.54,1.32-7.08,2.65-10.65,3.88-6,2-11.92,4-17.88,6q-5,1.64-9.94,3.2-11.19,3.56-22.63,6.11c-1.94.44-4,.44-5.79,1.59a.89.89,0,0,1-.7.07c-3-.9-6-.29-9.05.17-1.5.22-3,.32-4.54.44-2.73.21-5.47.45-8.21.56-3.41.14-6.83.3-10.24.2-3.66-.11-7.3-.55-10.95-.8A51.58,51.58,0,0,1,113.8,334a84.21,84.21,0,0,1-15.21-6.3A50.57,50.57,0,0,1,89,321a29,29,0,0,1-5.76-6.83c-1.67-2.84-3.68-5.48-5.48-8.24a15,15,0,0,1-1.13-2.48c-.2-.51-.3-1.06-.5-1.57a40.78,40.78,0,0,1-2.38-9.21,36.37,36.37,0,0,0-1-4.1,10.61,10.61,0,0,1-.29-4.72,12.8,12.8,0,0,0,.13-1.64l.45-9.32a3.66,3.66,0,0,1,.1-.73c1.38-4.93,2.67-9.9,4.2-14.78.91-2.91,2.2-5.69,3.32-8.53l1.68-4.25a14.11,14.11,0,0,1,.7-1.7c2-3.62,4.08-7.24,6.17-10.83,1.15-1.95,2.37-3.85,3.61-5.74,1.74-2.66,3.53-5.29,5.31-7.91a4.61,4.61,0,0,1,.88-.94,1.18,1.18,0,0,1,1.65-.15,1.3,1.3,0,0,1,.26.31c1.28,1.53,1.9,2.58.08,4.44-.51.53-1,1-1.59,1.53a8.61,8.61,0,0,0-2.75,4,5,5,0,0,1-.65,1.51,22.07,22.07,0,0,0-2.94,6.68,13.11,13.11,0,0,1-.63,1.72c-2.7,5.77-3.8,12-5,18.16a66.89,66.89,0,0,0-.62,21,31.94,31.94,0,0,0,1.35,5.88,17.1,17.1,0,0,0,1.88,3.13c.86,1.47,1.71,3,2.56,4.44a2.27,2.27,0,0,0,.27.48c2.7,3.06,5.17,6.35,8.78,8.47,1.1.64,2.14,1.41,3.22,2.09a27.22,27.22,0,0,0,3,1.76c3.52,1.55,7,3.21,10.63,4.46s7.28,2.06,11,3a19.94,19.94,0,0,0,3.28.21c3.89.33,7.77.83,11.66,1,3.47.12,6.95-.16,10.43-.29,2.62-.1,5.24-.23,7.87-.37a17.76,17.76,0,0,0,3.08-.3,33.3,33.3,0,0,1,5.44-.6,63,63,0,0,0,6.86-1q3.26-.57,6.47-1.29,3.59-.78,7.12-1.71c2.42-.63,4.81-1.35,7.22-2,4.3-1.17,8.62-2.22,12.8-3.79,2.57-1,5.27-1.54,7.87-2.39s5.19-1.81,7.78-2.71c1.33-.45,2.67-.88,4-1.29a195.29,195.29,0,0,0,23.19-8.56c4.9-2.2,9.92-4.11,14.89-6.14,5.43-2.21,10.89-4.35,16.29-6.64,4.27-1.8,8.42-3.9,12.72-5.64a127.25,127.25,0,0,1,20.5-6.24,28.93,28.93,0,0,1,9.64-.63,9.2,9.2,0,0,1,3.46,1.08,29.83,29.83,0,0,1,4.22,3.2,3.15,3.15,0,0,1,.9,1.74,20.72,20.72,0,0,1-.95,11.19,19.93,19.93,0,0,0-1.71,5.58,4.54,4.54,0,0,1-.71,1.68c-2,3.77-4,7.55-6,11.31a23.4,23.4,0,0,1-4.91,6.56,36.16,36.16,0,0,0-3.47,4.25,7.24,7.24,0,0,1-1,1.06q-3.36,2.83-6.74,5.64-2.06,1.69-4.15,3.31c-2.52,1.94-5.05,3.86-7.57,5.79a107.52,107.52,0,0,0-11.46,9.41c-1.07,1.08-2.18,2.14-3.3,3.18a28.48,28.48,0,0,0-5.27,6.31,11.42,11.42,0,0,1-1.75,2.11c-1.34,1.42-2.72,2.81-4.12,4.18a7.3,7.3,0,0,1-1.12.79Z"/></g><g id="Group_34524" data-name="Group 34524"><path id="Path_30079" data-name="Path 30079" class="cls-5" d="M646.69,290.64a4.39,4.39,0,0,0-1.15,3.75c.25,2.37.57,4.74.87,7.1,1.08,8.67,2.15,17.35,3.27,26,.46,3.57,1.11,7.12,1.55,10.7.66,5.33,1.69,10.61,2.06,16,.25,3.7,1.1,7.37,1.55,11.07.76,6.31,1.4,12.63,2.11,19,.24,2.06.54,4.12.77,6.18.52,4.62,1,9.24,1.52,13.85.39,3.34,1,6.66,1.29,10,.24,2.49.17,5,.34,7.51.26,3.72.66,7.42.9,11.14.16,2.37.15,4.76.22,7.13.08,3.18.19,6.36.24,9.54,0,2.74,0,5.48,0,8.23,0,3.12-.16,6.23-.14,9.35a32.39,32.39,0,0,1-1.05,8.87,22.6,22.6,0,0,0-.39,3.07A94.33,94.33,0,0,1,654.8,501c-1.5,3.8-3.71,7.14-5.53,10.73a5.37,5.37,0,0,1-1.6,1.94c-1.27.89-2.42.24-2.52-1.31a7.86,7.86,0,0,1,.08-1.28c.74-6.18,1.46-12.37,2.23-18.56.82-6.59.14-13.18.13-19.77,0-1.65-.15-3.3-.08-4.95.28-6.56-.84-13-1-19.58-.07-2.87-.25-5.74-.46-8.6q-.39-5.47-.91-10.95c-.46-4.87-.89-9.75-1.47-14.6-1.28-10.68-2.64-21.35-3.95-32-.52-4.24-.93-8.5-1.48-12.74-1.36-10.43-2.78-20.85-4.15-31.27-1.12-8.54-2.27-17.09-3.3-25.64-.46-3.82-.53-7.69-1-11.51-.74-6.37-1.69-12.72-2.47-19.09-.57-4.67-.92-9.36-1.56-14a19.86,19.86,0,0,0-1.57-5.23,4.66,4.66,0,0,1,.1-4.18q3.8-8.25,8.11-16.24c.63-1.17,1.06-2.47,1.64-3.68.66-1.38,1.12-1.44,2.41-.67a4.69,4.69,0,0,1,2,2.78c1.2,3.71,2.34,7.46,3.56,11.17.61,1.85,1.33,3.67,2,5.49q3,7.57,6,15.14c1.23,3,2.59,6,3.76,9.1,1.3,3.42,2.63,6.85,3.6,10.37a11.46,11.46,0,0,1,0,5.08c-.45,2.39-2.26,2.86-4,1.16a11.79,11.79,0,0,1-1.95-2.64,18.32,18.32,0,0,0-3.88-4.36A4,4,0,0,0,646.69,290.64Z"/></g><g id="Group_34525" data-name="Group 34525"><path id="Path_30080" data-name="Path 30080" class="cls-6" d="M438,285.23a16.41,16.41,0,0,1,.69-1.62q5.42-9.57,10.85-19.13c1-1.67,1.27-1.71,3-.71,1.1.65,2.33,1.09,3.42,1.75,4.43,2.7,8.78,5.53,13.25,8.15,2.89,1.69,5.92,3.17,8.94,4.62,1.44.69,1.73.53,2.54-.79q5.29-8.69,10.53-17.4a11.17,11.17,0,0,1,.82-1.21,1.24,1.24,0,0,1,1.73-.28l.06.05q6.54,4.05,13.09,8.08c3,1.82,6,3.6,8.94,5.39,2.15,1.29,4.3,2.57,6.44,3.87,1.52.92,1.88,2,1,3.52a24.31,24.31,0,0,1-2.75,3.64,22.54,22.54,0,0,0-3.34,5,87.16,87.16,0,0,1-5,7.86,19.2,19.2,0,0,1-1.6,2c-1.07,1.26-1.88,1.5-3.38.75s-2.65-1.51-3.95-2.3q-4.47-2.71-8.91-5.45-5.77-3.56-11.51-7.16l-.77-.5a1.2,1.2,0,0,0-1.86.46q-2.72,4.35-5.47,8.68c-1.56,2.47-3,5-4.73,7.4-2,2.68-4.55,3.05-7.4,1.37-4.57-2.71-9.15-5.41-13.69-8.17-1.51-.91-2.88-2.07-4.39-3s-3.2-1.76-4.83-2.6A2.39,2.39,0,0,1,438,285.23Z"/></g><g id="Group_34526" data-name="Group 34526"><path id="Path_30081" data-name="Path 30081" class="cls-7" d="M195.86,555.34c.41-.55.73-.91,1-1.31l8.1-12.66q1.83-2.85,3.71-5.67c1.05-1.57,1.86-1.86,3.27-.63,4.69,4,10.5,6.17,15.71,9.33,2.66,1.61,5.32,3.24,7.92,4.94a14.73,14.73,0,0,1,2.31,2.08,4.55,4.55,0,0,1,1,5.23c-.92,2.34-2.8,4-4.29,5.9-.66.86-1.31,1.74-1.9,2.66-1.56,2.41-3.05,4.86-4.63,7.26a16.92,16.92,0,0,1-1.79,2.08,1.47,1.47,0,0,1-2.06.29l-.06-.05c-7-4.47-14.12-8.74-21.48-12.6a51.12,51.12,0,0,1-4.59-3l-2.23-1.48c-2,2.9-4,5.6-5.78,8.42-1.45,2.26-2.61,4.71-4.07,7a31.74,31.74,0,0,1-3.16,3.79,4.09,4.09,0,0,1-3.12,1.31,9.78,9.78,0,0,1-5.91-1.51c-3.77-2.5-7.62-4.86-11.48-7.21-2.46-1.49-4.94-3-7.51-4.22-1.8-.88-2.35-2-1.1-4.14q5-8.45,9.86-17c.56-.95,1-2,1.56-2.91.92-1.43,1.56-1.36,3-.44,2.24,1.46,4.62,2.7,6.94,4.05,2.59,1.5,5.12,3.11,7.76,4.5,3.6,1.88,6.84,4.58,11.1,5a3,3,0,0,1,1,.36A8.19,8.19,0,0,1,195.86,555.34Z"/></g><g id="Group_34527" data-name="Group 34527"><path id="Path_30082" data-name="Path 30082" class="cls-8" d="M549.51,563.71c-1.19,2.16-2.33,4.31-3.54,6.41-.79,1.37-1.7,2.66-2.51,4a30.21,30.21,0,0,1-5,6,13.33,13.33,0,0,1-2.94,2.12A4.93,4.93,0,0,1,530,582c-4.12-2.62-8.22-5.25-12.12-8.21-1-.73-2.07-1.28-3.1-1.95-1.89-1.23-3.78-2.46-5.64-3.73a16,16,0,0,1-1.52-1.32,2.3,2.3,0,0,1-.52-2.85,22.49,22.49,0,0,1,1.57-2.69c2.61-3.91,5.27-7.8,7.86-11.73.94-1.43,1.74-2.95,2.62-4.42a9.58,9.58,0,0,1,.91-1.37c.84-1,1.29-1,2.33-.31,3,2,6,4.06,8.92,6.09s6,4.16,9.07,6.21c1.21.82,2.48,1.57,3.74,2.32a10.64,10.64,0,0,0,1.32.63c2.3.94,3.95.4,5.33-1.63q5.46-8,11-16a5.72,5.72,0,0,1,.68-.86c.88-.89,1.51-1,2.33-.06a23,23,0,0,0,5.16,3.76c1.55,1,3,2.14,4.53,3.12q5.82,3.66,11.69,7.23a9.46,9.46,0,0,1,3.4,3.25,4.18,4.18,0,0,1-.16,4.84q-5,6.93-10.06,13.76a24.36,24.36,0,0,1-2.45,2.73c-1.14,1.11-1.86,1.18-3.24.29q-8.7-5.58-17.37-11.22c-1.95-1.27-3.87-2.57-5.82-3.84A4.19,4.19,0,0,0,549.51,563.71Z"/></g><g id="Group_34528" data-name="Group 34528"><path id="Path_30083" data-name="Path 30083" class="cls-9" d="M169.35,268.74c-1.49,2-2.84,3.76-4.07,5.57-.79,1.16-1.43,2.42-2.13,3.64-1.52,2.65-2.9,5.39-4.58,7.93-2.09,3.15-2.75,3.4-6.21,2a53.05,53.05,0,0,1-7.29-3.79c-3.48-2-6.86-4.23-10.31-6.32-2.62-1.58-5.27-3.09-7.9-4.63-1.36-.8-1.63-1.68-.8-3.26,1-1.9,2.08-3.74,3.16-5.58q4.09-7,8.22-13.88a5.51,5.51,0,0,1,.89-1.16,1.15,1.15,0,0,1,1.5-.16c1.51.91,3,1.79,4.56,2.69,3.2,1.91,6.38,3.85,9.6,5.73,2.95,1.73,5.94,3.39,8.89,5.12,1.68,1,3.31,2.07,5,3.1.25.15.53.26.9.45.43-.67.82-1.27,1.2-1.88q4.77-7.39,9.52-14.8c.7-1.08,1.29-2.23,2-3.28s1.45-1.23,2.36-.28a39.31,39.31,0,0,0,8.24,6.09c4.07,2.47,8.2,4.85,12.3,7.27,1.47.86,3,1.63,4.41,2.6,2.1,1.46,2.52,3.28,1.11,5.37-1.18,1.77-2.7,3.3-4,5-.62.81-1.08,1.75-1.64,2.6-1.55,2.34-3.09,4.69-4.68,7a29.54,29.54,0,0,1-2.1,2.5,1.9,1.9,0,0,1-2.49.44c-2-1-3.9-2-5.8-3.13q-6.28-3.61-12.5-7.31a23.42,23.42,0,0,1-5.86-4.36A12.11,12.11,0,0,0,169.35,268.74Z"/></g><g id="Group_34529" data-name="Group 34529"><path id="Path_30084" data-name="Path 30084" class="cls-10" d="M456.87,456.23a3.62,3.62,0,0,1-.13-1.09c.75-3,1.44-5.94,2.36-8.85.82-2.6,2.78-4.38,4.87-6.05,3.71-3,8-4.87,12.29-6.86,6.08-2.86,12.29-5.45,18.39-8.28,9.59-4.46,19.36-8.5,29.18-12.42,4.88-1.94,9.8-3.8,14.69-5.72,5.06-2,10.1-4,15.18-6,5.88-2.26,11.82-4.34,17.67-6.67,7.32-2.91,14.56-6,21.87-9,4.93-2,9.93-3.82,14.86-5.81,2.65-1.07,5.21-2.36,7.84-3.49,2.13-.91,4.3-1.75,6.47-2.57a1,1,0,0,1,1.29.44.92.92,0,0,1,.1.54,5.19,5.19,0,0,1-.44,2.3c-1.07,2.12-2.21,4.22-3.47,6.23a6.71,6.71,0,0,1-3.6,2.68c-2.93,1.06-5.79,2.31-8.66,3.52-7.73,3.23-15.42,6.54-23.17,9.71s-15.53,6.24-23.31,9.34-15.68,6.22-23.52,9.31c-4.16,1.63-8.37,3.1-12.5,4.78-6.4,2.61-12.74,5.32-19.1,8q-3.21,1.35-6.39,2.77-13,5.87-26.06,11.77c-2.39,1.09-4.77,2.23-7,3.55a47.42,47.42,0,0,0-5.73,4,11.87,11.87,0,0,0-1.94,2.62C458.43,455.61,458.14,456.44,456.87,456.23Z"/></g><g id="Group_34530" data-name="Group 34530"><path id="Path_30085" data-name="Path 30085" class="cls-11" d="M658.92,208a8.53,8.53,0,0,1-.34,2.3c-1.9,3.82-3.45,7.86-6.39,11.07a20.57,20.57,0,0,1-3.27,2.91c-2.58,1.85-5.21,3.64-7.88,5.34a51.46,51.46,0,0,1-17,6.54,48.6,48.6,0,0,0-4.79,1.2,41.91,41.91,0,0,1-8.43,1.72c-2.73.32-5.44.83-8.18,1.1-3.58.35-7.18.57-10.77.79-1.46.09-2.93.1-4.4.08A95.94,95.94,0,0,1,566,237.83c-2.85-.71-5.7-1.35-8.57-2-1.11-.25-1.45,0-1.54,1.15a11.46,11.46,0,0,0,.07,2.19,36,36,0,0,1-.87,13.82c-1.46,5.24-2.77,10.52-4.28,15.74a41.17,41.17,0,0,1-2.35,5.56,8.15,8.15,0,0,1-1.25,1.56,2,2,0,0,1-.19-2c1-4.74,1.92-9.47,2.86-14.2.84-4.27.24-8.52-.2-12.78a45.08,45.08,0,0,0-2.22-8.86,19.58,19.58,0,0,0-2.09-4c-.85-1.42-1.78-2.78-2.74-4.11a18.19,18.19,0,0,0-6.27-5.22c-1.74-.94-1.89-1.27-1.4-3.24.28-1.13.69-2.22,1-3.32a7.68,7.68,0,0,0,.56-1.92,7.1,7.1,0,0,1,1.74-3.77,1.61,1.61,0,0,1,2.17-.71l.22.13c2.62,1.64,5.75,2.69,7.47,5.46,2.14,3.42,5.68,4.45,9.07,5.77,5.72,2.23,11.75,3.3,17.76,4.38,4.32.77,8.67,1.51,13,1.88a101,101,0,0,0,10.44-.06c5.7-.11,11.29-1.18,16.93-1.86a40,40,0,0,0,9.12-2,13.54,13.54,0,0,1,2.65-.74A69.33,69.33,0,0,0,639,221.41a48.65,48.65,0,0,0,9.71-5.11c1.51-.94,3-1.92,4.42-3a13.18,13.18,0,0,0,1.69-1.65c1-1,1.89-2.08,2.86-3.09A5.5,5.5,0,0,1,658.92,208Z"/></g><g id="Group_34531" data-name="Group 34531"><path id="Path_30086" data-name="Path 30086" class="cls-12" d="M232.92,451.59a4.56,4.56,0,0,1-.27-1.16,6.77,6.77,0,0,1,.29-1.79q1.51-4.62,3.09-9.21a6.46,6.46,0,0,1,3-3.56c3.41-1.91,6.8-3.86,10.27-5.65,3.26-1.67,6.6-3.2,9.95-4.69,4.18-1.86,8.44-3.56,12.62-5.44,3.84-1.72,7.61-3.62,11.45-5.36s7.82-3.44,11.74-5.14l14.12-6.16q8-3.49,15.92-7c2.18-1,4.31-2,6.49-3,4.14-1.82,8.3-3.58,12.44-5.41,5.75-2.54,11.49-5.12,17.24-7.67,5.52-2.46,11.06-4.88,16.57-7.37,1.39-.62,2.68-1.44,4-2.16.43-.23.86-.47,1.3-.68,2.33-1.08,4.65-2.17,7-3.2a1.75,1.75,0,0,1,1.33-.05c.22.11.22.75.24,1.16a1.58,1.58,0,0,1-.18.7c-1.32,2.69-2.59,5.4-4,8a4.35,4.35,0,0,1-1.86,1.67c-4.5,2.21-9,4.35-13.56,6.47-3.38,1.57-6.8,3-10.16,4.64s-6.9,3.41-10.36,5.08c-1.42.69-2.88,1.32-4.34,1.92-2.65,1.1-5.34,2.11-8,3.26-5.36,2.36-10.69,4.8-16,7.19-4.8,2.14-9.61,4.24-14.4,6.38-3.85,1.72-7.67,3.5-11.54,5.18-2.57,1.13-5.2,2.12-7.78,3.21a11.71,11.71,0,0,0-1.7,1,22.18,22.18,0,0,1-2.73,1.8c-4,1.84-8,3.62-12.05,5.37-4.7,2-9.44,4-14.14,6.08-4,1.76-8.09,3.47-12,5.4-3,1.44-5.77,3.18-8.64,4.81a8.92,8.92,0,0,0-3.59,3.81,11.18,11.18,0,0,1-1.25,1.67Z"/></g><g id="Group_34532" data-name="Group 34532"><path id="Path_30087" data-name="Path 30087" class="cls-13" d="M276.45,231.6c-.53.65-1,1.18-1.43,1.75a65.17,65.17,0,0,1-10.26,11.43c-3.13,2.69-6.27,5.47-10.22,7A14.39,14.39,0,0,1,247,253c-2.59-.39-4.48-1.75-5.08-4.36a41.81,41.81,0,0,1-.74-5.8c-.18-2.07-.23-4.14-.37-6.21a7.82,7.82,0,0,0-.29-1.44c-.89-3.3-2.4-4.59-5.78-4.93a20.13,20.13,0,0,0-10.38,1.7A67.17,67.17,0,0,0,207.64,242c-.44.38-.93.69-1.51,1.11a3.71,3.71,0,0,1,.83-3.46,55.31,55.31,0,0,1,12.13-13.4c2-1.58,4.12-3.06,6.26-4.47a22.89,22.89,0,0,1,8.8-3.5,15,15,0,0,1,6.89.41,5.15,5.15,0,0,1,3.34,3.42,20.51,20.51,0,0,1,1.11,8.11,39.18,39.18,0,0,0,.2,6,5,5,0,0,0,5,4.52,16.58,16.58,0,0,0,9.9-2.8,50.75,50.75,0,0,0,10.87-8.94c1.11-1.24,1-1.2,0-2.56-1.62-2.07-3.21-4.16-4.7-6.32a7.48,7.48,0,0,1-1.12-4.92,14.27,14.27,0,0,1,.65-3.6c1.32-3.8,2.52-7.66,4.59-11.16,2.82-4.77,7.13-7.26,12.45-8.14a8.87,8.87,0,0,1,3.44.23,5.36,5.36,0,0,1,4.06,3.85,13.66,13.66,0,0,1,.2,6c-.94,6.4-3.52,12.18-6.76,17.7-.76,1.3-.79,1.47.24,2.53,2.58,2.69,5.16,5.37,7.78,8a2,2,0,0,1,.63,2,23.82,23.82,0,0,1-3.94,9c-.87,1.19-1.3,1.22-2.35.2-1.44-1.41-2.83-2.87-4.22-4.33-1.56-1.63-3.09-3.31-4.65-4.94A13.33,13.33,0,0,0,276.45,231.6Zm3.7-13c.68-1,1.17-1.59,1.55-2.26.82-1.43,1.51-2.95,2.39-4.33,1.2-1.87.93-3.72.22-5.62a3.37,3.37,0,0,0-2.23-2,9.18,9.18,0,0,0-8.95,2.35,2.12,2.12,0,0,0-.24,3h0a34.44,34.44,0,0,0,2.57,3.78c1.4,1.68,2.94,3.24,4.68,5.12Z"/></g><g id="Group_34533" data-name="Group 34533"><path id="Path_30088" data-name="Path 30088" class="cls-14" d="M483.87,223c-1.28-1.07-2.39-1.92-3.4-2.88-1.5-1.43-3-2.88-4.37-4.42a5.15,5.15,0,0,1-1.24-3.56,6,6,0,0,1,.09-1.46c1.57-5.54,3.15-11.07,7.16-15.48a12.51,12.51,0,0,1,5.47-3.54c.58-.19,1.17-.37,1.75-.57,4.37-1.5,8.1.89,8.76,5.52a18.09,18.09,0,0,1-.65,8.33c-1,3.07-2.23,6.08-3.41,9.09-.54,1.39-.63,1.4.56,2.26,2.62,1.89,5.29,3.72,7.91,5.61.74.53,1.4,1.17,2.12,1.74a21.69,21.69,0,0,0,2.18,1.63c1.48.92,1.94,1.69,1.28,3.35a67.7,67.7,0,0,1-3.19,6.79c-1.38,2.6-2.1,2.7-4.19.63-2.24-2.22-5-3.74-7.49-5.55-1.34-1-2.65-2-4-2.95s-1.6-1-2.64.4c-2.52,3.3-5,6.62-7.63,9.84a32.57,32.57,0,0,1-3.77,3.75c-2.79,2.46-5.34,5.22-8.62,7.1-1.21.7-2.5,1.28-3.72,2-3.27,1.85-8.31-.55-9.14-4.6a44.5,44.5,0,0,1-.58-9.5,19.89,19.89,0,0,0-.88-6.51c-1.33-3.95-2.9-4.84-6.91-3.88a18.39,18.39,0,0,0-8.1,4.49c-2.75,2.51-5.37,5.17-8.06,7.75-.54.52-1.12,1-1.69,1.49l-.43-.2a6.41,6.41,0,0,1,.16-1.85,36.61,36.61,0,0,1,2.27-5,61.84,61.84,0,0,1,13.28-16,15.75,15.75,0,0,1,7.63-3.37c2.57-.44,4.42.65,5.51,3.23a23.27,23.27,0,0,1,1.66,10.41,62.11,62.11,0,0,0,0,6.4c.25,4.54,4.9,6.33,8.34,4.71a30.57,30.57,0,0,0,7.11-4.48q3.06-2.64,6.07-5.31A33.83,33.83,0,0,0,483.87,223Zm6.7-10c.43-1,.78-1.79,1.14-2.6,1.25-2.74.27-5-1.63-7a3.83,3.83,0,0,0-2-1.05,6.52,6.52,0,0,0-4.86,1.15c-1.3.91-1.38,1.5-.24,2.59,1.4,1.35,2.89,2.6,4.34,3.9l3.29,3Z"/></g><g id="Group_34534" data-name="Group 34534"><path id="Path_30089" data-name="Path 30089" class="cls-15" d="M202.59,380.05c-.3.65-.63,1.29-.88,1.95-.59,1.54-1.06,3.13-1.72,4.64a16.76,16.76,0,0,1-7.57,8.42,6.26,6.26,0,0,1-3.56.61c-4.76-.35-7.24-2.37-8.63-6a32.27,32.27,0,0,1-2.2-11.45,27.48,27.48,0,0,0-.68-7.83,6,6,0,0,0-1.47-2.68,2.28,2.28,0,0,1-.64-1.77c.64-3,1.41-6,2.17-9.05a3.86,3.86,0,0,1,.57-1.15c.51-.78,1-.91,1.6-.22a8.32,8.32,0,0,1,1.46,2.49,21.74,21.74,0,0,1,.94,8.7c-.27,3.74.64,7.27,1.67,10.81,1.86,6.42,10,7.23,13.58,3.84.36-.33.74-.63,1.11-.95a6.25,6.25,0,0,0,2.28-6,44.82,44.82,0,0,0-3.87-13.51,6,6,0,0,1-.42-4.42c.53-1.88.92-3.8,1.45-5.67a9,9,0,0,1,1-2.15c.3-.48.75-1.08,1.23-1.19.73-.17.87.68,1.15,1.2a43.55,43.55,0,0,1,4.5,13.88,23.75,23.75,0,0,0,3.05,8.79,10.86,10.86,0,0,0,6,4.8,6.24,6.24,0,0,0,4.81-.42c1.6-.79,1.72-1.11.92-2.68q-2-4-4.1-8a30.53,30.53,0,0,1-3.38-10.6,5,5,0,0,1,0-1.64c.72-2.84,1.44-5.67,2.29-8.47.25-.81.57-2,1.69-1.9s1,1.36,1.15,2.21a50.81,50.81,0,0,0,4.58,12.15c.81,1.64,1.71,3.24,2.51,4.89a12.85,12.85,0,0,1,1.14,8.74c-1,4.34-1.86,8.75-4.12,12.68a7.35,7.35,0,0,1-1.93,2.39,19.88,19.88,0,0,1-5.23,2.91c-2.53.77-5-.1-7-1.74a13,13,0,0,1-4-4.9c-.26-.6-.6-1.17-.9-1.75Z"/></g><g id="Group_34535" data-name="Group 34535"><path id="Path_30090" data-name="Path 30090" class="cls-16" d="M133.78,426.14a17,17,0,0,1-.82,2.4c-2.53,5-5.06,10-7.69,15a19.82,19.82,0,0,1-2.44,3.19c-.74.9-1.58.94-2.76.65-3.51-.87-6.44-2.92-9.63-4.42-3.92-1.84-7.82-3.73-11.72-5.62q-3.61-1.75-7.22-3.57c-1.51-.76-1.89-1.84-1.13-3.51,1.58-3.45,3.21-6.86,4.85-10.27,1.54-3.19,3.11-6.36,4.67-9.54.19-.38.36-.78.56-1.15.79-1.43,1.19-1.53,2.62-.85,3.47,1.65,7,3.24,10.44,4.9,4.4,2.12,8.78,4.28,13.16,6.42,1.37.68,2.75,1.34,4.09,2.07A5.13,5.13,0,0,1,133.78,426.14Z"/></g><g id="Group_34536" data-name="Group 34536"><path id="Path_30091" data-name="Path 30091" class="cls-17" d="M307.3,366.46c-.56-.77-.85-1.24-1.2-1.65a25.67,25.67,0,0,0-5.61-4.68,5.74,5.74,0,0,0-4.76-.62c-1.24.29-1.64.93-1.76,2.23-.47,5.29-.86,10.6-1.47,15.87-.79,6.76-2.67,13.29-4.44,19.84-.6,2.18-1.37,4.31-2.13,6.44a18.13,18.13,0,0,1-1.29,2.37,13.52,13.52,0,0,1-1-1.55c-1.07-2.4-2.08-4.83-3.18-7.21a73.71,73.71,0,0,0-8.23-13.83,9.33,9.33,0,0,0-3.41-3c-.41.55-.8,1.07-1.18,1.6a1.25,1.25,0,0,1-1.55.65c-4.26-1.64-8.71-2.88-12.3-5.94a3,3,0,0,1-1.19-3.23,74.84,74.84,0,0,1,2.92-9c1.6-3.63,4.63-4.58,8.35-3.1,2.72,1.07,4.9,3,7.2,4.68a35.38,35.38,0,0,1,10.18,12.56,92.16,92.16,0,0,1,5,10.6c.07.2.29.34.69.8a16.32,16.32,0,0,0,.53-2.3c.49-5.66.93-11.33,1.42-17a41.08,41.08,0,0,1,.76-6.54c.93-3.66,2.15-7.25,3.35-10.83a12.91,12.91,0,0,1,1.55-2.91,7.93,7.93,0,0,1,11-2.33l.4.28c2,1.42,4.07,2.71,5.38,4.89a3.47,3.47,0,0,1,.67,3.1c-1,2.56-2,5.12-3,7.65A13.35,13.35,0,0,1,307.3,366.46Z"/></g><g id="Group_34537" data-name="Group 34537"><path id="Path_30092" data-name="Path 30092" class="cls-18" d="M370.55,551.52a6.26,6.26,0,0,1-.93,1.63,56.64,56.64,0,0,0-7.78,10.8c-1.37,2.33-3.44,4.26-5.24,6.32a1.77,1.77,0,0,1-2,.39,19.44,19.44,0,0,1-5.72-2.82,64.4,64.4,0,0,0-5.44-3.71c-4.11-2.64-8.25-5.23-12.39-7.82a9.9,9.9,0,0,0-1.64-.79c-2-.81-2.58-2.22-1.46-4,1.31-2.13,2.7-4.22,4-6.33,2.67-4.15,5.37-8.29,8-12.46,1.11-1.74,1.71-2,3.57-.93a112.93,112.93,0,0,1,9.86,5.93c2.76,1.91,5.73,3.5,8.54,5.32,2.46,1.6,4.84,3.3,7.22,5A3.54,3.54,0,0,1,370.55,551.52Z"/></g><g id="Group_34538" data-name="Group 34538"><path id="Path_30093" data-name="Path 30093" class="cls-19" d="M498.37,415.89c-.72-1.25-1.52-2.47-2.14-3.78a95.55,95.55,0,0,0-11.58-17.78,22,22,0,0,0-2.17-2.25,10.91,10.91,0,0,0-1.47-1c-.62,1-1.14,1.92-1.68,2.79-1,1.59-1.22,1.61-2.92.74s-3.43-1.6-5.11-2.46a31.84,31.84,0,0,1-3.78-2.24,3.73,3.73,0,0,1-1.6-4.19,46.5,46.5,0,0,1,3.49-9.82,4.82,4.82,0,0,1,5.29-2.73c3.72.43,6.84,2.17,9.8,4.28a36.13,36.13,0,0,1,8.89,9.91q2.61,4,5.06,8.08c.81,1.36,1.43,2.83,2.15,4.24a11.12,11.12,0,0,0,.83,1.2,18.33,18.33,0,0,0,.63-2.31c.63-4.73,1.08-9.48,1.86-14.18a66.16,66.16,0,0,1,2.33-9.6c1.06-3.3,1.95-6.71,3.87-9.68a15.23,15.23,0,0,1,1.76-2.32,4,4,0,0,1,4-1.14,18.17,18.17,0,0,1,9.64,6,3.07,3.07,0,0,1,.79,3.22c-.87,2.27-1.78,4.54-2.71,6.79a6.88,6.88,0,0,1-1,1.54c-.81,1-1.25,1.08-2.21.12a22.74,22.74,0,0,0-5.88-4.34,14.52,14.52,0,0,0-2.91-1.07c-1.66-.42-2.42.11-2.66,1.83-.35,2.54-.58,5.1-.95,7.64-1,6.9-1.83,13.83-4.1,20.47-1.17,3.41-2.49,6.76-3.8,10.12a11.88,11.88,0,0,1-1.2,1.92Z"/></g><g id="Group_34539" data-name="Group 34539"><path id="Path_30094" data-name="Path 30094" class="cls-20" d="M149.82,350a4.77,4.77,0,0,1-.37,1.18c-1.39,2.37-2.76,4.75-4.28,7a5.31,5.31,0,0,1-2.1,1.71q-6.06,3-12.21,5.88c-2.6,1.2-5.3,2.2-7.92,3.39-7.28,3.32-14.56,6.63-21.8,10-4.52,2.14-9,4.33-13.43,6.73-4.81,2.64-9.49,5.54-14.21,8.35a9.48,9.48,0,0,0-4.17,4.23A3.53,3.53,0,0,1,68.21,400a1.84,1.84,0,0,1-1.48.22c-.3-.12-.5-.78-.55-1.22a3.88,3.88,0,0,1,.25-1.43c.78-2.38,1.49-4.79,2.39-7.12,1.28-3.29,3.94-5.38,6.8-7.2,1.86-1.17,3.78-2.24,5.72-3.28,5.76-3.08,11.52-6.16,17.33-9.14,3-1.56,6.18-2.95,9.3-4.35,6.35-2.86,12.62-5.93,19.1-8.45a195.51,195.51,0,0,0,18.07-8c.87-.44,1.7-1,2.55-1.44C149,347.86,149.87,348.39,149.82,350Z"/></g><g id="Group_34540" data-name="Group 34540"><path id="Path_30095" data-name="Path 30095" class="cls-21" d="M58.74,256.94a25.54,25.54,0,0,1,.31-3c1-4.3,2.05-8.56,2.94-12.87.55-2.69.84-5.43,1.21-8.16a20.17,20.17,0,0,0-1.17-9c-.51-1.57-.89-3.2-1.54-4.7a24.06,24.06,0,0,0-9.36-11c-1.18-.75-2.24-1.69-3.35-2.54A2.17,2.17,0,0,1,47,203.2a5.4,5.4,0,0,1,.13-.72q1.47-3.85,3-7.68a4,4,0,0,1,.7-1.07c.76-.9,1.24-.95,2.19-.27,1.69,1.2,3.34,2.45,5.06,3.61a23.86,23.86,0,0,1,8.3,10.06c2.27,4.92,4,10.06,3.36,15.58a56,56,0,0,1-1.79,9c-2.1,7.34-4.39,14.64-6.63,21.94a17.27,17.27,0,0,1-1.15,2.69c-.17.33-.55.55-.83.82Z"/></g><g id="Group_34541" data-name="Group 34541"><path id="Path_30096" data-name="Path 30096" class="cls-22" d="M300.92,460.79a74.9,74.9,0,0,1,4.21-21.09,88.67,88.67,0,0,1,5.17-12.52,22.19,22.19,0,0,1,2.53-3.57,2.79,2.79,0,0,1,1.2-.8c.71-.27,1.28.16,1.15.9a10.71,10.71,0,0,1-.69,2.07c-1.75,4.63-3.54,9.24-5.24,13.88a34.52,34.52,0,0,0-2.14,12.4c.05,4,1.35,7.63,4.81,10a13.65,13.65,0,0,0,4.2,1.68c1.31.34,1.93-.26,2.06-1.6a3.54,3.54,0,0,0,0-.92,12.58,12.58,0,0,1,1.36-7.1c.69-1.55,1.21-3.19,1.95-4.72.38-.78.86-1.84,2-1.63s1,1.42,1,2.28a26.32,26.32,0,0,1-1.4,9.92,53.07,53.07,0,0,1-5.73,12.85,6.21,6.21,0,0,1-7.12,2.72,10.87,10.87,0,0,1-7.59-6.57C301.34,466,300.43,463,300.92,460.79Z"/></g><g id="Group_34542" data-name="Group 34542"><path id="Path_30097" data-name="Path 30097" class="cls-23" d="M541.24,427.7c.73.79.36,1.42.08,2-.45.93-1,1.82-1.46,2.75-3.09,6.26-5.83,12.68-7.2,19.54a14.56,14.56,0,0,0,2.66,12,8.64,8.64,0,0,0,7.87,3.49c1.61-.12,1.67-.28,1.77-1.9a2.59,2.59,0,0,1,.07-.73c1.06-3.11,1.81-6.34,3.61-9.16a3.5,3.5,0,0,1,.55-.73.92.92,0,0,1,1.67.44,3.93,3.93,0,0,1,.12,1.45,38.52,38.52,0,0,1-.62,4.53,53.35,53.35,0,0,1-4.5,12.56c-.39.76-.86,1.47-1.3,2.21-2,3.32-4.91,4-8.74,3.2-4.7-1-7.19-4.46-8.5-8.76a23.26,23.26,0,0,1-.56-11.39,93.8,93.8,0,0,1,8.32-23.79,31.87,31.87,0,0,1,5.47-7.32A2.93,2.93,0,0,1,541.24,427.7Z"/></g><g id="Group_34543" data-name="Group 34543"><path id="Path_30098" data-name="Path 30098" class="cls-24" d="M154.76,198.17c-.46,1-.88,2-1.38,2.92q-3.15,6.09-6.34,12.19a20.68,20.68,0,0,0-2,12.28c.52,4.38,3.44,6.74,7.31,8a5,5,0,0,0,3.18-.39,8.34,8.34,0,0,0,4.55-4.54,18.39,18.39,0,0,1,1.77-3.19c.26-.39,1-.84,1.3-.7a2.26,2.26,0,0,1,.92,1.39,3.51,3.51,0,0,1-.16,1.61c-1.36,5.23-3.54,10-7.52,13.8a46.17,46.17,0,0,1-3.65,3,5.75,5.75,0,0,1-7.13.37c-.61-.39-1.34-.62-1.92-1.06a8.58,8.58,0,0,1-2.26-2.07,17.26,17.26,0,0,1-2.7-8.62,40.12,40.12,0,0,1,3.56-16.89c1.26-3,2.15-6.26,4.13-9,1.8-2.47,3.6-4.94,5.48-7.34a19.55,19.55,0,0,1,2.34-2.21Z"/></g></g></g><g id="Group_34546" data-name="Group 34546"><path id="Path_30099" data-name="Path 30099" class="cls-25" d="M58.62,662.87c0,.7-.37,1.06-1.11,1.06h-3.9a.94.94,0,0,1-.73-.3,2,2,0,0,1-.4-.69l-4.29-15.19H31.09l-4.23,15.19a1.68,1.68,0,0,1-.46.69,1.09,1.09,0,0,1-.73.3H21.78c-.75,0-1.12-.36-1.12-1.06a1,1,0,0,1,.06-.46l12.22-43A6.58,6.58,0,0,1,34.09,617a6.45,6.45,0,0,1,1.69-1.52,6.53,6.53,0,0,1,1.95-.8,8.44,8.44,0,0,1,1.94-.23,9.48,9.48,0,0,1,1.92.2,5.84,5.84,0,0,1,1.91.76,6.28,6.28,0,0,1,1.69,1.52,6.66,6.66,0,0,1,1.15,2.47l12.22,43.06A1.17,1.17,0,0,1,58.62,662.87ZM40.93,620.81c-.22-.79-.64-1.19-1.25-1.19s-1.1.4-1.33,1.19l-6,21.72H46.94Z"/><path id="Path_30100" data-name="Path 30100" class="cls-25" d="M108.21,628.73a1.17,1.17,0,0,1-.06.46l-10.9,38a30.64,30.64,0,0,1-1.68,4.55,8.86,8.86,0,0,1-2.28,3A8.66,8.66,0,0,1,90,676.47a18.74,18.74,0,0,1-4.78.53,28.64,28.64,0,0,1-2.94-.17,19.19,19.19,0,0,1-2.61-.43,4.27,4.27,0,0,1-1-.33.73.73,0,0,1-.4-.73V672.9c0-.7.42-1,1.25-1h.2c.75.08,1.73.17,2.94.26s2.19.13,2.94.13A11.73,11.73,0,0,0,88,672a4.14,4.14,0,0,0,1.82-.86,5.38,5.38,0,0,0,1.32-1.71,12.78,12.78,0,0,0,1-2.81l.66-2.7h-.93a8.52,8.52,0,0,1-1.42-.13,3.37,3.37,0,0,1-1.32-.6,4.41,4.41,0,0,1-1.15-1.39,12.24,12.24,0,0,1-1-2.44l-8.78-30.18a1,1,0,0,1-.07-.46c0-.75.39-1.12,1.19-1.12h3.63a.9.9,0,0,1,.69.32,2.17,2.17,0,0,1,.43.73l7.79,28.66a2.27,2.27,0,0,0,.6,1.22,1.13,1.13,0,0,0,.66.24h1.06l8-30.18a1.65,1.65,0,0,1,.46-.7,1.12,1.12,0,0,1,.8-.3h3.7C107.86,627.61,108.21,628,108.21,628.73Z"/><path id="Path_30101" data-name="Path 30101" class="cls-25" d="M159.06,662.61a1.36,1.36,0,0,1-1.32,1.32h-3a1.36,1.36,0,0,1-1.32-1.32v-1.46a31.59,31.59,0,0,1-4.88,2.32,15.66,15.66,0,0,1-5.29.92,16.36,16.36,0,0,1-4.06-.5,8.42,8.42,0,0,1-3.43-1.75,8.88,8.88,0,0,1-2.38-3.3,13,13,0,0,1-.89-5.15v-.79a12.2,12.2,0,0,1,.83-4.66,7.72,7.72,0,0,1,2.7-3.36,13,13,0,0,1,4.92-2,36,36,0,0,1,7.46-.66h4.89v-2.64q0-4.17-1.58-5.82c-1.06-1.1-2.88-1.65-5.49-1.65-2.16,0-4.05.06-5.67.17s-3.11.23-4.43.36h-.33a1.56,1.56,0,0,1-.82-.2.87.87,0,0,1-.37-.85v-2.32c0-.7.46-1.12,1.39-1.25,1.36-.22,2.85-.42,4.46-.6a52.93,52.93,0,0,1,5.77-.26q6.87,0,9.88,3.3t3,9.11Zm-5.82-16.25h-4.88a29.3,29.3,0,0,0-5,.36,8.33,8.33,0,0,0-3.1,1.13,4.08,4.08,0,0,0-1.59,2,8.5,8.5,0,0,0-.46,3v.78q0,3.57,1.58,4.79a7.18,7.18,0,0,0,4.5,1.23,14.76,14.76,0,0,0,4.42-.67,23.31,23.31,0,0,0,4.49-2Z"/><path id="Path_30102" data-name="Path 30102" class="cls-25" d="M204.22,662.92c0,.62-.4,1-1.19,1.14s-1.39.16-2.18.23-1.5.1-2.11.1a19.21,19.21,0,0,1-4-.36,5.87,5.87,0,0,1-2.77-1.36,6.06,6.06,0,0,1-1.65-2.7,14.12,14.12,0,0,1-.56-4.43v-23l-6.41-.72c-.84-.09-1.25-.48-1.25-1.19V628.8c0-.8.42-1.19,1.25-1.19h6.41v-6.47a1.23,1.23,0,0,1,1.15-1.32h0l3.43-.53h.2a1,1,0,0,1,.69.3,1.14,1.14,0,0,1,.3.83v7.19h7.13a1.36,1.36,0,0,1,1.32,1.32v2.25a1.35,1.35,0,0,1-1.32,1.32h-7.13v23c0,1.8.27,2.94.8,3.42a4.09,4.09,0,0,0,2.77.73h3.7c.92,0,1.39.31,1.39.94Z"/><path id="Path_30103" data-name="Path 30103" class="cls-25" d="M296.53,650.37a13.71,13.71,0,0,1-1.55,6.88,11.71,11.71,0,0,1-4.23,4.3,18.4,18.4,0,0,1-6.17,2.21,40.92,40.92,0,0,1-7.33.63c-2.2,0-4.23,0-6.08-.13a43.1,43.1,0,0,1-4.68-.46,2.83,2.83,0,0,1-1.66-.66,2.52,2.52,0,0,1-.53-1.79v-44a2.16,2.16,0,0,1,1.83-2.43l.29,0c1.1-.13,2.59-.25,4.46-.36s3.88-.16,6-.17a44.42,44.42,0,0,1,7.46.6,19.32,19.32,0,0,1,6.14,2,10.61,10.61,0,0,1,5.74,10.09v1.06a10.9,10.9,0,0,1-1.84,6.36,11.08,11.08,0,0,1-5.22,4,10.47,10.47,0,0,1,5.38,4,11.56,11.56,0,0,1,1.95,6.68Zm-6.27-23.22a7,7,0,0,0-1-3.86,6.54,6.54,0,0,0-2.7-2.35,13.2,13.2,0,0,0-4.18-1.15,45.3,45.3,0,0,0-5.46-.3q-1.71,0-3.42.06l-3.1.14v16.37h10.14a14.94,14.94,0,0,0,4.7-.63,7.75,7.75,0,0,0,3-1.71,6,6,0,0,0,1.55-2.51,10.21,10.21,0,0,0,.42-3Zm.26,22.08a11,11,0,0,0-.46-3.18,6.47,6.47,0,0,0-1.61-2.68,8.24,8.24,0,0,0-3.06-1.86,14.25,14.25,0,0,0-4.8-.7H270.45V659c1.1.05,2.23.1,3.39.17s2.31.1,3.45.1a36.16,36.16,0,0,0,5.5-.4,12.29,12.29,0,0,0,4.18-1.4,6.79,6.79,0,0,0,2.63-2.71,9.34,9.34,0,0,0,.92-4.44Z"/><path id="Path_30104" data-name="Path 30104" class="cls-25" d="M348.09,662.61a1.35,1.35,0,0,1-1.31,1.32h-3a1.35,1.35,0,0,1-1.32-1.32v-1.46a31.69,31.69,0,0,1-4.89,2.32,15.56,15.56,0,0,1-5.28.92,16.36,16.36,0,0,1-4.06-.5,8.36,8.36,0,0,1-3.43-1.75,8.77,8.77,0,0,1-2.38-3.3,12.78,12.78,0,0,1-.89-5.15v-.79a12.38,12.38,0,0,1,.82-4.66,7.67,7.67,0,0,1,2.71-3.36,12.94,12.94,0,0,1,4.92-2,35.89,35.89,0,0,1,7.46-.66h4.88v-2.64c0-2.78-.52-4.72-1.58-5.82s-2.88-1.65-5.48-1.65c-2.16,0-4.05,0-5.68.16s-3.1.23-4.42.37h-.33a1.85,1.85,0,0,1-.83-.2.9.9,0,0,1-.36-.86v-2.31c0-.71.46-1.12,1.39-1.26,1.36-.22,2.85-.41,4.45-.6a55.76,55.76,0,0,1,5.78-.26q6.87,0,9.87,3.3t3,9.12Zm-5.81-16.25H337.4a29.23,29.23,0,0,0-4.95.36,8.33,8.33,0,0,0-3.1,1.13,4.08,4.08,0,0,0-1.59,2,8.5,8.5,0,0,0-.46,3v.78c0,2.38.52,4,1.58,4.79a7.17,7.17,0,0,0,4.49,1.23,14.71,14.71,0,0,0,4.42-.67,22.78,22.78,0,0,0,4.49-2Z"/><path id="Path_30105" data-name="Path 30105" class="cls-25" d="M402.3,628.73a1.17,1.17,0,0,1-.06.46l-10.9,38a30.64,30.64,0,0,1-1.68,4.55,8.86,8.86,0,0,1-2.28,3,8.66,8.66,0,0,1-3.34,1.69,18.74,18.74,0,0,1-4.78.53,28.64,28.64,0,0,1-2.94-.17,19.19,19.19,0,0,1-2.61-.43,4.27,4.27,0,0,1-1-.33.73.73,0,0,1-.4-.73V672.9c0-.7.42-1,1.25-1h.2c.75.08,1.73.17,2.94.26s2.19.13,2.94.13a11.73,11.73,0,0,0,2.44-.23,4.14,4.14,0,0,0,1.82-.86,5.49,5.49,0,0,0,1.32-1.71,12.78,12.78,0,0,0,1-2.81l.65-2.7h-.92a8.43,8.43,0,0,1-1.42-.13,3.37,3.37,0,0,1-1.32-.6,4.28,4.28,0,0,1-1.15-1.39,12.91,12.91,0,0,1-1-2.44l-8.78-30.18a1.19,1.19,0,0,1-.06-.46c0-.75.4-1.12,1.18-1.12H377a.9.9,0,0,1,.69.32,2.17,2.17,0,0,1,.43.73l7.79,28.66a2.27,2.27,0,0,0,.6,1.22,1.13,1.13,0,0,0,.66.24h1.06l8.06-30.18a1.65,1.65,0,0,1,.46-.7,1.14,1.14,0,0,1,.8-.3h3.7C402,627.61,402.3,628,402.3,628.73Z"/><path id="Path_30106" data-name="Path 30106" class="cls-25" d="M456.05,628.73a1.17,1.17,0,0,1-.06.46l-10.9,38a30.64,30.64,0,0,1-1.68,4.55,8.38,8.38,0,0,1-5.61,4.69A18.87,18.87,0,0,1,433,677a29,29,0,0,1-2.94-.17,19.31,19.31,0,0,1-2.6-.43,4.27,4.27,0,0,1-1-.33.73.73,0,0,1-.4-.73V672.9c0-.7.42-1,1.25-1h.2c.75.08,1.73.17,2.94.26s2.19.13,2.94.13a11.73,11.73,0,0,0,2.44-.23,4.14,4.14,0,0,0,1.82-.86,5.49,5.49,0,0,0,1.32-1.71,12.78,12.78,0,0,0,1-2.81l.66-2.7h-.93a8.43,8.43,0,0,1-1.42-.13,3.37,3.37,0,0,1-1.32-.6,4.28,4.28,0,0,1-1.15-1.39,12.91,12.91,0,0,1-1-2.44L426,629.19a1.19,1.19,0,0,1-.06-.46c0-.75.4-1.12,1.18-1.12h3.64a.9.9,0,0,1,.69.32,2.17,2.17,0,0,1,.43.73l7.79,28.66a2.27,2.27,0,0,0,.6,1.22,1.13,1.13,0,0,0,.66.24H442l8.05-30.18a1.65,1.65,0,0,1,.46-.7,1.12,1.12,0,0,1,.8-.3H455C455.7,627.61,456.05,628,456.05,628.73Z"/><path id="Path_30107" data-name="Path 30107" class="cls-25" d="M488.28,620.48A1.36,1.36,0,0,1,487,621.8h-3.37a1.36,1.36,0,0,1-1.33-1.32V615.2a1.36,1.36,0,0,1,1.33-1.32H487a1.36,1.36,0,0,1,1.32,1.32Zm-.14,42.13a1.36,1.36,0,0,1-1.32,1.32h-3.17a1.36,1.36,0,0,1-1.32-1.32V628.93a1.36,1.36,0,0,1,1.32-1.32h3.17a1.35,1.35,0,0,1,1.32,1.32Z"/><path id="Path_30108" data-name="Path 30108" class="cls-25" d="M544.21,662.61a1.38,1.38,0,0,1-1.33,1.32h-3.16a1.36,1.36,0,0,1-1.33-1.32V640.93a16.77,16.77,0,0,0-.43-4.18,6.2,6.2,0,0,0-1.31-2.67,5.1,5.1,0,0,0-2.28-1.42,11.1,11.1,0,0,0-3.24-.43,14.39,14.39,0,0,0-4.36.73,35.19,35.19,0,0,0-4.55,1.84v27.8a1.35,1.35,0,0,1-1.33,1.32h-3.23a1.13,1.13,0,0,1-.89-.4,1.27,1.27,0,0,1-.36-.92V628.93a1.27,1.27,0,0,1,.36-.92,1.13,1.13,0,0,1,.89-.4H521a1.13,1.13,0,0,1,.89.4,1.36,1.36,0,0,1,.37.94v1.27a29.27,29.27,0,0,1,5.14-2.31,17.69,17.69,0,0,1,5.36-.77q6,0,8.74,3.57t2.75,10.17Z"/><path id="Path_30109" data-name="Path 30109" class="cls-25" d="M597,662.61a1.36,1.36,0,0,1-1.32,1.32h-3a1.36,1.36,0,0,1-1.32-1.32v-1.46a31.59,31.59,0,0,1-4.88,2.32,15.66,15.66,0,0,1-5.29.92,16.36,16.36,0,0,1-4.06-.5,8.42,8.42,0,0,1-3.43-1.75,8.88,8.88,0,0,1-2.38-3.3,13,13,0,0,1-.89-5.15v-.79a12.2,12.2,0,0,1,.83-4.66,7.72,7.72,0,0,1,2.7-3.36,13,13,0,0,1,4.92-2,36,36,0,0,1,7.46-.66h4.89v-2.64q0-4.17-1.58-5.82t-5.49-1.65c-2.16,0-4.05.06-5.67.17s-3.11.23-4.43.36h-.33a1.62,1.62,0,0,1-.83-.2.88.88,0,0,1-.36-.85v-2.32c0-.7.47-1.12,1.39-1.25,1.36-.22,2.85-.42,4.46-.6a52.93,52.93,0,0,1,5.77-.26q6.87,0,9.88,3.3t3,9.11Zm-5.82-16.25h-4.88a29.3,29.3,0,0,0-5,.36,8.39,8.39,0,0,0-3.1,1.13,4.08,4.08,0,0,0-1.59,2,8.5,8.5,0,0,0-.46,3v.78q0,3.57,1.58,4.79a7.22,7.22,0,0,0,4.5,1.23,14.71,14.71,0,0,0,4.42-.67,23.31,23.31,0,0,0,4.49-2Z"/><path id="Path_30110" data-name="Path 30110" class="cls-25" d="M642.12,662.92c0,.62-.4,1-1.19,1.14s-1.38.17-2.17.23-1.5.09-2.12.1a19.21,19.21,0,0,1-4-.36,6,6,0,0,1-2.77-1.36,6.24,6.24,0,0,1-1.65-2.7,14.73,14.73,0,0,1-.56-4.43v-23l-6.41-.72c-.83-.09-1.25-.48-1.25-1.19V628.8c0-.8.42-1.19,1.25-1.19h6.41v-6.47a1.25,1.25,0,0,1,1.15-1.32h0l3.43-.53h.2a1,1,0,0,1,.69.3,1.1,1.1,0,0,1,.3.83v7.19h7.13a1.36,1.36,0,0,1,1.32,1.32v2.25a1.35,1.35,0,0,1-1.32,1.32h-7.13v23c0,1.8.26,2.94.79,3.42a4.1,4.1,0,0,0,2.78.73h3.7c.92,0,1.38.31,1.38.94Z"/></g></g><g id="Group_34548" data-name="Group 34548"><path id="Path_30111" data-name="Path 30111" class="cls-26" d="M103,39,340.5,139.1,578,39A50.23,50.23,0,0,0,608.17,0h0C597.23,23.94,532.26,42.7,444,46.12c-82.08,3.18-103.54,49-103.54,49S319,49.3,237,46.12C148.74,42.7,83.76,23.94,72.82,0A50.26,50.26,0,0,0,103,39Z"/><path id="Path_30112" data-name="Path 30112" class="cls-27" d="M406.1,165.32l-38.8-.22L681,28H628.62L340.5,152.72,52.38,28H0L313.71,165.11l-38.81.23c-21.86.37-43.73.51-65.6,1.15-43.73,1-87.46,2.53-131.2,5.4,43.73,2.87,87.47,4.37,131.2,5.39,21.87.64,43.73.78,65.6,1.16l65.6.38,65.6-.37c21.87-.38,43.73-.51,65.6-1.15,43.73-1,87.47-2.53,131.2-5.41-43.73-2.89-87.46-4.4-131.2-5.42C449.83,165.83,428,165.7,406.1,165.32Z"/></g></g></g></g></g></svg>