<svg id="Capa_1" enable-background="new 0 0 512 512" height="512" viewBox="0 0 512 512" width="512" xmlns="http://www.w3.org/2000/svg"><g><path d="m220.032 147.148c3.668-1.925 5.081-6.459 3.156-10.127-2.457-4.682-2.814-10.24-1.007-15.65 1.312-3.929-.809-8.178-4.738-9.489-3.928-1.316-8.178.808-9.49 4.737-3.113 9.319-2.419 19.041 1.953 27.373 1.947 3.71 6.52 5.049 10.126 3.156zm-5.369 29.155c-3.939 1.281-6.094 5.513-4.812 9.452 1.636 5.027 1.055 10.566-1.636 15.597-1.954 3.652-.577 8.196 3.076 10.15 3.586 1.918 8.176.616 10.151-3.076 4.635-8.664 5.584-18.363 2.674-27.312-1.282-3.938-5.513-6.092-9.453-4.811zm87.486 9.452c1.281-3.939-.874-8.171-4.812-9.452-3.937-1.281-8.171.873-9.452 4.812-2.911 8.948-1.961 18.647 2.674 27.312 1.976 3.694 6.558 4.999 10.151 3.076 3.652-1.954 5.029-6.498 3.076-10.15-2.691-5.032-3.272-10.571-1.637-15.598zm-119.961 178.248c4.142 0 7.5-3.357 7.5-7.5s-3.358-7.5-7.5-7.5h-130.876c-4.142 0-7.5 3.357-7.5 7.5s3.358 7.5 7.5 7.5zm305.092-236.993h-78.854c-13.196-72.15-76.522-127.01-152.426-127.01s-139.23 54.86-152.426 127.01h-78.854c-13.631 0-24.72 11.107-24.72 24.76v51.74c0 4.143 3.358 7.5 7.5 7.5s7.5-3.357 7.5-7.5v-51.74c0-5.382 4.36-9.76 9.72-9.76h76.868c-.355 4.271-.546 8.587-.546 12.947 0 16.029 2.447 31.498 6.986 46.053h-56.718c-4.142 0-7.5 3.357-7.5 7.5s3.358 7.5 7.5 7.5h62.277c9.937 23.09 25.328 43.298 44.546 58.994h-106.821c-4.142 0-7.5 3.357-7.5 7.5s3.358 7.5 7.5 7.5h128.778c20.4 11.512 43.651 18.54 68.41 19.726v147.694c-14.747-20.808-38.965-34.423-66.312-34.423h-167.188v-184.491c0-4.143-3.358-7.5-7.5-7.5s-7.5 3.357-7.5 7.5v248.724c0 13.656 11.09 24.766 24.723 24.766h462.555c13.632 0 24.722-11.11 24.722-24.767v-335.463c0-13.653-11.089-24.76-24.72-24.76zm-462.557 369.99c-5.361 0-9.723-4.381-9.723-9.767v-49.232h167.188c34.036 0 62.166 25.85 65.893 58.999zm231.277-202.09c-.021 0-.041.003-.062.003-76.091 0-139.895-61.873-139.895-139.956 0-77.173 62.785-139.957 139.957-139.957s139.957 62.784 139.957 139.957c0 77.886-63.861 139.956-139.895 139.956-.021 0-.041-.003-.062-.003zm241 128.091h-46.207c-4.142 0-7.5 3.357-7.5 7.5s3.358 7.5 7.5 7.5h46.207v49.232c0 5.386-4.361 9.767-9.723 9.767h-223.358c3.728-33.149 31.857-58.999 65.893-58.999h85.981c4.142 0 7.5-3.357 7.5-7.5s-3.358-7.5-7.5-7.5h-85.981c-27.347 0-51.565 13.615-66.312 34.423v-147.695c24.759-1.186 48.009-8.213 68.41-19.726h128.778c4.142 0 7.5-3.357 7.5-7.5s-3.358-7.5-7.5-7.5h-106.821c19.218-15.696 34.609-35.904 44.546-58.994h62.277c4.142 0 7.5-3.357 7.5-7.5s-3.358-7.5-7.5-7.5h-56.719c4.539-14.555 6.986-30.023 6.986-46.053 0-4.36-.191-8.677-.546-12.947h76.868c5.36 0 9.72 4.378 9.72 9.76v271.232zm-36.312-73.998h-130.876c-4.142 0-7.5 3.357-7.5 7.5s3.358 7.5 7.5 7.5h130.876c4.142 0 7.5-3.357 7.5-7.5s-3.358-7.5-7.5-7.5zm-166.131-237.121c-3.929 1.312-6.05 5.561-4.738 9.489 1.807 5.41 1.45 10.969-1.007 15.65-1.925 3.668-.512 8.202 3.156 10.127 3.6 1.889 8.18.552 10.126-3.156 4.372-8.332 5.065-18.054 1.953-27.373-1.313-3.929-5.563-6.051-9.49-4.737zm41.273 108.307c23.397-8.787 38.988-29.791 38.988-52.809 0-7.804-1.718-15.364-5.111-22.509 3.35-5.806 5.111-12.3 5.111-18.904 0-21.281-17.669-38.648-40.625-40.398-6.855-15.088-23.074-25.079-41.086-25.079-15.457 0-29.099 7.201-37.106 18.111-8.007-10.91-21.649-18.111-37.106-18.111-18.012 0-34.231 9.991-41.086 25.079-22.956 1.752-40.625 19.119-40.625 40.398 0 6.604 1.762 13.1 5.111 18.904-3.393 7.143-5.111 14.704-5.111 22.509 0 23.019 15.591 44.023 38.988 52.81 5.515 17.305 22.8 29.233 42.724 29.233 15.457 0 29.099-7.201 37.106-18.111 8.007 10.91 21.649 18.111 37.106 18.111 19.922.001 37.207-11.928 42.722-29.234zm-87.33-11.395c0 14.133-13.281 25.63-29.606 25.63-13.817 0-25.641-8.179-28.753-19.89-.043-.164-.109-.317-.159-.478.064-6.287 3.315-12.212 8.95-16.282 3.358-2.425 4.115-7.113 1.69-10.471-2.424-3.357-7.113-4.114-10.471-1.689-6.629 4.787-11.315 11.214-13.596 18.413-14.998-7.424-24.372-21.234-24.372-36.646 0-12.386 5.054-23.901 17.738-28.247 3.918-1.343 6.007-5.607 4.665-9.525-1.342-3.919-5.604-6.005-9.525-4.666-4.47 1.531-8.581 3.788-12.148 6.611-.473-1.828-.729-3.7-.729-5.585 0-12.414 10.615-23.04 24.368-25.155 1.319 5.345 3.936 10.397 7.692 14.705 2.731 3.133 7.472 3.437 10.582.725 3.122-2.723 3.446-7.46.725-10.582-3.029-3.474-4.712-7.561-4.939-11.87 4.835-10.811 14.494-18.3 28.285-18.3 16.325 0 29.606 11.497 29.606 25.63v107.672zm44.606 25.63c-16.325 0-29.606-11.497-29.606-25.63v-107.674c0-14.133 13.281-25.63 29.606-25.63 13.684 0 23.412 7.386 28.285 18.3-.227 4.309-1.91 8.396-4.939 11.87-2.722 3.122-2.397 7.859.725 10.582 3.11 2.712 7.851 2.408 10.582-.725 3.756-4.308 6.372-9.36 7.692-14.705 13.752 2.115 24.368 12.741 24.368 25.155 0 1.885-.256 3.757-.729 5.585-3.568-2.823-7.678-5.08-12.148-6.611-3.918-1.342-8.184.747-9.525 4.666-1.342 3.918.747 8.183 4.665 9.525 12.202 4.181 17.738 16.219 17.738 28.247 0 15.411-9.373 29.221-24.372 36.646-2.282-7.199-6.967-13.626-13.596-18.413-3.358-2.427-8.047-1.669-10.471 1.689-2.425 3.357-1.668 8.046 1.69 10.471 5.635 4.069 8.885 9.995 8.95 16.282-3.547 11.81-14.464 20.37-28.915 20.37z"/></g></svg>