<svg xmlns="http://www.w3.org/2000/svg" width="21.2" height="21.155" viewBox="0 0 21.2 21.155">
  <g id="share" transform="translate(-2.029 -1.845)">
    <path id="Path_6" data-name="Path 6" d="M19.5,16a3.49,3.49,0,0,0-2.8,1.42l-6-3.24a4.41,4.41,0,0,0,0-3.36l6-3.24a3.61,3.61,0,1,0-.47-.88l-6,3.24a4.5,4.5,0,1,0,0,5.12l6,3.24A3.46,3.46,0,0,0,16,19.5,3.5,3.5,0,1,0,19.5,16Zm0-13A2.5,2.5,0,1,1,17,5.5,2.5,2.5,0,0,1,19.5,3ZM6.5,16A3.5,3.5,0,1,1,10,12.5,3.5,3.5,0,0,1,6.5,16Zm13,6A2.5,2.5,0,1,1,22,19.5,2.5,2.5,0,0,1,19.5,22Z" fill="#12847c"/>
  </g>
</svg>
